  0
SECTION
  2
HEADER
  9
$ACADVER
  1
AC1009
  0
ENDSEC
  0
SECTION
  2
TABLES
  0
TABLE
  2
LAYER
  70
3
  0
LAYER
  2
Layer_0
  70
0
  62
7
  6
CONTINUOUS
  0
LAYER
  2
Layer_1
  70
0
  62
5
  6
CONTINUOUS
  0
LAYER
  2
Layer_2
  70
0
  62
1
  6
CONTINUOUS
  0
ENDTAB
  0
ENDSEC
  0
SECTION
  2
ENTITIES
  0
POLYLINE
  5
90
  8
Layer_0
  62
7
  70
1
  66
1
  10
0
  20
0
  30
0
  0
VERTEX
  5
90
  8
Layer_0
  10
165.55562
  20
40
  0
VERTEX
  5
91
  8
Layer_0
  10
165.55562
  20
43
  0
VERTEX
  5
92
  8
Layer_0
  10
187.77783
  20
43
  0
VERTEX
  5
93
  8
Layer_0
  10
187.77783
  20
40
  0
VERTEX
  5
94
  8
Layer_0
  10
210.00006
  20
40
  0
VERTEX
  5
95
  8
Layer_0
  10
210.00006
  20
60.588226
  0
VERTEX
  5
96
  8
Layer_0
  10
207.00006
  20
60.588226
  0
VERTEX
  5
97
  8
Layer_0
  10
207.00006
  20
81.176483
  0
VERTEX
  5
98
  8
Layer_0
  10
210.00006
  20
81.176483
  0
VERTEX
  5
99
  8
Layer_0
  10
210.00005
  20
101.76471
  0
VERTEX
  5
9a
  8
Layer_0
  10
207.00005
  20
101.76471
  0
VERTEX
  5
9b
  8
Layer_0
  10
207.00005
  20
122.35294
  0
VERTEX
  5
9c
  8
Layer_0
  10
210.00005
  20
122.35294
  0
VERTEX
  5
9d
  8
Layer_0
  10
210.00005
  20
142.94116
  0
VERTEX
  5
9e
  8
Layer_0
  10
207.00005
  20
142.94116
  0
VERTEX
  5
9f
  8
Layer_0
  10
207.00005
  20
163.52942
  0
VERTEX
  5
a0
  8
Layer_0
  10
210.00005
  20
163.52942
  0
VERTEX
  5
a1
  8
Layer_0
  10
210.00003
  20
184.11765
  0
VERTEX
  5
a2
  8
Layer_0
  10
207.00003
  20
184.11765
  0
VERTEX
  5
a3
  8
Layer_0
  10
207.00003
  20
204.70589
  0
VERTEX
  5
a4
  8
Layer_0
  10
210.00003
  20
204.70589
  0
VERTEX
  5
a5
  8
Layer_0
  10
210.00003
  20
225.29411
  0
VERTEX
  5
a6
  8
Layer_0
  10
207.00003
  20
225.29411
  0
VERTEX
  5
a7
  8
Layer_0
  10
207.00003
  20
245.88235
  0
VERTEX
  5
a8
  8
Layer_0
  10
210.00003
  20
245.88235
  0
VERTEX
  5
a9
  8
Layer_0
  10
210.00003
  20
266.47058
  0
VERTEX
  5
aa
  8
Layer_0
  10
207.00003
  20
266.47058
  0
VERTEX
  5
ab
  8
Layer_0
  10
207.00002
  20
287.05882
  0
VERTEX
  5
ac
  8
Layer_0
  10
210.00002
  20
287.05882
  0
VERTEX
  5
ad
  8
Layer_0
  10
210.00002
  20
307.64706
  0
VERTEX
  5
ae
  8
Layer_0
  10
207.00002
  20
307.64706
  0
VERTEX
  5
af
  8
Layer_0
  10
207.00002
  20
328.23529
  0
VERTEX
  5
b0
  8
Layer_0
  10
210.00002
  20
328.23529
  0
VERTEX
  5
b1
  8
Layer_0
  10
210.00002
  20
348.82352
  0
VERTEX
  5
b2
  8
Layer_0
  10
207.00002
  20
348.82352
  0
VERTEX
  5
b3
  8
Layer_0
  10
207
  20
369.41177
  0
VERTEX
  5
b4
  8
Layer_0
  10
210
  20
369.41177
  0
VERTEX
  5
b5
  8
Layer_0
  10
210
  20
390
  0
VERTEX
  5
b6
  8
Layer_0
  10
187.77779
  20
390
  0
VERTEX
  5
b7
  8
Layer_0
  10
187.77779
  20
387
  0
VERTEX
  5
b8
  8
Layer_0
  10
165.55556
  20
387
  0
VERTEX
  5
b9
  8
Layer_0
  10
165.55556
  20
390
  0
VERTEX
  5
ba
  8
Layer_0
  10
143.33334
  20
390
  0
VERTEX
  5
bb
  8
Layer_0
  10
143.33334
  20
387
  0
VERTEX
  5
bc
  8
Layer_0
  10
121.11112
  20
387
  0
VERTEX
  5
bd
  8
Layer_0
  10
121.11112
  20
390
  0
VERTEX
  5
be
  8
Layer_0
  10
98.888901
  20
389.99997
  0
VERTEX
  5
bf
  8
Layer_0
  10
98.888901
  20
386.99997
  0
VERTEX
  5
c0
  8
Layer_0
  10
76.666672
  20
386.99997
  0
VERTEX
  5
c1
  8
Layer_0
  10
76.666672
  20
389.99997
  0
VERTEX
  5
c2
  8
Layer_0
  10
54.444443
  20
389.99997
  0
VERTEX
  5
c3
  8
Layer_0
  10
54.444443
  20
386.99997
  0
VERTEX
  5
c4
  8
Layer_0
  10
32.222229
  20
386.99997
  0
VERTEX
  5
c5
  8
Layer_0
  10
32.222229
  20
389.99997
  0
VERTEX
  5
c6
  8
Layer_0
  10
10
  20
389.99997
  0
VERTEX
  5
c7
  8
Layer_0
  10
10
  20
369.41174
  0
VERTEX
  5
c8
  8
Layer_0
  10
13
  20
369.41174
  0
VERTEX
  5
c9
  8
Layer_0
  10
13.000015
  20
348.82349
  0
VERTEX
  5
ca
  8
Layer_0
  10
10.000015
  20
348.82349
  0
VERTEX
  5
cb
  8
Layer_0
  10
10.000015
  20
328.23526
  0
VERTEX
  5
cc
  8
Layer_0
  10
13.000015
  20
328.23526
  0
VERTEX
  5
cd
  8
Layer_0
  10
13.000015
  20
307.64703
  0
VERTEX
  5
ce
  8
Layer_0
  10
10.000015
  20
307.64703
  0
VERTEX
  5
cf
  8
Layer_0
  10
10.000015
  20
287.05879
  0
VERTEX
  5
d0
  8
Layer_0
  10
13.000015
  20
287.05879
  0
VERTEX
  5
d1
  8
Layer_0
  10
13.000031
  20
266.47055
  0
VERTEX
  5
d2
  8
Layer_0
  10
10.000031
  20
266.47055
  0
VERTEX
  5
d3
  8
Layer_0
  10
10.000031
  20
245.88232
  0
VERTEX
  5
d4
  8
Layer_0
  10
13.000031
  20
245.88232
  0
VERTEX
  5
d5
  8
Layer_0
  10
13.000031
  20
225.29408
  0
VERTEX
  5
d6
  8
Layer_0
  10
10.000031
  20
225.29408
  0
VERTEX
  5
d7
  8
Layer_0
  10
10.000031
  20
204.70586
  0
VERTEX
  5
d8
  8
Layer_0
  10
13.000031
  20
204.70586
  0
VERTEX
  5
d9
  8
Layer_0
  10
13.000031
  20
184.11761
  0
VERTEX
  5
da
  8
Layer_0
  10
10.000031
  20
184.11761
  0
VERTEX
  5
db
  8
Layer_0
  10
10.000046
  20
163.52939
  0
VERTEX
  5
dc
  8
Layer_0
  10
13.000046
  20
163.52939
  0
VERTEX
  5
dd
  8
Layer_0
  10
13.000046
  20
142.94116
  0
VERTEX
  5
de
  8
Layer_0
  10
10.000046
  20
142.94116
  0
VERTEX
  5
df
  8
Layer_0
  10
10.000046
  20
122.35291
  0
VERTEX
  5
e0
  8
Layer_0
  10
13.000046
  20
122.35291
  0
VERTEX
  5
e1
  8
Layer_0
  10
13.000046
  20
101.76468
  0
VERTEX
  5
e2
  8
Layer_0
  10
10.000046
  20
101.76468
  0
VERTEX
  5
e3
  8
Layer_0
  10
10.000061
  20
81.176453
  0
VERTEX
  5
e4
  8
Layer_0
  10
13.000061
  20
81.176453
  0
VERTEX
  5
e5
  8
Layer_0
  10
13.000061
  20
60.588196
  0
VERTEX
  5
e6
  8
Layer_0
  10
10.000061
  20
60.588196
  0
VERTEX
  5
e7
  8
Layer_0
  10
10.000061
  20
39.999969
  0
VERTEX
  5
e8
  8
Layer_0
  10
32.22229
  20
39.999969
  0
VERTEX
  5
e9
  8
Layer_0
  10
32.22229
  20
42.999969
  0
VERTEX
  5
ea
  8
Layer_0
  10
54.444504
  20
42.999969
  0
VERTEX
  5
eb
  8
Layer_0
  10
54.444504
  20
39.999969
  0
VERTEX
  5
ec
  8
Layer_0
  10
76.666733
  20
39.999969
  0
VERTEX
  5
ed
  8
Layer_0
  10
76.666733
  20
42.999969
  0
VERTEX
  5
ee
  8
Layer_0
  10
98.888954
  20
42.999969
  0
VERTEX
  5
ef
  8
Layer_0
  10
98.888954
  20
39.999969
  0
VERTEX
  5
f0
  8
Layer_0
  10
121.11118
  20
40
  0
VERTEX
  5
f1
  8
Layer_0
  10
121.11118
  20
43
  0
VERTEX
  5
f2
  8
Layer_0
  10
143.3334
  20
43
  0
VERTEX
  5
f3
  8
Layer_0
  10
143.3334
  20
40
  0
SEQEND
  0
POLYLINE
  5
f5
  8
Layer_2
  62
1
  70
1
  66
1
  10
0
  20
0
  30
0
  0
VERTEX
  5
f5
  8
Layer_2
  10
46.224788
  20
252.01049
  0
VERTEX
  5
f6
  8
Layer_2
  10
46.783525
  20
252.13446
  0
VERTEX
  5
f7
  8
Layer_2
  10
47.333212
  20
252.27598
  0
VERTEX
  5
f8
  8
Layer_2
  10
47.864796
  20
252.45262
  0
VERTEX
  5
f9
  8
Layer_2
  10
48.369228
  20
252.68195
  0
VERTEX
  5
fa
  8
Layer_2
  10
48.763067
  20
252.92144
  0
VERTEX
  5
fb
  8
Layer_2
  10
49.138164
  20
253.19729
  0
VERTEX
  5
fc
  8
Layer_2
  10
49.500764
  20
253.49738
  0
VERTEX
  5
fd
  8
Layer_2
  10
49.857112
  20
253.80959
  0
VERTEX
  5
fe
  8
Layer_2
  10
50.108206
  20
254.19653
  0
VERTEX
  5
ff
  8
Layer_2
  10
50.345834
  20
254.58793
  0
VERTEX
  5
100
  8
Layer_2
  10
50.556531
  20
254.98825
  0
VERTEX
  5
101
  8
Layer_2
  10
50.726833
  20
255.40194
  0
VERTEX
  5
102
  8
Layer_2
  10
50.861597
  20
255.89771
  0
VERTEX
  5
103
  8
Layer_2
  10
50.942971
  20
256.41116
  0
VERTEX
  5
104
  8
Layer_2
  10
50.988751
  20
256.93638
  0
VERTEX
  5
105
  8
Layer_2
  10
51.016734
  20
257.4675
  0
VERTEX
  5
106
  8
Layer_2
  10
50.998531
  20
258.01599
  0
VERTEX
  5
107
  8
Layer_2
  10
50.961816
  20
258.55889
  0
VERTEX
  5
108
  8
Layer_2
  10
50.888076
  20
259.0906
  0
VERTEX
  5
109
  8
Layer_2
  10
50.758799
  20
259.60555
  0
VERTEX
  5
10a
  8
Layer_2
  10
50.606723
  20
260.00227
  0
VERTEX
  5
10b
  8
Layer_2
  10
50.419186
  20
260.38829
  0
VERTEX
  5
10c
  8
Layer_2
  10
50.208008
  20
260.76717
  0
VERTEX
  5
10d
  8
Layer_2
  10
49.98501
  20
261.14248
  0
VERTEX
  5
10e
  8
Layer_2
  10
49.72325
  20
261.41037
  0
VERTEX
  5
10f
  8
Layer_2
  10
49.454283
  20
261.66382
  0
VERTEX
  5
110
  8
Layer_2
  10
49.170902
  20
261.88842
  0
VERTEX
  5
111
  8
Layer_2
  10
48.8659
  20
262.06974
  0
VERTEX
  5
112
  8
Layer_2
  10
48.563555
  20
262.18933
  0
VERTEX
  5
113
  8
Layer_2
  10
48.243095
  20
262.27265
  0
VERTEX
  5
114
  8
Layer_2
  10
47.910559
  20
262.33179
  0
VERTEX
  5
115
  8
Layer_2
  10
47.571985
  20
262.37883
  0
VERTEX
  5
116
  8
Layer_2
  10
47.152256
  20
262.34066
  0
VERTEX
  5
117
  8
Layer_2
  10
46.751307
  20
262.2488
  0
VERTEX
  5
118
  8
Layer_2
  10
46.398531
  20
262.07811
  0
VERTEX
  5
119
  8
Layer_2
  10
46.062784
  20
261.85871
  0
VERTEX
  5
11a
  8
Layer_2
  10
45.755541
  20
261.51175
  0
VERTEX
  5
11b
  8
Layer_2
  10
45.480845
  20
261.14461
  0
VERTEX
  5
11c
  8
Layer_2
  10
45.33103
  20
260.88434
  0
VERTEX
  5
11d
  8
Layer_2
  10
45.202282
  20
260.611
  0
VERTEX
  5
11e
  8
Layer_2
  10
45.087579
  20
260.32895
  0
VERTEX
  5
11f
  8
Layer_2
  10
44.979899
  20
260.04255
  42
0.0045756767
  0
VERTEX
  5
120
  8
Layer_2
  10
44.553574
  20
258.58875
  42
0.0080660129
  0
VERTEX
  5
121
  8
Layer_2
  10
43.888504
  20
256.00093
  0
VERTEX
  5
122
  8
Layer_2
  10
43.659442
  20
255.11422
  0
VERTEX
  5
123
  8
Layer_2
  10
43.409885
  20
254.23686
  0
VERTEX
  5
124
  8
Layer_2
  10
43.119324
  20
253.37822
  0
VERTEX
  5
125
  8
Layer_2
  10
42.767254
  20
252.54766
  0
VERTEX
  5
126
  8
Layer_2
  10
42.4667
  20
251.97
  0
VERTEX
  5
127
  8
Layer_2
  10
42.134165
  20
251.40694
  0
VERTEX
  5
128
  8
Layer_2
  10
41.780306
  20
250.85362
  0
VERTEX
  5
129
  8
Layer_2
  10
41.415783
  20
250.30516
  0
VERTEX
  5
12a
  8
Layer_2
  10
40.87408
  20
249.80607
  0
VERTEX
  5
12b
  8
Layer_2
  10
40.320116
  20
249.33395
  0
VERTEX
  5
12c
  8
Layer_2
  10
39.741636
  20
248.91578
  0
VERTEX
  5
12d
  8
Layer_2
  10
39.126385
  20
248.57852
  0
VERTEX
  5
12e
  8
Layer_2
  10
38.481995
  20
248.34456
  0
VERTEX
  5
12f
  8
Layer_2
  10
37.802517
  20
248.18781
  0
VERTEX
  5
130
  8
Layer_2
  10
37.099648
  20
248.08252
  0
VERTEX
  5
131
  8
Layer_2
  10
36.385083
  20
248.00298
  0
VERTEX
  5
132
  8
Layer_2
  10
35.913866
  20
248.0402
  0
VERTEX
  5
133
  8
Layer_2
  10
35.446322
  20
248.0896
  0
VERTEX
  5
134
  8
Layer_2
  10
34.986122
  20
248.16338
  0
VERTEX
  5
135
  8
Layer_2
  10
34.536938
  20
248.2737
  0
VERTEX
  5
136
  8
Layer_2
  10
34.092431
  20
248.43233
  0
VERTEX
  5
137
  8
Layer_2
  10
33.659392
  20
248.62902
  0
VERTEX
  5
138
  8
Layer_2
  10
33.234
  20
248.85109
  0
VERTEX
  5
139
  8
Layer_2
  10
32.812435
  20
249.08585
  0
VERTEX
  5
13a
  8
Layer_2
  10
32.420308
  20
249.39495
  0
VERTEX
  5
13b
  8
Layer_2
  10
32.038584
  20
249.71257
  0
VERTEX
  5
13c
  8
Layer_2
  10
31.677674
  20
250.04724
  0
VERTEX
  5
13d
  8
Layer_2
  10
31.347988
  20
250.40747
  0
VERTEX
  5
13e
  8
Layer_2
  10
31.040024
  20
250.82369
  0
VERTEX
  5
13f
  8
Layer_2
  10
30.767185
  20
251.26868
  0
VERTEX
  5
140
  8
Layer_2
  10
30.517761
  20
251.73284
  0
VERTEX
  5
141
  8
Layer_2
  10
30.280041
  20
252.20659
  0
VERTEX
  5
142
  8
Layer_2
  10
30.091707
  20
252.76417
  0
VERTEX
  5
143
  8
Layer_2
  10
29.913478
  20
253.32361
  0
VERTEX
  5
144
  8
Layer_2
  10
29.75546
  20
253.88676
  0
VERTEX
  5
145
  8
Layer_2
  10
29.627757
  20
254.45548
  0
VERTEX
  5
146
  8
Layer_2
  10
29.527075
  20
255.11471
  0
VERTEX
  5
147
  8
Layer_2
  10
29.466098
  20
255.78123
  0
VERTEX
  5
148
  8
Layer_2
  10
29.431591
  20
256.45262
  0
VERTEX
  5
149
  8
Layer_2
  10
29.410319
  20
257.12644
  0
VERTEX
  5
14a
  8
Layer_2
  10
29.447699
  20
258.18626
  0
VERTEX
  5
14b
  8
Layer_2
  10
29.521712
  20
259.23463
  0
VERTEX
  5
14c
  8
Layer_2
  10
29.583905
  20
259.75094
  0
VERTEX
  5
14d
  8
Layer_2
  10
29.668995
  20
260.26009
  0
VERTEX
  5
14e
  8
Layer_2
  10
29.781563
  20
260.76065
  0
VERTEX
  5
14f
  8
Layer_2
  10
29.926188
  20
261.25119
  0
VERTEX
  5
150
  8
Layer_2
  10
30.230256
  20
262.0173
  0
VERTEX
  5
151
  8
Layer_2
  10
30.605316
  20
262.76122
  0
VERTEX
  5
152
  8
Layer_2
  10
31.027706
  20
263.49033
  0
VERTEX
  5
153
  8
Layer_2
  10
31.473764
  20
264.21205
  0
VERTEX
  5
154
  8
Layer_2
  10
32.045364
  20
264.73201
  0
VERTEX
  5
155
  8
Layer_2
  10
32.629201
  20
265.22539
  0
VERTEX
  5
156
  8
Layer_2
  10
33.237512
  20
265.66561
  0
VERTEX
  5
157
  8
Layer_2
  10
33.882532
  20
266.02608
  0
VERTEX
  5
158
  8
Layer_2
  10
34.609936
  20
266.30022
  0
VERTEX
  5
159
  8
Layer_2
  10
35.378009
  20
266.48602
  0
VERTEX
  5
15a
  8
Layer_2
  10
36.173196
  20
266.61291
  0
VERTEX
  5
15b
  8
Layer_2
  10
36.981942
  20
266.71034
  0
VERTEX
  5
15c
  8
Layer_2
  10
37.203644
  20
261.6626
  0
VERTEX
  5
15d
  8
Layer_2
  10
36.770481
  20
261.57158
  0
VERTEX
  5
15e
  8
Layer_2
  10
36.344958
  20
261.46602
  0
VERTEX
  5
15f
  8
Layer_2
  10
35.9347
  20
261.33138
  0
VERTEX
  5
160
  8
Layer_2
  10
35.547343
  20
261.15312
  0
VERTEX
  5
161
  8
Layer_2
  10
35.250675
  20
260.96723
  0
VERTEX
  5
162
  8
Layer_2
  10
34.969397
  20
260.75203
  0
VERTEX
  5
163
  8
Layer_2
  10
34.698378
  20
260.51728
  0
VERTEX
  5
164
  8
Layer_2
  10
34.43249
  20
260.27275
  0
VERTEX
  5
165
  8
Layer_2
  10
34.250121
  20
259.94656
  0
VERTEX
  5
166
  8
Layer_2
  10
34.077389
  20
259.61762
  0
VERTEX
  5
167
  8
Layer_2
  10
33.923932
  20
259.28318
  0
VERTEX
  5
168
  8
Layer_2
  10
33.799388
  20
258.94048
  0
VERTEX
  5
169
  8
Layer_2
  10
33.692001
  20
258.48978
  0
VERTEX
  5
16a
  8
Layer_2
  10
33.63144
  20
258.02571
  0
VERTEX
  5
16b
  8
Layer_2
  10
33.602095
  20
257.55272
  0
VERTEX
  5
16c
  8
Layer_2
  10
33.588359
  20
257.07527
  0
VERTEX
  5
16d
  8
Layer_2
  10
33.606706
  20
256.57437
  0
VERTEX
  5
16e
  8
Layer_2
  10
33.640309
  20
256.07772
  0
VERTEX
  5
16f
  8
Layer_2
  10
33.704426
  20
255.58957
  0
VERTEX
  5
170
  8
Layer_2
  10
33.814311
  20
255.11417
  0
VERTEX
  5
171
  8
Layer_2
  10
33.947321
  20
254.7331
  0
VERTEX
  5
172
  8
Layer_2
  10
34.111579
  20
254.36074
  0
VERTEX
  5
173
  8
Layer_2
  10
34.296671
  20
253.99418
  0
VERTEX
  5
174
  8
Layer_2
  10
34.492183
  20
253.63053
  0
VERTEX
  5
175
  8
Layer_2
  10
34.649558
  20
253.45677
  0
VERTEX
  5
176
  8
Layer_2
  10
34.811771
  20
253.2924
  0
VERTEX
  5
177
  8
Layer_2
  10
34.983654
  20
253.14682
  0
VERTEX
  5
178
  8
Layer_2
  10
35.17004
  20
253.02941
  0
VERTEX
  5
179
  8
Layer_2
  10
35.371963
  20
252.94712
  0
VERTEX
  5
17a
  8
Layer_2
  10
35.588089
  20
252.89242
  0
VERTEX
  5
17b
  8
Layer_2
  10
35.813684
  20
252.85613
  0
VERTEX
  5
17c
  8
Layer_2
  10
36.044017
  20
252.82903
  0
VERTEX
  5
17d
  8
Layer_2
  10
36.259222
  20
252.85638
  0
VERTEX
  5
17e
  8
Layer_2
  10
36.470628
  20
252.89155
  0
VERTEX
  5
17f
  8
Layer_2
  10
36.674433
  20
252.94235
  0
VERTEX
  5
180
  8
Layer_2
  10
36.866832
  20
253.01662
  0
VERTEX
  5
181
  8
Layer_2
  10
37.055495
  20
253.12659
  0
VERTEX
  5
182
  8
Layer_2
  10
37.231361
  20
253.26289
  0
VERTEX
  5
183
  8
Layer_2
  10
37.398695
  20
253.41674
  0
VERTEX
  5
184
  8
Layer_2
  10
37.561763
  20
253.57938
  0
VERTEX
  5
185
  8
Layer_2
  10
37.993104
  20
254.38936
  0
VERTEX
  5
186
  8
Layer_2
  10
38.380306
  20
255.21648
  0
VERTEX
  5
187
  8
Layer_2
  10
38.64959
  20
255.94504
  0
VERTEX
  5
188
  8
Layer_2
  10
38.870774
  20
256.69227
  0
VERTEX
  5
189
  8
Layer_2
  10
39.059889
  20
257.45195
  0
VERTEX
  5
18a
  8
Layer_2
  10
39.232966
  20
258.21785
  0
VERTEX
  5
18b
  8
Layer_2
  10
39.429093
  20
259.02734
  0
VERTEX
  5
18c
  8
Layer_2
  10
39.635233
  20
259.83342
  0
VERTEX
  5
18d
  8
Layer_2
  10
39.861401
  20
260.63268
  0
VERTEX
  5
18e
  8
Layer_2
  10
40.117609
  20
261.42171
  0
VERTEX
  5
18f
  8
Layer_2
  10
40.553543
  20
262.55128
  0
VERTEX
  5
190
  8
Layer_2
  10
41.032083
  20
263.66635
  0
VERTEX
  5
191
  8
Layer_2
  10
41.284476
  20
264.08049
  0
VERTEX
  5
192
  8
Layer_2
  10
41.545902
  20
264.48629
  0
VERTEX
  5
193
  8
Layer_2
  10
41.825401
  20
264.87541
  0
VERTEX
  5
194
  8
Layer_2
  10
42.132013
  20
265.23951
  0
VERTEX
  5
195
  8
Layer_2
  10
42.462296
  20
265.56454
  0
VERTEX
  5
196
  8
Layer_2
  10
42.818263
  20
265.86585
  0
VERTEX
  5
197
  8
Layer_2
  10
43.191354
  20
266.15136
  0
VERTEX
  5
198
  8
Layer_2
  10
43.573007
  20
266.42896
  0
VERTEX
  5
199
  8
Layer_2
  10
44.015789
  20
266.64505
  0
VERTEX
  5
19a
  8
Layer_2
  10
44.461583
  20
266.84952
  0
VERTEX
  5
19b
  8
Layer_2
  10
44.913403
  20
267.03077
  0
VERTEX
  5
19c
  8
Layer_2
  10
45.374261
  20
267.17717
  0
VERTEX
  5
19d
  8
Layer_2
  10
45.906073
  20
267.291
  0
VERTEX
  5
19e
  8
Layer_2
  10
46.449334
  20
267.3607
  0
VERTEX
  5
19f
  8
Layer_2
  10
47.000229
  20
267.401
  0
VERTEX
  5
1a0
  8
Layer_2
  10
47.55494
  20
267.42658
  0
VERTEX
  5
1a1
  8
Layer_2
  10
48.085011
  20
267.38569
  0
VERTEX
  5
1a2
  8
Layer_2
  10
48.611104
  20
267.33132
  0
VERTEX
  5
1a3
  8
Layer_2
  10
49.129238
  20
267.24996
  0
VERTEX
  5
1a4
  8
Layer_2
  10
49.635431
  20
267.12815
  0
VERTEX
  5
1a5
  8
Layer_2
  10
50.13589
  20
266.95328
  0
VERTEX
  5
1a6
  8
Layer_2
  10
50.623969
  20
266.73645
  0
VERTEX
  5
1a7
  8
Layer_2
  10
51.103794
  20
266.49164
  0
VERTEX
  5
1a8
  8
Layer_2
  10
51.579492
  20
266.23285
  0
VERTEX
  5
1a9
  8
Layer_2
  10
52.018165
  20
265.89745
  0
VERTEX
  5
1aa
  8
Layer_2
  10
52.444869
  20
265.55211
  0
VERTEX
  5
1ab
  8
Layer_2
  10
52.84763
  20
265.1869
  0
VERTEX
  5
1ac
  8
Layer_2
  10
53.214471
  20
264.79186
  0
VERTEX
  5
1ad
  8
Layer_2
  10
53.547562
  20
264.34515
  0
VERTEX
  5
1ae
  8
Layer_2
  10
53.842262
  20
263.86658
  0
VERTEX
  5
1af
  8
Layer_2
  10
54.11137
  20
263.36676
  0
VERTEX
  5
1b0
  8
Layer_2
  10
54.367685
  20
262.85633
  0
VERTEX
  5
1b1
  8
Layer_2
  10
54.565153
  20
262.24812
  0
VERTEX
  5
1b2
  8
Layer_2
  10
54.752058
  20
261.63806
  0
VERTEX
  5
1b3
  8
Layer_2
  10
54.917843
  20
261.02428
  0
VERTEX
  5
1b4
  8
Layer_2
  10
55.051951
  20
260.40493
  0
VERTEX
  5
1b5
  8
Layer_2
  10
55.160233
  20
259.6668
  0
VERTEX
  5
1b6
  8
Layer_2
  10
55.224578
  20
258.92094
  0
VERTEX
  5
1b7
  8
Layer_2
  10
55.259631
  20
258.16993
  0
VERTEX
  5
1b8
  8
Layer_2
  10
55.28004
  20
257.41634
  0
VERTEX
  5
1b9
  8
Layer_2
  10
55.235152
  20
256.33921
  0
VERTEX
  5
1ba
  8
Layer_2
  10
55.153436
  20
255.27385
  0
VERTEX
  5
1bb
  8
Layer_2
  10
55.087258
  20
254.74927
  0
VERTEX
  5
1bc
  8
Layer_2
  10
54.998063
  20
254.23204
  0
VERTEX
  5
1bd
  8
Layer_2
  10
54.881246
  20
253.72363
  0
VERTEX
  5
1be
  8
Layer_2
  10
54.732204
  20
253.22553
  0
VERTEX
  5
1bf
  8
Layer_2
  10
54.40976
  20
252.42454
  0
VERTEX
  5
1c0
  8
Layer_2
  10
54.011518
  20
251.64778
  0
VERTEX
  5
1c1
  8
Layer_2
  10
53.562742
  20
250.88717
  0
VERTEX
  5
1c2
  8
Layer_2
  10
53.088696
  20
250.13463
  0
VERTEX
  5
1c3
  8
Layer_2
  10
52.446393
  20
249.56456
  0
VERTEX
  5
1c4
  8
Layer_2
  10
51.791785
  20
249.01958
  0
VERTEX
  5
1c5
  8
Layer_2
  10
51.112562
  20
248.52479
  0
VERTEX
  5
1c6
  8
Layer_2
  10
50.39642
  20
248.10529
  0
VERTEX
  5
1c7
  8
Layer_2
  10
49.969372
  20
247.90873
  0
VERTEX
  5
1c8
  8
Layer_2
  10
49.528436
  20
247.74048
  0
VERTEX
  5
1c9
  8
Layer_2
  10
49.075597
  20
247.59651
  0
VERTEX
  5
1ca
  8
Layer_2
  10
48.612837
  20
247.47277
  0
VERTEX
  5
1cb
  8
Layer_2
  10
47.665496
  20
247.26978
  0
VERTEX
  5
1cc
  8
Layer_2
  10
46.702283
  20
247.09916
  0
VERTEX
  5
1cd
  8
Layer_2
  10
46.224792
  20
252.01048
  0
SEQEND
  0
POLYLINE
  5
1cf
  8
Layer_2
  62
1
  70
1
  66
1
  10
0
  20
0
  30
0
  0
VERTEX
  5
1cf
  8
Layer_2
  10
50.624496
  20
337.2424
  0
VERTEX
  5
1d0
  8
Layer_2
  10
54.836639
  20
337.2424
  0
VERTEX
  5
1d1
  8
Layer_2
  10
54.836639
  20
318.22809
  0
VERTEX
  5
1d2
  8
Layer_2
  10
29.836639
  20
318.22809
  0
VERTEX
  5
1d3
  8
Layer_2
  10
29.836639
  20
336.76492
  0
VERTEX
  5
1d4
  8
Layer_2
  10
34.065842
  20
336.76492
  0
VERTEX
  5
1d5
  8
Layer_2
  10
34.065842
  20
323.27582
  0
VERTEX
  5
1d6
  8
Layer_2
  10
39.608124
  20
323.27582
  0
VERTEX
  5
1d7
  8
Layer_2
  10
39.608124
  20
335.827
  0
VERTEX
  5
1d8
  8
Layer_2
  10
43.820267
  20
335.827
  0
VERTEX
  5
1d9
  8
Layer_2
  10
43.820267
  20
323.27582
  0
VERTEX
  5
1da
  8
Layer_2
  10
50.624496
  20
323.27582
  0
SEQEND
  0
POLYLINE
  5
1dc
  8
Layer_2
  62
1
  70
1
  66
1
  10
0
  20
0
  30
0
  0
VERTEX
  5
1dc
  8
Layer_2
  10
82.172768
  20
225.74136
  0
VERTEX
  5
1dd
  8
Layer_2
  10
85.542427
  20
225.7211
  0
VERTEX
  5
1de
  8
Layer_2
  10
85.457764
  20
211.64223
  0
VERTEX
  5
1df
  8
Layer_2
  10
65.621826
  20
211.76151
  0
VERTEX
  5
1e0
  8
Layer_2
  10
65.646118
  20
215.79962
  0
VERTEX
  5
1e1
  8
Layer_2
  10
82.112404
  20
215.70062
  0
SEQEND
  0
POLYLINE
  5
1e3
  8
Layer_2
  62
1
  70
1
  66
1
  10
0
  20
0
  30
0
  0
VERTEX
  5
1e3
  8
Layer_2
  10
78.80917
  20
251.72386
  0
VERTEX
  5
1e4
  8
Layer_2
  10
79.256754
  20
251.82034
  0
VERTEX
  5
1e5
  8
Layer_2
  10
79.697178
  20
251.93092
  0
VERTEX
  5
1e6
  8
Layer_2
  10
80.123285
  20
252.06968
  0
VERTEX
  5
1e7
  8
Layer_2
  10
80.52792
  20
252.25071
  0
VERTEX
  5
1e8
  8
Layer_2
  10
80.844145
  20
252.4404
  0
VERTEX
  5
1e9
  8
Layer_2
  10
81.145546
  20
252.65927
  0
VERTEX
  5
1ea
  8
Layer_2
  10
81.437064
  20
252.89759
  0
VERTEX
  5
1eb
  8
Layer_2
  10
81.723644
  20
253.14564
  0
VERTEX
  5
1ec
  8
Layer_2
  10
81.926378
  20
253.45399
  0
VERTEX
  5
1ed
  8
Layer_2
  10
82.118358
  20
253.76596
  0
VERTEX
  5
1ee
  8
Layer_2
  10
82.288835
  20
254.08519
  0
VERTEX
  5
1ef
  8
Layer_2
  10
82.427059
  20
254.41531
  0
VERTEX
  5
1f0
  8
Layer_2
  10
82.537258
  20
254.81127
  0
VERTEX
  5
1f1
  8
Layer_2
  10
82.604825
  20
255.22163
  0
VERTEX
  5
1f2
  8
Layer_2
  10
82.643974
  20
255.64159
  0
VERTEX
  5
1f3
  8
Layer_2
  10
82.668918
  20
256.06634
  0
VERTEX
  5
1f4
  8
Layer_2
  10
82.657
  20
256.50521
  0
VERTEX
  5
1f5
  8
Layer_2
  10
82.63024
  20
256.9397
  0
VERTEX
  5
1f6
  8
Layer_2
  10
82.573806
  20
257.36542
  0
VERTEX
  5
1f7
  8
Layer_2
  10
82.472865
  20
257.77799
  0
VERTEX
  5
1f8
  8
Layer_2
  10
82.353109
  20
258.09609
  0
VERTEX
  5
1f9
  8
Layer_2
  10
82.204937
  20
258.4058
  0
VERTEX
  5
1fa
  8
Layer_2
  10
82.03782
  20
258.70991
  0
VERTEX
  5
1fb
  8
Layer_2
  10
81.861231
  20
259.01122
  0
VERTEX
  5
1fc
  8
Layer_2
  10
81.653118
  20
259.22679
  0
VERTEX
  5
1fd
  8
Layer_2
  10
81.439168
  20
259.43085
  0
VERTEX
  5
1fe
  8
Layer_2
  10
81.213546
  20
259.6119
  0
VERTEX
  5
1ff
  8
Layer_2
  10
80.970423
  20
259.75842
  0
VERTEX
  5
200
  8
Layer_2
  10
80.729124
  20
259.85554
  0
VERTEX
  5
201
  8
Layer_2
  10
80.47316
  20
259.92373
  0
VERTEX
  5
202
  8
Layer_2
  10
80.207421
  20
259.97264
  0
VERTEX
  5
203
  8
Layer_2
  10
79.936793
  20
260.0119
  0
VERTEX
  5
204
  8
Layer_2
  10
79.600842
  20
259.98339
  0
VERTEX
  5
205
  8
Layer_2
  10
79.279643
  20
259.91183
  0
VERTEX
  5
206
  8
Layer_2
  10
78.996598
  20
259.77697
  0
VERTEX
  5
207
  8
Layer_2
  10
78.726954
  20
259.60307
  42
0.04142164
  0
VERTEX
  5
208
  8
Layer_2
  10
78.25798
  20
259.03461
  0
VERTEX
  5
209
  8
Layer_2
  10
78.032559
  20
258.60906
  0
VERTEX
  5
20a
  8
Layer_2
  10
77.851924
  20
258.15537
  42
0.0045702677
  0
VERTEX
  5
20b
  8
Layer_2
  10
77.503876
  20
256.99443
  42
0.0080641278
  0
VERTEX
  5
20c
  8
Layer_2
  10
76.959381
  20
254.9274
  0
VERTEX
  5
20d
  8
Layer_2
  10
76.771872
  20
254.21914
  0
VERTEX
  5
20e
  8
Layer_2
  10
76.568008
  20
253.51847
  0
VERTEX
  5
20f
  8
Layer_2
  10
76.331431
  20
252.83297
  0
VERTEX
  5
210
  8
Layer_2
  10
76.045788
  20
252.17022
  0
VERTEX
  5
211
  8
Layer_2
  10
75.802571
  20
251.70955
  0
VERTEX
  5
212
  8
Layer_2
  10
75.533836
  20
251.26071
  0
VERTEX
  5
213
  8
Layer_2
  10
75.24809
  20
250.81977
  0
VERTEX
  5
214
  8
Layer_2
  10
74.953838
  20
250.38276
  0
VERTEX
  5
215
  8
Layer_2
  10
74.518083
  20
249.98611
  0
VERTEX
  5
216
  8
Layer_2
  10
74.072651
  20
249.61108
  0
VERTEX
  5
217
  8
Layer_2
  10
73.607867
  20
249.27933
  0
VERTEX
  5
218
  8
Layer_2
  10
73.114056
  20
249.01249
  0
VERTEX
  5
219
  8
Layer_2
  10
72.597424
  20
248.82842
  0
VERTEX
  5
21a
  8
Layer_2
  10
72.053095
  20
248.70629
  0
VERTEX
  5
21b
  8
Layer_2
  10
71.490305
  20
248.62544
  0
VERTEX
  5
21c
  8
Layer_2
  10
70.918286
  20
248.56524
  0
VERTEX
  5
21d
  8
Layer_2
  10
70.541496
  20
248.59729
  0
VERTEX
  5
21e
  8
Layer_2
  10
70.167704
  20
248.63906
  0
VERTEX
  5
21f
  8
Layer_2
  10
69.799905
  20
248.70029
  0
VERTEX
  5
220
  8
Layer_2
  10
69.441098
  20
248.7907
  0
VERTEX
  5
221
  8
Layer_2
  10
69.08626
  20
248.91975
  0
VERTEX
  5
222
  8
Layer_2
  10
68.740782
  20
249.07919
  0
VERTEX
  5
223
  8
Layer_2
  10
68.401544
  20
249.25889
  0
VERTEX
  5
224
  8
Layer_2
  10
68.065426
  20
249.44872
  0
VERTEX
  5
225
  8
Layer_2
  10
67.753216
  20
249.69788
  0
VERTEX
  5
226
  8
Layer_2
  10
67.44937
  20
249.95381
  0
VERTEX
  5
227
  8
Layer_2
  10
67.162258
  20
250.22327
  0
VERTEX
  5
228
  8
Layer_2
  10
66.90025
  20
250.51304
  0
VERTEX
  5
229
  8
Layer_2
  10
66.655883
  20
250.8475
  0
VERTEX
  5
22a
  8
Layer_2
  10
66.439753
  20
251.20479
  0
VERTEX
  5
22b
  8
Layer_2
  10
66.242445
  20
251.57731
  0
VERTEX
  5
22c
  8
Layer_2
  10
66.054546
  20
251.95745
  0
VERTEX
  5
22d
  8
Layer_2
  10
65.90657
  20
252.40441
  0
VERTEX
  5
22e
  8
Layer_2
  10
65.766683
  20
252.85281
  0
VERTEX
  5
22f
  8
Layer_2
  10
65.642981
  20
253.30408
  0
VERTEX
  5
230
  8
Layer_2
  10
65.54356
  20
253.75967
  0
VERTEX
  5
231
  8
Layer_2
  10
65.466185
  20
254.28752
  0
VERTEX
  5
232
  8
Layer_2
  10
65.420608
  20
254.82102
  0
VERTEX
  5
233
  8
Layer_2
  10
65.396231
  20
255.35829
  0
VERTEX
  5
234
  8
Layer_2
  10
65.382457
  20
255.89744
  0
VERTEX
  5
235
  8
Layer_2
  10
65.417462
  20
256.7451
  0
VERTEX
  5
236
  8
Layer_2
  10
65.481715
  20
257.58342
  0
VERTEX
  5
237
  8
Layer_2
  10
65.60447
  20
258.40307
  0
VERTEX
  5
238
  8
Layer_2
  10
65.814982
  20
259.19469
  0
VERTEX
  5
239
  8
Layer_2
  10
66.061921
  20
259.80611
  0
VERTEX
  5
23a
  8
Layer_2
  10
66.365544
  20
260.39943
  0
VERTEX
  5
23b
  8
Layer_2
  10
66.706958
  20
260.98068
  0
VERTEX
  5
23c
  8
Layer_2
  10
67.06727
  20
261.5559
  0
VERTEX
  5
23d
  8
Layer_2
  10
67.527045
  20
261.96911
  0
VERTEX
  5
23e
  8
Layer_2
  10
67.996479
  20
262.361
  0
VERTEX
  5
23f
  8
Layer_2
  10
68.485234
  20
262.71024
  0
VERTEX
  5
240
  8
Layer_2
  10
69.00297
  20
262.99551
  0
VERTEX
  5
241
  8
Layer_2
  10
69.586204
  20
263.21132
  0
VERTEX
  5
242
  8
Layer_2
  10
70.201551
  20
263.35625
  0
VERTEX
  5
243
  8
Layer_2
  10
70.838304
  20
263.45394
  0
VERTEX
  5
244
  8
Layer_2
  10
71.485758
  20
263.52799
  0
VERTEX
  5
245
  8
Layer_2
  10
71.638824
  20
259.48882
  0
VERTEX
  5
246
  8
Layer_2
  10
71.291865
  20
259.41808
  0
VERTEX
  5
247
  8
Layer_2
  10
70.950945
  20
259.33568
  0
VERTEX
  5
248
  8
Layer_2
  10
70.622099
  20
259.22995
  0
VERTEX
  5
249
  8
Layer_2
  10
70.311366
  20
259.08921
  0
VERTEX
  5
24a
  8
Layer_2
  10
70.073142
  20
258.94192
  0
VERTEX
  5
24b
  8
Layer_2
  10
69.847087
  20
258.77111
  0
VERTEX
  5
24c
  8
Layer_2
  10
69.629145
  20
258.58462
  0
VERTEX
  5
24d
  8
Layer_2
  10
69.415263
  20
258.39028
  0
VERTEX
  5
24e
  8
Layer_2
  10
69.267798
  20
258.13022
  0
VERTEX
  5
24f
  8
Layer_2
  10
69.128033
  20
257.8679
  0
VERTEX
  5
250
  8
Layer_2
  10
69.003664
  20
257.60108
  0
VERTEX
  5
251
  8
Layer_2
  10
68.902385
  20
257.32752
  0
VERTEX
  5
252
  8
Layer_2
  10
68.814308
  20
256.96749
  0
VERTEX
  5
253
  8
Layer_2
  10
68.763625
  20
256.59653
  0
VERTEX
  5
254
  8
Layer_2
  10
68.737873
  20
256.2183
  0
VERTEX
  5
255
  8
Layer_2
  10
68.724589
  20
255.83642
  0
VERTEX
  5
256
  8
Layer_2
  10
68.736849
  20
255.43561
  0
VERTEX
  5
257
  8
Layer_2
  10
68.76134
  20
255.03813
  0
VERTEX
  5
258
  8
Layer_2
  10
68.810287
  20
254.6473
  0
VERTEX
  5
259
  8
Layer_2
  10
68.895915
  20
254.26646
  0
VERTEX
  5
25a
  8
Layer_2
  10
69.000483
  20
253.96098
  0
VERTEX
  5
25b
  8
Layer_2
  10
69.130092
  20
253.66231
  0
VERTEX
  5
25c
  8
Layer_2
  10
69.276399
  20
253.36818
  0
VERTEX
  5
25d
  8
Layer_2
  10
69.431057
  20
253.07632
  0
VERTEX
  5
25e
  8
Layer_2
  10
69.55612
  20
252.93655
  0
VERTEX
  5
25f
  8
Layer_2
  10
69.685098
  20
252.80428
  0
VERTEX
  5
260
  8
Layer_2
  10
69.821902
  20
252.68699
  0
VERTEX
  5
261
  8
Layer_2
  10
69.97044
  20
252.59217
  0
VERTEX
  5
262
  8
Layer_2
  10
70.131581
  20
252.52536
  0
VERTEX
  5
263
  8
Layer_2
  10
70.304216
  20
252.48057
  0
VERTEX
  5
264
  8
Layer_2
  10
70.484516
  20
252.45045
  0
VERTEX
  5
265
  8
Layer_2
  10
70.668651
  20
252.42767
  0
VERTEX
  5
266
  8
Layer_2
  10
71.010236
  20
252.47563
  0
VERTEX
  5
267
  8
Layer_2
  10
71.3278
  20
252.57377
  0
VERTEX
  5
268
  8
Layer_2
  10
71.479253
  20
252.66084
  0
VERTEX
  5
269
  8
Layer_2
  10
71.620594
  20
252.76903
  0
VERTEX
  5
26a
  8
Layer_2
  10
71.755194
  20
252.8913
  0
VERTEX
  5
26b
  8
Layer_2
  10
71.886425
  20
253.02062
  0
VERTEX
  5
26c
  8
Layer_2
  10
72.235389
  20
253.66653
  0
VERTEX
  5
26d
  8
Layer_2
  10
72.549129
  20
254.32635
  0
VERTEX
  5
26e
  8
Layer_2
  10
72.768055
  20
254.90789
  0
VERTEX
  5
26f
  8
Layer_2
  10
72.948594
  20
255.5046
  0
VERTEX
  5
270
  8
Layer_2
  10
73.103541
  20
256.11142
  0
VERTEX
  5
271
  8
Layer_2
  10
73.245692
  20
256.72329
  0
VERTEX
  5
272
  8
Layer_2
  10
73.406478
  20
257.36993
  0
VERTEX
  5
273
  8
Layer_2
  10
73.575261
  20
258.01379
  0
VERTEX
  5
274
  8
Layer_2
  10
73.760034
  20
258.65211
  0
VERTEX
  5
275
  8
Layer_2
  10
73.968791
  20
259.2821
  42
-0.018552014
  0
VERTEX
  5
276
  8
Layer_2
  10
74.711166
  20
261.07336
  0
VERTEX
  5
277
  8
Layer_2
  10
74.915066
  20
261.40345
  0
VERTEX
  5
278
  8
Layer_2
  10
75.126156
  20
261.72683
  0
VERTEX
  5
279
  8
Layer_2
  10
75.351623
  20
262.03678
  0
VERTEX
  5
27a
  8
Layer_2
  10
75.598658
  20
262.32658
  0
VERTEX
  5
27b
  8
Layer_2
  10
75.864439
  20
262.585
  0
VERTEX
  5
27c
  8
Layer_2
  10
76.150656
  20
262.82434
  0
VERTEX
  5
27d
  8
Layer_2
  10
76.450497
  20
263.05095
  0
VERTEX
  5
27e
  8
Layer_2
  10
76.757151
  20
263.27119
  0
VERTEX
  5
27f
  8
Layer_2
  10
77.112413
  20
263.44193
  0
VERTEX
  5
280
  8
Layer_2
  10
77.470028
  20
263.60336
  0
VERTEX
  5
281
  8
Layer_2
  10
77.832349
  20
263.74618
  0
VERTEX
  5
282
  8
Layer_2
  10
78.20173
  20
263.86108
  0
VERTEX
  5
283
  8
Layer_2
  10
78.627721
  20
263.94959
  0
VERTEX
  5
284
  8
Layer_2
  10
79.062656
  20
264.00274
  0
VERTEX
  5
285
  8
Layer_2
  10
79.503557
  20
264.03232
  0
VERTEX
  5
286
  8
Layer_2
  10
79.947443
  20
264.05012
  0
VERTEX
  5
287
  8
Layer_2
  10
80.371296
  20
264.01485
  0
VERTEX
  5
288
  8
Layer_2
  10
80.791902
  20
263.96882
  0
VERTEX
  5
289
  8
Layer_2
  10
81.206008
  20
263.90125
  0
VERTEX
  5
28a
  8
Layer_2
  10
81.610361
  20
263.80137
  0
VERTEX
  5
28b
  8
Layer_2
  10
82.009891
  20
263.65906
  0
VERTEX
  5
28c
  8
Layer_2
  10
82.399306
  20
263.48325
  0
VERTEX
  5
28d
  8
Layer_2
  10
82.781977
  20
263.2851
  0
VERTEX
  5
28e
  8
Layer_2
  10
83.161272
  20
263.07578
  0
VERTEX
  5
28f
  8
Layer_2
  10
83.510599
  20
262.80536
  0
VERTEX
  5
290
  8
Layer_2
  10
83.850298
  20
262.52704
  0
VERTEX
  5
291
  8
Layer_2
  10
84.170742
  20
262.23294
  0
VERTEX
  5
292
  8
Layer_2
  10
84.462305
  20
261.91516
  0
VERTEX
  5
293
  8
Layer_2
  10
84.726627
  20
261.55619
  0
VERTEX
  5
294
  8
Layer_2
  10
84.960084
  20
261.17192
  0
VERTEX
  5
295
  8
Layer_2
  10
85.172963
  20
260.77078
  0
VERTEX
  5
296
  8
Layer_2
  10
85.375552
  20
260.3612
  0
VERTEX
  5
297
  8
Layer_2
  10
85.530599
  20
259.8737
  0
VERTEX
  5
298
  8
Layer_2
  10
85.677187
  20
259.38475
  0
VERTEX
  5
299
  8
Layer_2
  10
85.806862
  20
258.89294
  0
VERTEX
  5
29a
  8
Layer_2
  10
85.911166
  20
258.39683
  0
VERTEX
  5
29b
  8
Layer_2
  10
85.994236
  20
257.80581
  0
VERTEX
  5
29c
  8
Layer_2
  10
86.042123
  20
257.20883
  0
VERTEX
  5
29d
  8
Layer_2
  10
86.066552
  20
256.60786
  0
VERTEX
  5
29e
  8
Layer_2
  10
86.079249
  20
256.00491
  0
VERTEX
  5
29f
  8
Layer_2
  10
86.038164
  20
255.14344
  0
VERTEX
  5
2a0
  8
Layer_2
  10
85.967667
  20
254.29156
  0
VERTEX
  5
2a1
  8
Layer_2
  10
85.838354
  20
253.45886
  0
VERTEX
  5
2a2
  8
Layer_2
  10
85.620823
  20
252.65495
  0
VERTEX
  5
2a3
  8
Layer_2
  10
85.359019
  20
252.01572
  0
VERTEX
  5
2a4
  8
Layer_2
  10
85.036696
  20
251.39624
  0
VERTEX
  5
2a5
  8
Layer_2
  10
84.674026
  20
250.78992
  0
VERTEX
  5
2a6
  8
Layer_2
  10
84.29118
  20
250.19018
  0
VERTEX
  5
2a7
  8
Layer_2
  10
83.774607
  20
249.73722
  0
VERTEX
  5
2a8
  8
Layer_2
  10
83.248307
  20
249.3044
  0
VERTEX
  5
2a9
  8
Layer_2
  10
82.702557
  20
248.91184
  0
VERTEX
  5
2aa
  8
Layer_2
  10
82.127636
  20
248.57969
  0
VERTEX
  5
2ab
  8
Layer_2
  10
81.431503
  20
248.29203
  0
VERTEX
  5
2ac
  8
Layer_2
  10
80.697747
  20
248.08226
  0
VERTEX
  5
2ad
  8
Layer_2
  10
79.938911
  20
247.92443
  0
VERTEX
  5
2ae
  8
Layer_2
  10
79.167538
  20
247.79257
  0
VERTEX
  5
2af
  8
Layer_2
  10
78.809174
  20
251.72386
  0
SEQEND
  0
POLYLINE
  5
2b1
  8
Layer_2
  62
1
  70
1
  66
1
  10
0
  20
0
  30
0
  0
VERTEX
  5
2b1
  8
Layer_2
  10
77.831818
  20
356.90216
  0
VERTEX
  5
2b2
  8
Layer_2
  10
86.330978
  20
356.85104
  0
VERTEX
  5
2b3
  8
Layer_2
  10
86.306694
  20
352.81293
  0
VERTEX
  5
2b4
  8
Layer_2
  10
66.307068
  20
352.9332
  0
VERTEX
  5
2b5
  8
Layer_2
  10
66.389511
  20
366.64374
  0
VERTEX
  5
2b6
  8
Layer_2
  10
69.772812
  20
366.62338
  0
VERTEX
  5
2b7
  8
Layer_2
  10
69.714645
  20
356.95099
  0
VERTEX
  5
2b8
  8
Layer_2
  10
74.448532
  20
356.92252
  0
VERTEX
  5
2b9
  8
Layer_2
  10
74.498734
  20
365.27161
  0
VERTEX
  5
2ba
  8
Layer_2
  10
77.882034
  20
365.25125
  0
SEQEND
  0
POLYLINE
  5
2bc
  8
Layer_2
  62
1
  70
1
  66
1
  10
0
  20
0
  30
0
  0
VERTEX
  5
2bc
  8
Layer_2
  10
76.191255
  20
313.22776
  0
VERTEX
  5
2bd
  8
Layer_2
  10
75.482091
  20
313.25314
  0
VERTEX
  5
2be
  8
Layer_2
  10
74.775699
  20
313.29292
  0
VERTEX
  5
2bf
  8
Layer_2
  10
74.074848
  20
313.36146
  0
VERTEX
  5
2c0
  8
Layer_2
  10
73.38231
  20
313.47315
  0
VERTEX
  5
2c1
  8
Layer_2
  10
72.796411
  20
313.61098
  0
VERTEX
  5
2c2
  8
Layer_2
  10
72.216624
  20
313.78055
  0
VERTEX
  5
2c3
  8
Layer_2
  10
71.640915
  20
313.97129
  0
VERTEX
  5
2c4
  8
Layer_2
  10
71.067247
  20
314.17262
  0
VERTEX
  5
2c5
  8
Layer_2
  10
70.329389
  20
314.55771
  0
VERTEX
  5
2c6
  8
Layer_2
  10
69.62259
  20
314.98795
  0
VERTEX
  5
2c7
  8
Layer_2
  10
68.963744
  20
315.49677
  0
VERTEX
  5
2c8
  8
Layer_2
  10
68.336335
  20
316.05131
  0
VERTEX
  5
2c9
  8
Layer_2
  10
68.057429
  20
316.35074
  0
VERTEX
  5
2ca
  8
Layer_2
  10
67.7851
  20
316.65467
  0
VERTEX
  5
2cb
  8
Layer_2
  10
67.525926
  20
316.96758
  0
VERTEX
  5
2cc
  8
Layer_2
  10
67.286484
  20
317.29398
  0
VERTEX
  5
2cd
  8
Layer_2
  10
67.082006
  20
317.61821
  0
VERTEX
  5
2ce
  8
Layer_2
  10
66.895211
  20
317.95454
  0
VERTEX
  5
2cf
  8
Layer_2
  10
66.720203
  20
318.29893
  0
VERTEX
  5
2d0
  8
Layer_2
  10
66.551087
  20
318.64735
  0
VERTEX
  5
2d1
  8
Layer_2
  10
66.382648
  20
319.14709
  0
VERTEX
  5
2d2
  8
Layer_2
  10
66.223452
  20
319.64851
  0
VERTEX
  5
2d3
  8
Layer_2
  10
66.082741
  20
320.1533
  0
VERTEX
  5
2d4
  8
Layer_2
  10
65.969757
  20
320.66315
  0
VERTEX
  5
2d5
  8
Layer_2
  10
65.884626
  20
321.231
  0
VERTEX
  5
2d6
  8
Layer_2
  10
65.833038
  20
321.80496
  0
VERTEX
  5
2d7
  8
Layer_2
  10
65.803812
  20
322.383
  0
VERTEX
  5
2d8
  8
Layer_2
  10
65.785766
  20
322.96308
  0
VERTEX
  5
2d9
  8
Layer_2
  10
65.868852
  20
323.99481
  0
VERTEX
  5
2da
  8
Layer_2
  10
65.989648
  20
325.01128
  0
VERTEX
  5
2db
  8
Layer_2
  10
66.075971
  20
325.50902
  0
VERTEX
  5
2dc
  8
Layer_2
  10
66.185863
  20
325.99722
  0
VERTEX
  5
2dd
  8
Layer_2
  10
66.324038
  20
326.47398
  0
VERTEX
  5
2de
  8
Layer_2
  10
66.495208
  20
326.93739
  0
VERTEX
  5
2df
  8
Layer_2
  10
66.684714
  20
327.35102
  0
VERTEX
  5
2e0
  8
Layer_2
  10
66.902178
  20
327.75333
  0
VERTEX
  5
2e1
  8
Layer_2
  10
67.143606
  20
328.14595
  0
VERTEX
  5
2e2
  8
Layer_2
  10
67.405003
  20
328.53048
  0
VERTEX
  5
2e3
  8
Layer_2
  10
67.971729
  20
329.28176
  0
VERTEX
  5
2e4
  8
Layer_2
  10
68.570403
  20
330.02012
  0
VERTEX
  5
2e5
  8
Layer_2
  10
69.365254
  20
330.58994
  0
VERTEX
  5
2e6
  8
Layer_2
  10
70.171116
  20
331.12886
  0
VERTEX
  5
2e7
  8
Layer_2
  10
70.999005
  20
331.60601
  0
VERTEX
  5
2e8
  8
Layer_2
  10
71.859938
  20
331.99049
  0
VERTEX
  5
2e9
  8
Layer_2
  10
72.372289
  20
332.15906
  0
VERTEX
  5
2ea
  8
Layer_2
  10
72.897323
  20
332.29206
  0
VERTEX
  5
2eb
  8
Layer_2
  10
73.43323
  20
332.39458
  0
VERTEX
  5
2ec
  8
Layer_2
  10
73.978195
  20
332.47169
  0
VERTEX
  5
2ed
  8
Layer_2
  10
75.088058
  20
332.57002
  0
VERTEX
  5
2ee
  8
Layer_2
  10
76.212416
  20
332.62769
  0
VERTEX
  5
2ef
  8
Layer_2
  10
77.327399
  20
332.55668
  0
VERTEX
  5
2f0
  8
Layer_2
  10
78.427603
  20
332.44565
  0
VERTEX
  5
2f1
  8
Layer_2
  10
78.967543
  20
332.36262
  0
VERTEX
  5
2f2
  8
Layer_2
  10
79.498246
  20
332.25459
  0
VERTEX
  5
2f3
  8
Layer_2
  10
80.017864
  20
332.11655
  0
VERTEX
  5
2f4
  8
Layer_2
  10
80.52455
  20
331.94349
  0
VERTEX
  5
2f5
  8
Layer_2
  10
81.376596
  20
331.55175
  0
VERTEX
  5
2f6
  8
Layer_2
  10
82.194819
  20
331.06844
  0
VERTEX
  5
2f7
  8
Layer_2
  10
82.990491
  20
330.52407
  0
VERTEX
  5
2f8
  8
Layer_2
  10
83.774886
  20
329.94917
  0
VERTEX
  5
2f9
  8
Layer_2
  10
84.363187
  20
329.20836
  0
VERTEX
  5
2fa
  8
Layer_2
  10
84.919463
  20
328.45502
  0
VERTEX
  5
2fb
  8
Layer_2
  10
85.175585
  20
328.06972
  0
VERTEX
  5
2fc
  8
Layer_2
  10
85.411692
  20
327.67658
  0
VERTEX
  5
2fd
  8
Layer_2
  10
85.623782
  20
327.27402
  0
VERTEX
  5
2fe
  8
Layer_2
  10
85.807853
  20
326.86048
  0
VERTEX
  5
2ff
  8
Layer_2
  10
85.973216
  20
326.39706
  0
VERTEX
  5
300
  8
Layer_2
  10
86.105434
  20
325.92065
  0
VERTEX
  5
301
  8
Layer_2
  10
86.209241
  20
325.4331
  0
VERTEX
  5
302
  8
Layer_2
  10
86.289373
  20
324.93627
  0
VERTEX
  5
303
  8
Layer_2
  10
86.397549
  20
323.9222
  0
VERTEX
  5
304
  8
Layer_2
  10
86.467842
  20
322.89329
  0
VERTEX
  5
305
  8
Layer_2
  10
86.387009
  20
321.85502
  0
VERTEX
  5
306
  8
Layer_2
  10
86.268059
  20
320.83206
  0
VERTEX
  5
307
  8
Layer_2
  10
86.18238
  20
320.33111
  0
VERTEX
  5
308
  8
Layer_2
  10
86.072879
  20
319.83973
  0
VERTEX
  5
309
  8
Layer_2
  10
85.934794
  20
319.35984
  0
VERTEX
  5
30a
  8
Layer_2
  10
85.763359
  20
318.89335
  0
VERTEX
  5
30b
  8
Layer_2
  10
85.575201
  20
318.48078
  0
VERTEX
  5
30c
  8
Layer_2
  10
85.359314
  20
318.07936
  0
VERTEX
  5
30d
  8
Layer_2
  10
85.119662
  20
317.68748
  0
VERTEX
  5
30e
  8
Layer_2
  10
84.860203
  20
317.30356
  0
VERTEX
  5
30f
  8
Layer_2
  10
84.297715
  20
316.55324
  0
VERTEX
  5
310
  8
Layer_2
  10
83.703538
  20
315.81565
  0
VERTEX
  5
311
  8
Layer_2
  10
82.919376
  20
315.25012
  0
VERTEX
  5
312
  8
Layer_2
  10
82.124195
  20
314.71528
  0
VERTEX
  5
313
  8
Layer_2
  10
81.306983
  20
314.2418
  0
VERTEX
  5
314
  8
Layer_2
  10
80.456727
  20
313.86036
  0
VERTEX
  5
315
  8
Layer_2
  10
79.954732
  20
313.69441
  0
VERTEX
  5
316
  8
Layer_2
  10
79.440262
  20
313.56321
  0
VERTEX
  5
317
  8
Layer_2
  10
78.915098
  20
313.46179
  0
VERTEX
  5
318
  8
Layer_2
  10
78.381023
  20
313.38519
  0
VERTEX
  5
319
  8
Layer_2
  10
77.293268
  20
313.28662
  0
SEQEND
  0
POLYLINE
  5
31b
  8
Layer_2
  62
1
  70
1
  66
1
  10
0
  20
0
  30
0
  0
VERTEX
  5
31b
  8
Layer_2
  10
181.89606
  20
236.34541
  0
VERTEX
  5
31c
  8
Layer_2
  10
185.2657
  20
236.32352
  0
VERTEX
  5
31d
  8
Layer_2
  10
185.17419
  20
222.24467
  0
VERTEX
  5
31e
  8
Layer_2
  10
165.33832
  20
222.37363
  0
VERTEX
  5
31f
  8
Layer_2
  10
165.36456
  20
226.41173
  0
VERTEX
  5
320
  8
Layer_2
  10
181.8308
  20
226.3047
  0
SEQEND
  0
POLYLINE
  5
322
  8
Layer_2
  62
1
  70
1
  66
1
  10
0
  20
0
  30
0
  0
VERTEX
  5
322
  8
Layer_2
  10
178.5451
  20
262.32954
  0
VERTEX
  5
323
  8
Layer_2
  10
178.99273
  20
262.42581
  0
VERTEX
  5
324
  8
Layer_2
  10
179.43321
  20
262.53617
  0
VERTEX
  5
325
  8
Layer_2
  10
179.85938
  20
262.67472
  0
VERTEX
  5
326
  8
Layer_2
  10
180.26411
  20
262.85556
  0
VERTEX
  5
327
  8
Layer_2
  10
180.58042
  20
263.0451
  0
VERTEX
  5
328
  8
Layer_2
  10
180.88193
  20
263.26382
  0
VERTEX
  5
329
  8
Layer_2
  10
181.17356
  20
263.502
  0
VERTEX
  5
32a
  8
Layer_2
  10
181.46026
  20
263.74992
  0
VERTEX
  5
32b
  8
Layer_2
  10
181.66315
  20
264.05816
  0
VERTEX
  5
32c
  8
Layer_2
  10
181.85528
  20
264.37003
  0
VERTEX
  5
32d
  8
Layer_2
  10
182.02591
  20
264.68918
  0
VERTEX
  5
32e
  8
Layer_2
  10
182.1643
  20
265.01924
  0
VERTEX
  5
32f
  8
Layer_2
  10
182.27469
  20
265.41514
  0
VERTEX
  5
330
  8
Layer_2
  10
182.34246
  20
265.82547
  0
VERTEX
  5
331
  8
Layer_2
  10
182.38181
  20
266.24541
  0
VERTEX
  5
332
  8
Layer_2
  10
182.40696
  20
266.67015
  0
VERTEX
  5
333
  8
Layer_2
  10
182.39525
  20
267.10903
  0
VERTEX
  5
334
  8
Layer_2
  10
182.3687
  20
267.54353
  0
VERTEX
  5
335
  8
Layer_2
  10
182.31248
  20
267.96928
  0
VERTEX
  5
336
  8
Layer_2
  10
182.21174
  20
268.38189
  0
VERTEX
  5
337
  8
Layer_2
  10
182.09214
  20
268.70005
  0
VERTEX
  5
338
  8
Layer_2
  10
181.94412
  20
269.00984
  0
VERTEX
  5
339
  8
Layer_2
  10
181.77715
  20
269.31403
  0
VERTEX
  5
33a
  8
Layer_2
  10
181.60071
  20
269.61543
  0
VERTEX
  5
33b
  8
Layer_2
  10
181.3927
  20
269.8311
  0
VERTEX
  5
33c
  8
Layer_2
  10
181.17885
  20
270.03526
  0
VERTEX
  5
33d
  8
Layer_2
  10
180.95331
  20
270.21641
  0
VERTEX
  5
33e
  8
Layer_2
  10
180.71026
  20
270.36305
  0
VERTEX
  5
33f
  8
Layer_2
  10
180.46901
  20
270.46028
  0
VERTEX
  5
340
  8
Layer_2
  10
180.21308
  20
270.5286
  0
VERTEX
  5
341
  8
Layer_2
  10
179.94737
  20
270.57764
  0
VERTEX
  5
342
  8
Layer_2
  10
179.67676
  20
270.61705
  0
VERTEX
  5
343
  8
Layer_2
  10
179.34078
  20
270.5887
  0
VERTEX
  5
344
  8
Layer_2
  10
179.01955
  20
270.51728
  0
VERTEX
  5
345
  8
Layer_2
  10
178.73645
  20
270.38257
  0
VERTEX
  5
346
  8
Layer_2
  10
178.46671
  20
270.2088
  42
0.041405513
  0
VERTEX
  5
347
  8
Layer_2
  10
177.99745
  20
269.64056
  0
VERTEX
  5
348
  8
Layer_2
  10
177.77184
  20
269.21513
  0
VERTEX
  5
349
  8
Layer_2
  10
177.59099
  20
268.76153
  42
0.0045729147
  0
VERTEX
  5
34a
  8
Layer_2
  10
177.24237
  20
267.60074
  42
0.0080656632
  0
VERTEX
  5
34b
  8
Layer_2
  10
176.69687
  20
265.53398
  0
VERTEX
  5
34c
  8
Layer_2
  10
176.50901
  20
264.82582
  0
VERTEX
  5
34d
  8
Layer_2
  10
176.30481
  20
264.12525
  0
VERTEX
  5
34e
  8
Layer_2
  10
176.0679
  20
263.43986
  0
VERTEX
  5
34f
  8
Layer_2
  10
175.78193
  20
262.77725
  0
VERTEX
  5
350
  8
Layer_2
  10
175.53849
  20
262.3167
  0
VERTEX
  5
351
  8
Layer_2
  10
175.26954
  20
261.86799
  0
VERTEX
  5
352
  8
Layer_2
  10
174.98358
  20
261.42718
  0
VERTEX
  5
353
  8
Layer_2
  10
174.68912
  20
260.99032
  0
VERTEX
  5
354
  8
Layer_2
  10
174.25317
  20
260.59388
  0
VERTEX
  5
355
  8
Layer_2
  10
173.80755
  20
260.21907
  0
VERTEX
  5
356
  8
Layer_2
  10
173.3426
  20
259.88755
  0
VERTEX
  5
357
  8
Layer_2
  10
172.84866
  20
259.62095
  0
VERTEX
  5
358
  8
Layer_2
  10
172.33194
  20
259.43714
  0
VERTEX
  5
359
  8
Layer_2
  10
171.78756
  20
259.31527
  0
VERTEX
  5
35a
  8
Layer_2
  10
171.22473
  20
259.2347
  0
VERTEX
  5
35b
  8
Layer_2
  10
170.65267
  20
259.17478
  0
VERTEX
  5
35c
  8
Layer_2
  10
170.2759
  20
259.20701
  0
VERTEX
  5
35d
  8
Layer_2
  10
169.90213
  20
259.24896
  0
VERTEX
  5
35e
  8
Layer_2
  10
169.53436
  20
259.31037
  0
VERTEX
  5
35f
  8
Layer_2
  10
169.1756
  20
259.40096
  0
VERTEX
  5
360
  8
Layer_2
  10
168.82082
  20
259.53018
  0
VERTEX
  5
361
  8
Layer_2
  10
168.47542
  20
259.68978
  0
VERTEX
  5
362
  8
Layer_2
  10
168.13627
  20
259.86964
  0
VERTEX
  5
363
  8
Layer_2
  10
167.80025
  20
260.05964
  0
VERTEX
  5
364
  8
Layer_2
  10
167.48816
  20
260.30895
  0
VERTEX
  5
365
  8
Layer_2
  10
167.18444
  20
260.56502
  0
VERTEX
  5
366
  8
Layer_2
  10
166.89746
  20
260.83462
  0
VERTEX
  5
367
  8
Layer_2
  10
166.63559
  20
261.12452
  0
VERTEX
  5
368
  8
Layer_2
  10
166.39138
  20
261.4591
  0
VERTEX
  5
369
  8
Layer_2
  10
166.17543
  20
261.8165
  0
VERTEX
  5
36a
  8
Layer_2
  10
165.97831
  20
262.18911
  0
VERTEX
  5
36b
  8
Layer_2
  10
165.7906
  20
262.56934
  0
VERTEX
  5
36c
  8
Layer_2
  10
165.64283
  20
263.01637
  0
VERTEX
  5
36d
  8
Layer_2
  10
165.50316
  20
263.46484
  0
VERTEX
  5
36e
  8
Layer_2
  10
165.37968
  20
263.91617
  0
VERTEX
  5
36f
  8
Layer_2
  10
165.28047
  20
264.3718
  0
VERTEX
  5
370
  8
Layer_2
  10
165.20336
  20
264.8997
  0
VERTEX
  5
371
  8
Layer_2
  10
165.15805
  20
265.43322
  0
VERTEX
  5
372
  8
Layer_2
  10
165.13393
  20
265.97051
  0
VERTEX
  5
373
  8
Layer_2
  10
165.12042
  20
266.50967
  0
VERTEX
  5
374
  8
Layer_2
  10
165.15583
  20
267.35731
  0
VERTEX
  5
375
  8
Layer_2
  10
165.22049
  20
268.1956
  0
VERTEX
  5
376
  8
Layer_2
  10
165.34365
  20
269.01518
  0
VERTEX
  5
377
  8
Layer_2
  10
165.55455
  20
269.80671
  0
VERTEX
  5
378
  8
Layer_2
  10
165.80178
  20
270.418
  0
VERTEX
  5
379
  8
Layer_2
  10
166.1057
  20
271.01116
  0
VERTEX
  5
37a
  8
Layer_2
  10
166.44739
  20
271.59225
  0
VERTEX
  5
37b
  8
Layer_2
  10
166.80798
  20
272.16729
  0
VERTEX
  5
37c
  8
Layer_2
  10
167.26796
  20
272.58028
  0
VERTEX
  5
37d
  8
Layer_2
  10
167.73759
  20
272.97194
  0
VERTEX
  5
37e
  8
Layer_2
  10
168.22651
  20
273.32095
  0
VERTEX
  5
37f
  8
Layer_2
  10
168.74439
  20
273.60597
  0
VERTEX
  5
380
  8
Layer_2
  10
169.32773
  20
273.8215
  0
VERTEX
  5
381
  8
Layer_2
  10
169.94314
  20
273.96613
  0
VERTEX
  5
382
  8
Layer_2
  10
170.57994
  20
274.06351
  0
VERTEX
  5
383
  8
Layer_2
  10
171.22743
  20
274.13725
  0
VERTEX
  5
384
  8
Layer_2
  10
171.37852
  20
270.09799
  0
VERTEX
  5
385
  8
Layer_2
  10
171.03154
  20
270.02742
  0
VERTEX
  5
386
  8
Layer_2
  10
170.69058
  20
269.94519
  0
VERTEX
  5
387
  8
Layer_2
  10
170.36168
  20
269.83962
  0
VERTEX
  5
388
  8
Layer_2
  10
170.05088
  20
269.69903
  0
VERTEX
  5
389
  8
Layer_2
  10
169.81258
  20
269.55186
  0
VERTEX
  5
38a
  8
Layer_2
  10
169.58645
  20
269.38116
  0
VERTEX
  5
38b
  8
Layer_2
  10
169.36841
  20
269.19477
  0
VERTEX
  5
38c
  8
Layer_2
  10
169.15444
  20
269.00054
  0
VERTEX
  5
38d
  8
Layer_2
  10
169.00685
  20
268.74055
  0
VERTEX
  5
38e
  8
Layer_2
  10
168.86695
  20
268.4783
  0
VERTEX
  5
38f
  8
Layer_2
  10
168.74245
  20
268.21155
  0
VERTEX
  5
390
  8
Layer_2
  10
168.64104
  20
267.93804
  0
VERTEX
  5
391
  8
Layer_2
  10
168.55279
  20
267.57804
  0
VERTEX
  5
392
  8
Layer_2
  10
168.50192
  20
267.20711
  0
VERTEX
  5
393
  8
Layer_2
  10
168.47599
  20
266.82888
  0
VERTEX
  5
394
  8
Layer_2
  10
168.46251
  20
266.44701
  0
VERTEX
  5
395
  8
Layer_2
  10
168.47459
  20
266.0462
  0
VERTEX
  5
396
  8
Layer_2
  10
168.49889
  20
265.64871
  0
VERTEX
  5
397
  8
Layer_2
  10
168.54764
  20
265.25786
  0
VERTEX
  5
398
  8
Layer_2
  10
168.63308
  20
264.87698
  0
VERTEX
  5
399
  8
Layer_2
  10
168.7375
  20
264.57144
  0
VERTEX
  5
39a
  8
Layer_2
  10
168.86697
  20
264.27271
  0
VERTEX
  5
39b
  8
Layer_2
  10
169.01313
  20
263.9785
  0
VERTEX
  5
39c
  8
Layer_2
  10
169.16764
  20
263.68656
  0
VERTEX
  5
39d
  8
Layer_2
  10
169.29264
  20
263.54674
  0
VERTEX
  5
39e
  8
Layer_2
  10
169.42155
  20
263.4144
  0
VERTEX
  5
39f
  8
Layer_2
  10
169.5583
  20
263.29705
  0
VERTEX
  5
3a0
  8
Layer_2
  10
169.7068
  20
263.20216
  0
VERTEX
  5
3a1
  8
Layer_2
  10
169.8679
  20
263.13528
  0
VERTEX
  5
3a2
  8
Layer_2
  10
170.04051
  20
263.0904
  0
VERTEX
  5
3a3
  8
Layer_2
  10
170.2208
  20
263.06019
  0
VERTEX
  5
3a4
  8
Layer_2
  10
170.40492
  20
263.03732
  0
VERTEX
  5
3a5
  8
Layer_2
  10
170.74653
  20
263.08511
  0
VERTEX
  5
3a6
  8
Layer_2
  10
171.06414
  20
263.1831
  0
VERTEX
  5
3a7
  8
Layer_2
  10
171.21564
  20
263.27008
  0
VERTEX
  5
3a8
  8
Layer_2
  10
171.35703
  20
263.37821
  0
VERTEX
  5
3a9
  8
Layer_2
  10
171.49169
  20
263.50042
  0
VERTEX
  5
3aa
  8
Layer_2
  10
171.62299
  20
263.62968
  0
VERTEX
  5
3ab
  8
Layer_2
  10
171.97227
  20
264.27541
  0
VERTEX
  5
3ac
  8
Layer_2
  10
172.28633
  20
264.93508
  0
VERTEX
  5
3ad
  8
Layer_2
  10
172.50554
  20
265.51652
  0
VERTEX
  5
3ae
  8
Layer_2
  10
172.68637
  20
266.11314
  0
VERTEX
  5
3af
  8
Layer_2
  10
172.8416
  20
266.71989
  0
VERTEX
  5
3b0
  8
Layer_2
  10
172.98405
  20
267.33169
  0
VERTEX
  5
3b1
  8
Layer_2
  10
173.14515
  20
267.97825
  0
VERTEX
  5
3b2
  8
Layer_2
  10
173.31425
  20
268.62203
  0
VERTEX
  5
3b3
  8
Layer_2
  10
173.49934
  20
269.26025
  0
VERTEX
  5
3b4
  8
Layer_2
  10
173.7084
  20
269.89013
  42
-0.018554002
  0
VERTEX
  5
3b5
  8
Layer_2
  10
174.45164
  20
271.68105
  0
VERTEX
  5
3b6
  8
Layer_2
  10
174.6557
  20
272.01104
  0
VERTEX
  5
3b7
  8
Layer_2
  10
174.86695
  20
272.33432
  0
VERTEX
  5
3b8
  8
Layer_2
  10
175.09257
  20
272.64415
  0
VERTEX
  5
3b9
  8
Layer_2
  10
175.33975
  20
272.93382
  0
VERTEX
  5
3ba
  8
Layer_2
  10
175.60566
  20
273.19212
  0
VERTEX
  5
3bb
  8
Layer_2
  10
175.89199
  20
273.43132
  0
VERTEX
  5
3bc
  8
Layer_2
  10
176.19194
  20
273.65778
  0
VERTEX
  5
3bd
  8
Layer_2
  10
176.49871
  20
273.87788
  0
VERTEX
  5
3be
  8
Layer_2
  10
176.85405
  20
274.04844
  0
VERTEX
  5
3bf
  8
Layer_2
  10
177.21174
  20
274.20969
  0
VERTEX
  5
3c0
  8
Layer_2
  10
177.57412
  20
274.35234
  0
VERTEX
  5
3c1
  8
Layer_2
  10
177.94356
  20
274.46707
  0
VERTEX
  5
3c2
  8
Layer_2
  10
178.3696
  20
274.55536
  0
VERTEX
  5
3c3
  8
Layer_2
  10
178.80456
  20
274.6083
  0
VERTEX
  5
3c4
  8
Layer_2
  10
179.24548
  20
274.63766
  0
VERTEX
  5
3c5
  8
Layer_2
  10
179.68937
  20
274.65524
  0
VERTEX
  5
3c6
  8
Layer_2
  10
180.1132
  20
274.61977
  0
VERTEX
  5
3c7
  8
Layer_2
  10
180.53379
  20
274.57354
  0
VERTEX
  5
3c8
  8
Layer_2
  10
180.94786
  20
274.50577
  0
VERTEX
  5
3c9
  8
Layer_2
  10
181.35217
  20
274.40568
  0
VERTEX
  5
3ca
  8
Layer_2
  10
181.75163
  20
274.26319
  0
VERTEX
  5
3cb
  8
Layer_2
  10
182.14095
  20
274.08719
  0
VERTEX
  5
3cc
  8
Layer_2
  10
182.52353
  20
273.88886
  0
VERTEX
  5
3cd
  8
Layer_2
  10
182.90273
  20
273.67936
  0
VERTEX
  5
3ce
  8
Layer_2
  10
183.25192
  20
273.40876
  0
VERTEX
  5
3cf
  8
Layer_2
  10
183.59148
  20
273.13027
  0
VERTEX
  5
3d0
  8
Layer_2
  10
183.91178
  20
272.83601
  0
VERTEX
  5
3d1
  8
Layer_2
  10
184.20319
  20
272.51809
  0
VERTEX
  5
3d2
  8
Layer_2
  10
184.46734
  20
272.159
  0
VERTEX
  5
3d3
  8
Layer_2
  10
184.70061
  20
271.77462
  0
VERTEX
  5
3d4
  8
Layer_2
  10
184.91329
  20
271.37337
  0
VERTEX
  5
3d5
  8
Layer_2
  10
185.11569
  20
270.9637
  0
VERTEX
  5
3d6
  8
Layer_2
  10
185.27049
  20
270.47611
  0
VERTEX
  5
3d7
  8
Layer_2
  10
185.41684
  20
269.9871
  0
VERTEX
  5
3d8
  8
Layer_2
  10
185.54628
  20
269.49522
  0
VERTEX
  5
3d9
  8
Layer_2
  10
185.65034
  20
268.99905
  0
VERTEX
  5
3da
  8
Layer_2
  10
185.73312
  20
268.408
  0
VERTEX
  5
3db
  8
Layer_2
  10
185.78072
  20
267.811
  0
VERTEX
  5
3dc
  8
Layer_2
  10
185.80486
  20
267.21002
  0
VERTEX
  5
3dd
  8
Layer_2
  10
185.81726
  20
266.60705
  0
VERTEX
  5
3de
  8
Layer_2
  10
185.77575
  20
265.7456
  0
VERTEX
  5
3df
  8
Layer_2
  10
185.70484
  20
264.89375
  0
VERTEX
  5
3e0
  8
Layer_2
  10
185.57513
  20
264.06112
  0
VERTEX
  5
3e1
  8
Layer_2
  10
185.35721
  20
263.25732
  0
VERTEX
  5
3e2
  8
Layer_2
  10
185.0951
  20
262.61822
  0
VERTEX
  5
3e3
  8
Layer_2
  10
184.77247
  20
261.9989
  0
VERTEX
  5
3e4
  8
Layer_2
  10
184.4095
  20
261.39275
  0
VERTEX
  5
3e5
  8
Layer_2
  10
184.02637
  20
260.79319
  0
VERTEX
  5
3e6
  8
Layer_2
  10
183.50957
  20
260.34049
  0
VERTEX
  5
3e7
  8
Layer_2
  10
182.98306
  20
259.90792
  0
VERTEX
  5
3e8
  8
Layer_2
  10
182.43712
  20
259.51564
  0
VERTEX
  5
3e9
  8
Layer_2
  10
181.86204
  20
259.18377
  0
VERTEX
  5
3ea
  8
Layer_2
  10
181.16576
  20
258.89644
  0
VERTEX
  5
3eb
  8
Layer_2
  10
180.4319
  20
258.68703
  0
VERTEX
  5
3ec
  8
Layer_2
  10
179.67299
  20
258.52957
  0
VERTEX
  5
3ed
  8
Layer_2
  10
178.90155
  20
258.39808
  0
VERTEX
  5
3ee
  8
Layer_2
  10
178.5451
  20
262.32954
  0
SEQEND
  0
POLYLINE
  5
3f0
  8
Layer_2
  62
1
  70
1
  66
1
  10
0
  20
0
  30
0
  0
VERTEX
  5
3f0
  8
Layer_2
  10
182.26593
  20
293.24734
  0
VERTEX
  5
3f1
  8
Layer_2
  10
185.63557
  20
293.22545
  0
VERTEX
  5
3f2
  8
Layer_2
  10
185.5367
  20
278.01431
  0
VERTEX
  5
3f3
  8
Layer_2
  10
165.53712
  20
278.14432
  0
VERTEX
  5
3f4
  8
Layer_2
  10
165.63351
  20
292.97346
  0
VERTEX
  5
3f5
  8
Layer_2
  10
169.01678
  20
292.95148
  0
VERTEX
  5
3f6
  8
Layer_2
  10
168.94666
  20
282.16043
  0
VERTEX
  5
3f7
  8
Layer_2
  10
173.3804
  20
282.13161
  0
VERTEX
  5
3f8
  8
Layer_2
  10
173.44565
  20
292.17233
  0
VERTEX
  5
3f9
  8
Layer_2
  10
176.81529
  20
292.15042
  0
VERTEX
  5
3fa
  8
Layer_2
  10
176.75003
  20
282.10971
  0
VERTEX
  5
3fb
  8
Layer_2
  10
182.1933
  20
282.07433
  0
SEQEND
  0
POLYLINE
  5
3fd
  8
Layer_2
  62
1
  70
1
  66
1
  10
0
  20
0
  30
0
  0
VERTEX
  5
3fd
  8
Layer_2
  10
175.95711
  20
323.83471
  0
VERTEX
  5
3fe
  8
Layer_2
  10
175.24796
  20
323.86044
  0
VERTEX
  5
3ff
  8
Layer_2
  10
174.54158
  20
323.90055
  0
VERTEX
  5
400
  8
Layer_2
  10
173.84077
  20
323.96944
  0
VERTEX
  5
401
  8
Layer_2
  10
173.14828
  20
324.08148
  0
VERTEX
  5
402
  8
Layer_2
  10
172.56245
  20
324.21959
  0
VERTEX
  5
403
  8
Layer_2
  10
171.98274
  20
324.38945
  0
VERTEX
  5
404
  8
Layer_2
  10
171.40713
  20
324.58047
  0
VERTEX
  5
405
  8
Layer_2
  10
170.83355
  20
324.78207
  0
VERTEX
  5
406
  8
Layer_2
  10
170.09589
  20
325.16751
  0
VERTEX
  5
407
  8
Layer_2
  10
169.3893
  20
325.59811
  0
VERTEX
  5
408
  8
Layer_2
  10
168.73071
  20
326.10724
  0
VERTEX
  5
409
  8
Layer_2
  10
168.10356
  20
326.66207
  0
VERTEX
  5
40a
  8
Layer_2
  10
167.8248
  20
326.96164
  0
VERTEX
  5
40b
  8
Layer_2
  10
167.55262
  20
327.2657
  0
VERTEX
  5
40c
  8
Layer_2
  10
167.2936
  20
327.57874
  0
VERTEX
  5
40d
  8
Layer_2
  10
167.05432
  20
327.90527
  0
VERTEX
  5
40e
  8
Layer_2
  10
166.84999
  20
328.2296
  0
VERTEX
  5
40f
  8
Layer_2
  10
166.66336
  20
328.56602
  0
VERTEX
  5
410
  8
Layer_2
  10
166.48852
  20
328.91049
  0
VERTEX
  5
411
  8
Layer_2
  10
166.31958
  20
329.259
  0
VERTEX
  5
412
  8
Layer_2
  10
166.15138
  20
329.75881
  0
VERTEX
  5
413
  8
Layer_2
  10
165.99243
  20
330.26032
  0
VERTEX
  5
414
  8
Layer_2
  10
165.85196
  20
330.76518
  0
VERTEX
  5
415
  8
Layer_2
  10
165.73923
  20
331.27508
  0
VERTEX
  5
416
  8
Layer_2
  10
165.65438
  20
331.84297
  0
VERTEX
  5
417
  8
Layer_2
  10
165.60307
  20
332.41696
  0
VERTEX
  5
418
  8
Layer_2
  10
165.57412
  20
332.99501
  0
VERTEX
  5
419
  8
Layer_2
  10
165.55635
  20
333.5751
  0
VERTEX
  5
41a
  8
Layer_2
  10
165.63994
  20
334.60679
  0
VERTEX
  5
41b
  8
Layer_2
  10
165.76123
  20
335.6232
  0
VERTEX
  5
41c
  8
Layer_2
  10
165.8478
  20
336.1209
  0
VERTEX
  5
41d
  8
Layer_2
  10
165.95793
  20
336.60905
  0
VERTEX
  5
41e
  8
Layer_2
  10
166.09634
  20
337.08574
  0
VERTEX
  5
41f
  8
Layer_2
  10
166.26774
  20
337.54907
  0
VERTEX
  5
420
  8
Layer_2
  10
166.45744
  20
337.96261
  0
VERTEX
  5
421
  8
Layer_2
  10
166.6751
  20
338.36482
  0
VERTEX
  5
422
  8
Layer_2
  10
166.91672
  20
338.75732
  0
VERTEX
  5
423
  8
Layer_2
  10
167.1783
  20
339.14172
  0
VERTEX
  5
424
  8
Layer_2
  10
167.74539
  20
339.89273
  0
VERTEX
  5
425
  8
Layer_2
  10
168.34443
  20
340.63079
  0
VERTEX
  5
426
  8
Layer_2
  10
169.13955
  20
341.20021
  0
VERTEX
  5
427
  8
Layer_2
  10
169.94568
  20
341.73874
  0
VERTEX
  5
428
  8
Layer_2
  10
170.7738
  20
342.21548
  0
VERTEX
  5
429
  8
Layer_2
  10
171.63492
  20
342.59954
  0
VERTEX
  5
42a
  8
Layer_2
  10
172.14736
  20
342.76787
  0
VERTEX
  5
42b
  8
Layer_2
  10
172.67245
  20
342.90062
  0
VERTEX
  5
42c
  8
Layer_2
  10
173.20841
  20
343.00288
  0
VERTEX
  5
42d
  8
Layer_2
  10
173.75341
  20
343.07973
  0
VERTEX
  5
42e
  8
Layer_2
  10
174.86332
  20
343.17751
  0
VERTEX
  5
42f
  8
Layer_2
  10
175.98771
  20
343.23464
  0
VERTEX
  5
430
  8
Layer_2
  10
177.10266
  20
343.16309
  0
VERTEX
  5
431
  8
Layer_2
  10
178.20281
  20
343.05152
  0
VERTEX
  5
432
  8
Layer_2
  10
178.74271
  20
342.96824
  0
VERTEX
  5
433
  8
Layer_2
  10
179.27336
  20
342.85994
  0
VERTEX
  5
434
  8
Layer_2
  10
179.79291
  20
342.72164
  0
VERTEX
  5
435
  8
Layer_2
  10
180.29951
  20
342.54834
  0
VERTEX
  5
436
  8
Layer_2
  10
181.15137
  20
342.15618
  0
VERTEX
  5
437
  8
Layer_2
  10
181.96935
  20
341.67245
  0
VERTEX
  5
438
  8
Layer_2
  10
182.76476
  20
341.1277
  0
VERTEX
  5
439
  8
Layer_2
  10
183.54888
  20
340.55242
  0
VERTEX
  5
43a
  8
Layer_2
  10
184.13681
  20
339.81135
  0
VERTEX
  5
43b
  8
Layer_2
  10
184.69272
  20
339.05773
  0
VERTEX
  5
43c
  8
Layer_2
  10
184.94866
  20
338.67231
  0
VERTEX
  5
43d
  8
Layer_2
  10
185.18457
  20
338.27905
  0
VERTEX
  5
43e
  8
Layer_2
  10
185.39647
  20
337.87639
  0
VERTEX
  5
43f
  8
Layer_2
  10
185.58034
  20
337.46276
  0
VERTEX
  5
440
  8
Layer_2
  10
185.74548
  20
336.99926
  0
VERTEX
  5
441
  8
Layer_2
  10
185.87746
  20
336.52278
  0
VERTEX
  5
442
  8
Layer_2
  10
185.98103
  20
336.03517
  0
VERTEX
  5
443
  8
Layer_2
  10
186.06092
  20
335.5383
  0
VERTEX
  5
444
  8
Layer_2
  10
186.1686
  20
334.52418
  0
VERTEX
  5
445
  8
Layer_2
  10
186.2384
  20
333.49524
  0
VERTEX
  5
446
  8
Layer_2
  10
186.15705
  20
332.457
  0
VERTEX
  5
447
  8
Layer_2
  10
186.03761
  20
331.4341
  0
VERTEX
  5
448
  8
Layer_2
  10
185.95168
  20
330.9332
  0
VERTEX
  5
449
  8
Layer_2
  10
185.84194
  20
330.44187
  0
VERTEX
  5
44a
  8
Layer_2
  10
185.70363
  20
329.96205
  0
VERTEX
  5
44b
  8
Layer_2
  10
185.53196
  20
329.49563
  0
VERTEX
  5
44c
  8
Layer_2
  10
185.34361
  20
329.08316
  0
VERTEX
  5
44d
  8
Layer_2
  10
185.12753
  20
328.68184
  0
VERTEX
  5
44e
  8
Layer_2
  10
184.88768
  20
328.29008
  0
VERTEX
  5
44f
  8
Layer_2
  10
184.62804
  20
327.90629
  0
VERTEX
  5
450
  8
Layer_2
  10
184.06519
  20
327.15624
  0
VERTEX
  5
451
  8
Layer_2
  10
183.47065
  20
326.41894
  0
VERTEX
  5
452
  8
Layer_2
  10
182.68621
  20
325.8538
  0
VERTEX
  5
453
  8
Layer_2
  10
181.89077
  20
325.31934
  0
VERTEX
  5
454
  8
Layer_2
  10
181.07333
  20
324.84626
  0
VERTEX
  5
455
  8
Layer_2
  10
180.22289
  20
324.46524
  0
VERTEX
  5
456
  8
Layer_2
  10
179.72081
  20
324.29953
  0
VERTEX
  5
457
  8
Layer_2
  10
179.20628
  20
324.16858
  0
VERTEX
  5
458
  8
Layer_2
  10
178.68106
  20
324.06742
  0
VERTEX
  5
459
  8
Layer_2
  10
178.14695
  20
323.99108
  0
VERTEX
  5
45a
  8
Layer_2
  10
177.05915
  20
323.89304
  0
SEQEND
  0
POLYLINE
  5
45c
  8
Layer_2
  62
1
  70
1
  66
1
  10
0
  20
0
  30
0
  0
VERTEX
  5
45c
  8
Layer_2
  10
128.62378
  20
250.30914
  0
VERTEX
  5
45d
  8
Layer_2
  10
128.62378
  20
255.6468
  0
VERTEX
  5
45e
  8
Layer_2
  10
153.62378
  20
265.65704
  0
VERTEX
  5
45f
  8
Layer_2
  10
153.62378
  20
260.16591
  0
VERTEX
  5
460
  8
Layer_2
  10
147.94507
  20
257.98309
  0
VERTEX
  5
461
  8
Layer_2
  10
147.94507
  20
247.98991
  0
VERTEX
  5
462
  8
Layer_2
  10
153.62378
  20
245.92648
  0
VERTEX
  5
463
  8
Layer_2
  10
153.62378
  20
240.57178
  0
SEQEND
  0
POLYLINE
  5
465
  8
Layer_2
  62
1
  70
1
  66
1
  10
0
  20
0
  30
0
  0
VERTEX
  5
465
  8
Layer_2
  10
144.68788
  20
360.58371
  42
-0.013297206
  0
VERTEX
  5
466
  8
Layer_2
  10
146.27383
  20
361.83499
  0
VERTEX
  5
467
  8
Layer_2
  10
146.87729
  20
362.26096
  0
VERTEX
  5
468
  8
Layer_2
  10
147.49337
  20
362.66942
  0
VERTEX
  5
469
  8
Layer_2
  10
148.11785
  20
363.06621
  0
VERTEX
  5
46a
  8
Layer_2
  10
148.74654
  20
363.45717
  0
VERTEX
  5
46b
  8
Layer_2
  10
153.62376
  20
366.5097
  0
VERTEX
  5
46c
  8
Layer_2
  10
153.62376
  20
360.47287
  0
VERTEX
  5
46d
  8
Layer_2
  10
148.18379
  20
356.82349
  0
VERTEX
  5
46e
  8
Layer_2
  10
146.98226
  20
356.02275
  0
VERTEX
  5
46f
  8
Layer_2
  10
145.807
  20
355.18636
  42
0.0087868666
  0
VERTEX
  5
470
  8
Layer_2
  10
144.50882
  20
354.16318
  0
VERTEX
  5
471
  8
Layer_2
  10
144.16997
  20
353.80732
  0
VERTEX
  5
472
  8
Layer_2
  10
143.86933
  20
353.42562
  0
VERTEX
  5
473
  8
Layer_2
  10
143.65353
  20
353.04596
  0
VERTEX
  5
474
  8
Layer_2
  10
143.46858
  20
352.64544
  42
0.023797296
  0
VERTEX
  5
475
  8
Layer_2
  10
143.25754
  20
351.60947
  0
VERTEX
  5
476
  8
Layer_2
  10
143.19699
  20
350.86014
  0
VERTEX
  5
477
  8
Layer_2
  10
143.18721
  20
350.10451
  0
VERTEX
  5
478
  8
Layer_2
  10
143.18719
  20
349.08133
  0
VERTEX
  5
479
  8
Layer_2
  10
153.62376
  20
349.08133
  0
VERTEX
  5
47a
  8
Layer_2
  10
153.62376
  20
344.03357
  0
VERTEX
  5
47b
  8
Layer_2
  10
128.62378
  20
344.03357
  0
VERTEX
  5
47c
  8
Layer_2
  10
128.62376
  20
354.65771
  0
VERTEX
  5
47d
  8
Layer_2
  10
128.62752
  20
355.52762
  0
VERTEX
  5
47e
  8
Layer_2
  10
128.64662
  20
356.39554
  0
VERTEX
  5
47f
  8
Layer_2
  10
128.69639
  20
357.25947
  0
VERTEX
  5
480
  8
Layer_2
  10
128.79216
  20
358.11739
  0
VERTEX
  5
481
  8
Layer_2
  10
128.89232
  20
358.7118
  0
VERTEX
  5
482
  8
Layer_2
  10
129.01489
  20
359.30329
  0
VERTEX
  5
483
  8
Layer_2
  10
129.15239
  20
359.89283
  0
VERTEX
  5
484
  8
Layer_2
  10
129.29736
  20
360.4814
  0
VERTEX
  5
485
  8
Layer_2
  10
129.50333
  20
360.9131
  0
VERTEX
  5
486
  8
Layer_2
  10
129.72048
  20
361.33562
  0
VERTEX
  5
487
  8
Layer_2
  10
129.96003
  20
361.73977
  0
VERTEX
  5
488
  8
Layer_2
  10
130.23316
  20
362.11638
  0
VERTEX
  5
489
  8
Layer_2
  10
130.55678
  20
362.46849
  0
VERTEX
  5
48a
  8
Layer_2
  10
130.91591
  20
362.79149
  0
VERTEX
  5
48b
  8
Layer_2
  10
131.29871
  20
363.09508
  0
VERTEX
  5
48c
  8
Layer_2
  10
131.69334
  20
363.38896
  0
VERTEX
  5
48d
  8
Layer_2
  10
132.14588
  20
363.62554
  0
VERTEX
  5
48e
  8
Layer_2
  10
132.60201
  20
363.84934
  0
VERTEX
  5
48f
  8
Layer_2
  10
133.0653
  20
364.04759
  0
VERTEX
  5
490
  8
Layer_2
  10
133.53935
  20
364.20751
  0
VERTEX
  5
491
  8
Layer_2
  10
134.04896
  20
364.32459
  0
VERTEX
  5
492
  8
Layer_2
  10
134.57032
  20
364.39979
  0
VERTEX
  5
493
  8
Layer_2
  10
135.09952
  20
364.44707
  0
VERTEX
  5
494
  8
Layer_2
  10
135.63263
  20
364.48037
  0
VERTEX
  5
495
  8
Layer_2
  10
136.29511
  20
364.43283
  0
VERTEX
  5
496
  8
Layer_2
  10
136.94946
  20
364.36296
  0
VERTEX
  5
497
  8
Layer_2
  10
137.58755
  20
364.2484
  0
VERTEX
  5
498
  8
Layer_2
  10
138.20127
  20
364.06682
  0
VERTEX
  5
499
  8
Layer_2
  10
138.74548
  20
363.82435
  0
VERTEX
  5
49a
  8
Layer_2
  10
139.26859
  20
363.52386
  0
VERTEX
  5
49b
  8
Layer_2
  10
139.77763
  20
363.18469
  0
VERTEX
  5
49c
  8
Layer_2
  10
140.27963
  20
362.82619
  0
VERTEX
  5
49d
  8
Layer_2
  10
140.69629
  20
362.33123
  0
VERTEX
  5
49e
  8
Layer_2
  10
141.09571
  20
361.82791
  0
VERTEX
  5
49f
  8
Layer_2
  10
141.46066
  20
361.30788
  0
VERTEX
  5
4a0
  8
Layer_2
  10
141.77392
  20
360.76278
  0
VERTEX
  5
4a1
  8
Layer_2
  10
142.0614
  20
360.0827
  0
VERTEX
  5
4a2
  8
Layer_2
  10
142.27742
  20
359.36797
  0
VERTEX
  5
4a3
  8
Layer_2
  10
142.44579
  20
358.63014
  0
VERTEX
  5
4a4
  8
Layer_2
  10
142.59034
  20
357.88076
  0
VERTEX
  5
4a5
  8
Layer_2
  10
143.07098
  20
358.64378
  0
VERTEX
  5
4a6
  8
Layer_2
  10
143.59222
  20
359.37505
  0
VERTEX
  5
4a7
  8
Layer_2
  10
144.12336
  20
359.99243
  0
VERTEX
  5
4a8
  8
Layer_2
  10
144.68788
  20
360.5837
  0
SEQEND
  0
POLYLINE
  5
4aa
  8
Layer_2
  62
1
  70
1
  66
1
  10
0
  20
0
  30
0
  0
VERTEX
  5
4aa
  8
Layer_2
  10
149.41162
  20
339.73618
  0
VERTEX
  5
4ab
  8
Layer_2
  10
153.62376
  20
339.73618
  0
VERTEX
  5
4ac
  8
Layer_2
  10
153.62376
  20
320.72186
  0
VERTEX
  5
4ad
  8
Layer_2
  10
128.62378
  20
320.72186
  0
VERTEX
  5
4ae
  8
Layer_2
  10
128.62378
  20
339.2587
  0
VERTEX
  5
4af
  8
Layer_2
  10
132.85297
  20
339.2587
  0
VERTEX
  5
4b0
  8
Layer_2
  10
132.85297
  20
325.76962
  0
VERTEX
  5
4b1
  8
Layer_2
  10
138.39526
  20
325.76962
  0
VERTEX
  5
4b2
  8
Layer_2
  10
138.39526
  20
338.32077
  0
VERTEX
  5
4b3
  8
Layer_2
  10
142.60739
  20
338.32077
  0
VERTEX
  5
4b4
  8
Layer_2
  10
142.60739
  20
325.76962
  0
VERTEX
  5
4b5
  8
Layer_2
  10
149.41162
  20
325.76962
  0
SEQEND
  0
POLYLINE
  5
4b7
  8
Layer_0
  62
7
  70
1
  66
1
  10
0
  20
0
  30
0
  0
VERTEX
  5
4b7
  8
Layer_0
  10
163.8765
  20
185.30472
  0
VERTEX
  5
4b8
  8
Layer_0
  10
163.12219
  20
69.259766
  42
-0.26794957
  0
VERTEX
  5
4b9
  8
Layer_0
  10
160.5941
  20
64.945984
  42
-0.26794884
  0
VERTEX
  5
4ba
  8
Layer_0
  10
155.59421
  20
64.978485
  0
VERTEX
  5
4bb
  8
Layer_0
  10
55.47348
  20
123.65421
  42
-0.26794757
  0
VERTEX
  5
4bc
  8
Layer_0
  10
53.001694
  20
128.00049
  42
-0.2679464
  0
VERTEX
  5
4bd
  8
Layer_0
  10
55.52977
  20
132.31427
  0
VERTEX
  5
4be
  8
Layer_0
  10
156.4048
  20
189.68349
  42
-0.26794863
  0
VERTEX
  5
4bf
  8
Layer_0
  10
161.40469
  20
189.65099
  42
-0.26794971
  0
SEQEND
  0
POLYLINE
  5
4c1
  8
Layer_2
  62
1
  70
1
  66
1
  10
0
  20
0
  30
0
  0
VERTEX
  5
4c1
  8
Layer_2
  10
130.15003
  20
312.37429
  0
VERTEX
  5
4c2
  8
Layer_2
  10
129.72765
  20
311.60854
  0
VERTEX
  5
4c3
  8
Layer_2
  10
129.32778
  20
310.83637
  0
VERTEX
  5
4c4
  8
Layer_2
  10
128.97292
  20
310.05138
  0
VERTEX
  5
4c5
  8
Layer_2
  10
128.68559
  20
309.24715
  0
VERTEX
  5
4c6
  8
Layer_2
  10
128.55261
  20
308.7494
  0
VERTEX
  5
4c7
  8
Layer_2
  10
128.44841
  20
308.24346
  0
VERTEX
  5
4c8
  8
Layer_2
  10
128.36889
  20
307.73048
  0
VERTEX
  5
4c9
  8
Layer_2
  10
128.30992
  20
307.21163
  0
VERTEX
  5
4ca
  8
Layer_2
  10
128.23723
  20
306.16105
  0
VERTEX
  5
4cb
  8
Layer_2
  10
128.19744
  20
305.10109
  0
VERTEX
  5
4cc
  8
Layer_2
  10
128.22697
  20
304.26887
  0
VERTEX
  5
4cd
  8
Layer_2
  10
128.27581
  20
303.44083
  0
VERTEX
  5
4ce
  8
Layer_2
  10
128.36327
  20
302.62118
  0
VERTEX
  5
4cf
  8
Layer_2
  10
128.50866
  20
301.8141
  0
VERTEX
  5
4d0
  8
Layer_2
  10
128.69152
  20
301.12846
  0
VERTEX
  5
4d1
  8
Layer_2
  10
128.91771
  20
300.45223
  0
VERTEX
  5
4d2
  8
Layer_2
  10
129.1728
  20
299.78226
  0
VERTEX
  5
4d3
  8
Layer_2
  10
129.44233
  20
299.11543
  0
VERTEX
  5
4d4
  8
Layer_2
  10
129.89164
  20
298.37858
  0
VERTEX
  5
4d5
  8
Layer_2
  10
130.35862
  20
297.65892
  0
VERTEX
  5
4d6
  8
Layer_2
  10
130.86093
  20
296.97367
  0
VERTEX
  5
4d7
  8
Layer_2
  10
131.41623
  20
296.34001
  0
VERTEX
  5
4d8
  8
Layer_2
  10
132.02663
  20
295.77745
  0
VERTEX
  5
4d9
  8
Layer_2
  10
132.68847
  20
295.26497
  0
VERTEX
  5
4da
  8
Layer_2
  10
133.38459
  20
294.78587
  0
VERTEX
  5
4db
  8
Layer_2
  10
134.09785
  20
294.32347
  0
VERTEX
  5
4dc
  8
Layer_2
  10
134.89958
  20
293.96866
  0
VERTEX
  5
4dd
  8
Layer_2
  10
135.70591
  20
293.63298
  0
VERTEX
  5
4de
  8
Layer_2
  10
136.52143
  20
293.3356
  0
VERTEX
  5
4df
  8
Layer_2
  10
137.35075
  20
293.09565
  0
VERTEX
  5
4e0
  8
Layer_2
  10
138.25436
  20
292.91701
  0
VERTEX
  5
4e1
  8
Layer_2
  10
139.17368
  20
292.80379
  0
VERTEX
  5
4e2
  8
Layer_2
  10
140.10348
  20
292.73418
  0
VERTEX
  5
4e3
  8
Layer_2
  10
141.03851
  20
292.68637
  0
VERTEX
  5
4e4
  8
Layer_2
  10
141.91462
  20
292.7324
  0
VERTEX
  5
4e5
  8
Layer_2
  10
142.78668
  20
292.79669
  0
VERTEX
  5
4e6
  8
Layer_2
  10
143.65064
  20
292.89747
  0
VERTEX
  5
4e7
  8
Layer_2
  10
144.50244
  20
293.05301
  0
VERTEX
  5
4e8
  8
Layer_2
  10
145.31463
  20
293.26787
  0
VERTEX
  5
4e9
  8
Layer_2
  10
146.11537
  20
293.53427
  0
VERTEX
  5
4ea
  8
Layer_2
  10
146.90848
  20
293.83502
  0
VERTEX
  5
4eb
  8
Layer_2
  10
147.69778
  20
294.15294
  0
VERTEX
  5
4ec
  8
Layer_2
  10
148.41534
  20
294.56646
  0
VERTEX
  5
4ed
  8
Layer_2
  10
149.1166
  20
294.99747
  0
VERTEX
  5
4ee
  8
Layer_2
  10
149.78524
  20
295.46346
  0
VERTEX
  5
4ef
  8
Layer_2
  10
150.40498
  20
295.98191
  0
VERTEX
  5
4f0
  8
Layer_2
  10
150.96109
  20
296.56002
  0
VERTEX
  5
4f1
  8
Layer_2
  10
151.46899
  20
297.18983
  0
VERTEX
  5
4f2
  8
Layer_2
  10
151.94476
  20
297.85411
  0
VERTEX
  5
4f3
  8
Layer_2
  10
152.40447
  20
298.53564
  0
VERTEX
  5
4f4
  8
Layer_2
  10
152.76108
  20
299.3157
  0
VERTEX
  5
4f5
  8
Layer_2
  10
153.09847
  20
300.1005
  0
VERTEX
  5
4f6
  8
Layer_2
  10
153.39741
  20
300.89478
  0
VERTEX
  5
4f7
  8
Layer_2
  10
153.63869
  20
301.70327
  0
VERTEX
  5
4f8
  8
Layer_2
  10
153.82096
  20
302.60137
  0
VERTEX
  5
4f9
  8
Layer_2
  10
153.93516
  20
303.51625
  0
VERTEX
  5
4fa
  8
Layer_2
  10
154.00398
  20
304.44231
  0
VERTEX
  5
4fb
  8
Layer_2
  10
154.0501
  20
305.37395
  0
VERTEX
  5
4fc
  8
Layer_2
  10
154.00976
  20
306.14704
  0
VERTEX
  5
4fd
  8
Layer_2
  10
153.95636
  20
306.91764
  0
VERTEX
  5
4fe
  8
Layer_2
  10
153.87682
  20
307.68326
  0
VERTEX
  5
4ff
  8
Layer_2
  10
153.75807
  20
308.4414
  0
VERTEX
  5
500
  8
Layer_2
  10
153.58694
  20
309.20779
  0
VERTEX
  5
501
  8
Layer_2
  10
153.37475
  20
309.96636
  0
VERTEX
  5
502
  8
Layer_2
  10
153.1352
  20
310.71973
  0
VERTEX
  5
503
  8
Layer_2
  10
152.88196
  20
311.47048
  0
VERTEX
  5
504
  8
Layer_2
  10
152.59865
  20
312.15297
  0
VERTEX
  5
505
  8
Layer_2
  10
152.30269
  20
312.82786
  0
VERTEX
  5
506
  8
Layer_2
  10
151.98141
  20
313.48753
  0
VERTEX
  5
507
  8
Layer_2
  10
151.62215
  20
314.12438
  0
VERTEX
  5
508
  8
Layer_2
  10
151.29142
  20
314.62793
  0
VERTEX
  5
509
  8
Layer_2
  10
150.93493
  20
315.11599
  0
VERTEX
  5
50a
  8
Layer_2
  10
150.56127
  20
315.59372
  0
VERTEX
  5
50b
  8
Layer_2
  10
150.17902
  20
316.0663
  0
VERTEX
  5
50c
  8
Layer_2
  10
140.21994
  20
316.06631
  0
VERTEX
  5
50d
  8
Layer_2
  10
140.21994
  20
305.1864
  0
VERTEX
  5
50e
  8
Layer_2
  10
144.4321
  20
305.1864
  0
VERTEX
  5
50f
  8
Layer_2
  10
144.4321
  20
310.96741
  0
VERTEX
  5
510
  8
Layer_2
  10
147.60399
  20
310.96741
  0
VERTEX
  5
511
  8
Layer_2
  10
148.03125
  20
310.34903
  0
VERTEX
  5
512
  8
Layer_2
  10
148.42468
  20
309.71187
  0
VERTEX
  5
513
  8
Layer_2
  10
148.78901
  20
308.98227
  0
VERTEX
  5
514
  8
Layer_2
  10
149.1132
  20
308.23037
  0
VERTEX
  5
515
  8
Layer_2
  10
149.24813
  20
307.83581
  0
VERTEX
  5
516
  8
Layer_2
  10
149.37577
  20
307.43985
  0
VERTEX
  5
517
  8
Layer_2
  10
149.48884
  20
307.04105
  0
VERTEX
  5
518
  8
Layer_2
  10
149.58003
  20
306.63802
  0
VERTEX
  5
519
  8
Layer_2
  10
149.6848
  20
305.8492
  0
VERTEX
  5
51a
  8
Layer_2
  10
149.73564
  20
305.04995
  0
VERTEX
  5
51b
  8
Layer_2
  10
149.66744
  20
304.29436
  0
VERTEX
  5
51c
  8
Layer_2
  10
149.57088
  20
303.5511
  0
VERTEX
  5
51d
  8
Layer_2
  10
149.41761
  20
302.8325
  0
VERTEX
  5
51e
  8
Layer_2
  10
149.17928
  20
302.1509
  0
VERTEX
  5
51f
  8
Layer_2
  10
148.85321
  20
301.53996
  0
VERTEX
  5
520
  8
Layer_2
  10
148.44897
  20
300.96301
  0
VERTEX
  5
521
  8
Layer_2
  10
147.99261
  20
300.40872
  0
VERTEX
  5
522
  8
Layer_2
  10
147.5102
  20
299.86577
  0
VERTEX
  5
523
  8
Layer_2
  10
146.8328
  20
299.43816
  0
VERTEX
  5
524
  8
Layer_2
  10
146.14817
  20
299.03322
  0
VERTEX
  5
525
  8
Layer_2
  10
145.44911
  20
298.67365
  0
VERTEX
  5
526
  8
Layer_2
  10
144.7284
  20
298.38213
  0
VERTEX
  5
527
  8
Layer_2
  10
144.26607
  20
298.24338
  0
VERTEX
  5
528
  8
Layer_2
  10
143.79394
  20
298.1354
  0
VERTEX
  5
529
  8
Layer_2
  10
143.31343
  20
298.0538
  0
VERTEX
  5
52a
  8
Layer_2
  10
142.82591
  20
297.99418
  0
VERTEX
  5
52b
  8
Layer_2
  10
141.83549
  20
297.9233
  0
VERTEX
  5
52c
  8
Layer_2
  10
140.83387
  20
297.88759
  0
VERTEX
  5
52d
  8
Layer_2
  10
139.90089
  20
297.92573
  0
VERTEX
  5
52e
  8
Layer_2
  10
138.97915
  20
297.99743
  0
VERTEX
  5
52f
  8
Layer_2
  10
138.526
  20
298.05635
  0
VERTEX
  5
530
  8
Layer_2
  10
138.07988
  20
298.13625
  0
VERTEX
  5
531
  8
Layer_2
  10
137.64219
  20
298.24132
  0
VERTEX
  5
532
  8
Layer_2
  10
137.21433
  20
298.37575
  0
VERTEX
  5
533
  8
Layer_2
  10
136.53678
  20
298.66324
  0
VERTEX
  5
534
  8
Layer_2
  10
135.8818
  20
299.01812
  0
VERTEX
  5
535
  8
Layer_2
  10
135.24186
  20
299.41792
  0
VERTEX
  5
536
  8
Layer_2
  10
134.60945
  20
299.8402
  0
VERTEX
  5
537
  8
Layer_2
  10
134.1549
  20
300.38803
  0
VERTEX
  5
538
  8
Layer_2
  10
133.72486
  20
300.94587
  0
VERTEX
  5
539
  8
Layer_2
  10
133.34382
  20
301.52376
  0
VERTEX
  5
53a
  8
Layer_2
  10
133.03629
  20
302.1317
  0
VERTEX
  5
53b
  8
Layer_2
  10
132.80427
  20
302.83278
  0
VERTEX
  5
53c
  8
Layer_2
  10
132.65875
  20
303.56924
  0
VERTEX
  5
53d
  8
Layer_2
  10
132.57091
  20
304.32927
  0
VERTEX
  5
53e
  8
Layer_2
  10
132.5119
  20
305.10109
  0
VERTEX
  5
53f
  8
Layer_2
  10
132.54043
  20
305.613
  0
VERTEX
  5
540
  8
Layer_2
  10
132.58419
  20
306.12031
  0
VERTEX
  5
541
  8
Layer_2
  10
132.65842
  20
306.61842
  0
VERTEX
  5
542
  8
Layer_2
  10
132.77836
  20
307.10274
  0
VERTEX
  5
543
  8
Layer_2
  10
132.9347
  20
307.52566
  0
VERTEX
  5
544
  8
Layer_2
  10
133.12833
  20
307.93734
  0
VERTEX
  5
545
  8
Layer_2
  10
133.34682
  20
308.34153
  0
VERTEX
  5
546
  8
Layer_2
  10
133.57773
  20
308.74196
  0
VERTEX
  5
547
  8
Layer_2
  10
133.87331
  20
309.07656
  0
VERTEX
  5
548
  8
Layer_2
  10
134.17664
  20
309.39989
  0
VERTEX
  5
549
  8
Layer_2
  10
134.49547
  20
309.70069
  0
VERTEX
  5
54a
  8
Layer_2
  10
134.83753
  20
309.96767
  0
VERTEX
  5
54b
  8
Layer_2
  10
135.22056
  20
310.19997
  0
VERTEX
  5
54c
  8
Layer_2
  10
135.62837
  20
310.39623
  0
VERTEX
  5
54d
  8
Layer_2
  10
136.05271
  20
310.56845
  0
VERTEX
  5
54e
  8
Layer_2
  10
136.4853
  20
310.72866
  0
VERTEX
  5
54f
  8
Layer_2
  10
135.54736
  20
315.74231
  0
VERTEX
  5
550
  8
Layer_2
  10
134.7408
  20
315.49941
  0
VERTEX
  5
551
  8
Layer_2
  10
133.94968
  20
315.23195
  0
VERTEX
  5
552
  8
Layer_2
  10
133.18948
  20
314.91538
  0
VERTEX
  5
553
  8
Layer_2
  10
132.47566
  20
314.52513
  0
VERTEX
  5
554
  8
Layer_2
  10
131.84452
  20
314.06643
  0
VERTEX
  5
555
  8
Layer_2
  10
131.25601
  20
313.54
  0
VERTEX
  5
556
  8
Layer_2
  10
130.69592
  20
312.96843
  0
SEQEND
  0
POLYLINE
  5
558
  8
Layer_2
  62
1
  70
1
  66
1
  10
0
  20
0
  30
0
  0
VERTEX
  5
558
  8
Layer_2
  10
137.32092
  20
273.07518
  0
VERTEX
  5
559
  8
Layer_2
  10
153.62378
  20
273.07518
  0
VERTEX
  5
55a
  8
Layer_2
  10
153.62378
  20
268.38554
  0
VERTEX
  5
55b
  8
Layer_2
  10
128.62378
  20
268.38554
  0
VERTEX
  5
55c
  8
Layer_2
  10
128.62378
  20
273.29688
  0
VERTEX
  5
55d
  8
Layer_2
  10
145.31886
  20
283.52879
  0
VERTEX
  5
55e
  8
Layer_2
  10
128.62378
  20
283.52879
  0
VERTEX
  5
55f
  8
Layer_2
  10
128.62378
  20
288.21843
  0
VERTEX
  5
560
  8
Layer_2
  10
153.62378
  20
288.21843
  0
VERTEX
  5
561
  8
Layer_2
  10
153.62378
  20
283.15363
  0
SEQEND
  0
POLYLINE
  5
563
  8
Layer_2
  62
1
  70
1
  66
1
  10
0
  20
0
  30
0
  0
VERTEX
  5
563
  8
Layer_2
  10
128.62378
  20
217.87396
  0
VERTEX
  5
564
  8
Layer_2
  10
128.62378
  20
227.09973
  0
VERTEX
  5
565
  8
Layer_2
  10
128.62914
  20
227.7899
  0
VERTEX
  5
566
  8
Layer_2
  10
128.64428
  20
228.47898
  0
VERTEX
  5
567
  8
Layer_2
  10
128.67902
  20
229.16589
  0
VERTEX
  5
568
  8
Layer_2
  10
128.74316
  20
229.84957
  0
VERTEX
  5
569
  8
Layer_2
  10
128.9007
  20
230.85595
  0
VERTEX
  5
56a
  8
Layer_2
  10
129.10127
  20
231.85759
  0
VERTEX
  5
56b
  8
Layer_2
  10
129.29638
  20
232.38632
  0
VERTEX
  5
56c
  8
Layer_2
  10
129.50341
  20
232.90777
  0
VERTEX
  5
56d
  8
Layer_2
  10
129.73425
  20
233.41466
  0
VERTEX
  5
56e
  8
Layer_2
  10
130.00083
  20
233.89971
  0
VERTEX
  5
56f
  8
Layer_2
  10
130.31006
  20
234.35669
  0
VERTEX
  5
570
  8
Layer_2
  10
130.65479
  20
234.79197
  0
VERTEX
  5
571
  8
Layer_2
  10
131.02321
  20
235.21277
  0
VERTEX
  5
572
  8
Layer_2
  10
131.40346
  20
235.62635
  0
VERTEX
  5
573
  8
Layer_2
  10
131.84887
  20
235.99609
  0
VERTEX
  5
574
  8
Layer_2
  10
132.30008
  20
236.35607
  0
VERTEX
  5
575
  8
Layer_2
  10
132.76288
  20
236.69651
  0
VERTEX
  5
576
  8
Layer_2
  10
133.24307
  20
237.00765
  0
VERTEX
  5
577
  8
Layer_2
  10
133.77309
  20
237.29729
  0
VERTEX
  5
578
  8
Layer_2
  10
134.32249
  20
237.55427
  0
VERTEX
  5
579
  8
Layer_2
  10
134.88481
  20
237.78948
  0
VERTEX
  5
57a
  8
Layer_2
  10
135.45359
  20
238.0138
  0
VERTEX
  5
57b
  8
Layer_2
  10
136.11895
  20
238.19095
  0
VERTEX
  5
57c
  8
Layer_2
  10
136.78569
  20
238.35864
  0
VERTEX
  5
57d
  8
Layer_2
  10
137.45519
  20
238.50738
  0
VERTEX
  5
57e
  8
Layer_2
  10
138.12881
  20
238.6277
  0
VERTEX
  5
57f
  8
Layer_2
  10
138.93053
  20
238.72506
  0
VERTEX
  5
580
  8
Layer_2
  10
139.738
  20
238.78283
  0
VERTEX
  5
581
  8
Layer_2
  10
140.5493
  20
238.81419
  0
VERTEX
  5
582
  8
Layer_2
  10
141.36253
  20
238.83236
  0
VERTEX
  5
583
  8
Layer_2
  10
142.08528
  20
238.81364
  0
VERTEX
  5
584
  8
Layer_2
  10
142.80628
  20
238.78323
  0
VERTEX
  5
585
  8
Layer_2
  10
143.52377
  20
238.72942
  0
VERTEX
  5
586
  8
Layer_2
  10
144.23599
  20
238.64051
  0
VERTEX
  5
587
  8
Layer_2
  10
144.85245
  20
238.52782
  0
VERTEX
  5
588
  8
Layer_2
  10
145.46491
  20
238.38839
  0
VERTEX
  5
589
  8
Layer_2
  10
146.07469
  20
238.23113
  0
VERTEX
  5
58a
  8
Layer_2
  10
146.68313
  20
238.06496
  0
VERTEX
  5
58b
  8
Layer_2
  10
147.32078
  20
237.81387
  0
VERTEX
  5
58c
  8
Layer_2
  10
147.95022
  20
237.54938
  0
VERTEX
  5
58d
  8
Layer_2
  10
148.56323
  20
237.25811
  0
VERTEX
  5
58e
  8
Layer_2
  10
149.15158
  20
236.92666
  0
VERTEX
  5
58f
  8
Layer_2
  10
149.66266
  20
236.581
  0
VERTEX
  5
590
  8
Layer_2
  10
150.15317
  20
236.20182
  0
VERTEX
  5
591
  8
Layer_2
  10
150.62997
  20
235.8003
  0
VERTEX
  5
592
  8
Layer_2
  10
151.09991
  20
235.38761
  0
VERTEX
  5
593
  8
Layer_2
  10
151.40556
  20
235.01384
  0
VERTEX
  5
594
  8
Layer_2
  10
151.70278
  20
234.63525
  0
VERTEX
  5
595
  8
Layer_2
  10
151.98314
  20
234.24701
  0
VERTEX
  5
596
  8
Layer_2
  10
152.23821
  20
233.84429
  0
VERTEX
  5
597
  8
Layer_2
  10
152.49055
  20
233.36516
  0
VERTEX
  5
598
  8
Layer_2
  10
152.71022
  20
232.86734
  0
VERTEX
  5
599
  8
Layer_2
  10
152.90812
  20
232.35705
  0
VERTEX
  5
59a
  8
Layer_2
  10
153.09513
  20
231.84054
  0
VERTEX
  5
59b
  8
Layer_2
  10
153.31755
  20
230.86731
  0
VERTEX
  5
59c
  8
Layer_2
  10
153.49162
  20
229.88795
  0
VERTEX
  5
59d
  8
Layer_2
  10
153.55847
  20
229.2634
  0
VERTEX
  5
59e
  8
Layer_2
  10
153.59634
  20
228.63518
  0
VERTEX
  5
59f
  8
Layer_2
  10
153.61489
  20
228.0045
  0
VERTEX
  5
5a0
  8
Layer_2
  10
153.62378
  20
227.3726
  0
VERTEX
  5
5a1
  8
Layer_2
  10
153.62378
  20
217.87396
  0
SEQEND
  0
POLYLINE
  5
5a3
  8
Layer_2
  62
1
  70
1
  66
1
  10
0
  20
0
  30
0
  0
VERTEX
  5
5a3
  8
Layer_2
  10
178.59543
  20
309.94962
  42
-0.013286894
  0
VERTEX
  5
5a4
  8
Layer_2
  10
179.87067
  20
310.94235
  0
VERTEX
  5
5a5
  8
Layer_2
  10
180.85061
  20
311.60355
  0
VERTEX
  5
5a6
  8
Layer_2
  10
181.85722
  20
312.2272
  0
VERTEX
  5
5a7
  8
Layer_2
  10
185.7748
  20
314.64383
  0
VERTEX
  5
5a8
  8
Layer_2
  10
185.74339
  20
309.81445
  0
VERTEX
  5
5a9
  8
Layer_2
  10
181.37253
  20
306.92328
  42
0.015340411
  0
VERTEX
  5
5aa
  8
Layer_2
  10
179.46263
  20
305.62601
  42
0.0087751927
  0
VERTEX
  5
5ab
  8
Layer_2
  10
178.41879
  20
304.81421
  0
VERTEX
  5
5ac
  8
Layer_2
  10
178.14586
  20
304.53129
  0
VERTEX
  5
5ad
  8
Layer_2
  10
177.90337
  20
304.2275
  42
0.04232051
  0
VERTEX
  5
5ae
  8
Layer_2
  10
177.57872
  20
303.60547
  42
0.0237868
  0
VERTEX
  5
5af
  8
Layer_2
  10
177.40451
  20
302.7778
  0
VERTEX
  5
5b0
  8
Layer_2
  10
177.35217
  20
302.17866
  0
VERTEX
  5
5b1
  8
Layer_2
  10
177.34041
  20
301.57421
  0
VERTEX
  5
5b2
  8
Layer_2
  10
177.33508
  20
300.75568
  0
VERTEX
  5
5b3
  8
Layer_2
  10
185.68416
  20
300.70142
  0
VERTEX
  5
5b4
  8
Layer_2
  10
185.65791
  20
296.6633
  0
VERTEX
  5
5b5
  8
Layer_2
  10
165.65834
  20
296.7933
  0
VERTEX
  5
5b6
  8
Layer_2
  10
165.71359
  20
305.29245
  0
VERTEX
  5
5b7
  8
Layer_2
  10
165.72112
  20
305.98833
  0
VERTEX
  5
5b8
  8
Layer_2
  10
165.74091
  20
306.68255
  0
VERTEX
  5
5b9
  8
Layer_2
  10
165.78521
  20
307.37341
  0
VERTEX
  5
5ba
  8
Layer_2
  10
165.86629
  20
308.05923
  0
VERTEX
  5
5bb
  8
Layer_2
  10
166.05063
  20
309.00678
  0
VERTEX
  5
5bc
  8
Layer_2
  10
166.28274
  20
309.94778
  0
VERTEX
  5
5bd
  8
Layer_2
  10
166.44975
  20
310.29205
  0
VERTEX
  5
5be
  8
Layer_2
  10
166.62566
  20
310.62892
  0
VERTEX
  5
5bf
  8
Layer_2
  10
166.8194
  20
310.95099
  0
VERTEX
  5
5c0
  8
Layer_2
  10
167.03986
  20
311.25085
  0
VERTEX
  5
5c1
  8
Layer_2
  10
167.30058
  20
311.53086
  0
VERTEX
  5
5c2
  8
Layer_2
  10
167.58956
  20
311.78739
  0
VERTEX
  5
5c3
  8
Layer_2
  10
167.89737
  20
312.02827
  0
VERTEX
  5
5c4
  8
Layer_2
  10
168.21459
  20
312.26132
  0
VERTEX
  5
5c5
  8
Layer_2
  10
168.57785
  20
312.44823
  0
VERTEX
  5
5c6
  8
Layer_2
  10
168.94391
  20
312.62489
  0
VERTEX
  5
5c7
  8
Layer_2
  10
169.31557
  20
312.78108
  0
VERTEX
  5
5c8
  8
Layer_2
  10
169.69563
  20
312.90655
  0
VERTEX
  5
5c9
  8
Layer_2
  10
170.10392
  20
312.99756
  0
VERTEX
  5
5ca
  8
Layer_2
  10
170.52139
  20
313.05501
  0
VERTEX
  5
5cb
  8
Layer_2
  10
170.94498
  20
313.09007
  0
VERTEX
  5
5cc
  8
Layer_2
  10
171.37164
  20
313.11395
  0
VERTEX
  5
5cd
  8
Layer_2
  10
171.90136
  20
313.07248
  0
VERTEX
  5
5ce
  8
Layer_2
  10
172.42446
  20
313.01318
  0
VERTEX
  5
5cf
  8
Layer_2
  10
172.93433
  20
312.91822
  0
VERTEX
  5
5d0
  8
Layer_2
  10
173.42435
  20
312.76977
  0
VERTEX
  5
5d1
  8
Layer_2
  10
173.85845
  20
312.57296
  0
VERTEX
  5
5d2
  8
Layer_2
  10
174.27536
  20
312.32985
  0
VERTEX
  5
5d3
  8
Layer_2
  10
174.68082
  20
312.05588
  0
VERTEX
  5
5d4
  8
Layer_2
  10
175.08056
  20
311.76647
  0
VERTEX
  5
5d5
  8
Layer_2
  10
175.4113
  20
311.36833
  0
VERTEX
  5
5d6
  8
Layer_2
  10
175.72821
  20
310.9636
  0
VERTEX
  5
5d7
  8
Layer_2
  10
176.01747
  20
310.54569
  0
VERTEX
  5
5d8
  8
Layer_2
  10
176.26523
  20
310.108
  0
VERTEX
  5
5d9
  8
Layer_2
  10
176.49168
  20
309.56245
  0
VERTEX
  5
5da
  8
Layer_2
  10
176.66077
  20
308.98957
  0
VERTEX
  5
5db
  8
Layer_2
  10
176.79163
  20
308.39845
  0
VERTEX
  5
5dc
  8
Layer_2
  10
176.90337
  20
307.79821
  0
VERTEX
  5
5dd
  8
Layer_2
  10
177.29184
  20
308.40611
  0
VERTEX
  5
5de
  8
Layer_2
  10
177.71262
  20
308.9884
  42
-0.025936908
  0
SEQEND
  0
POLYLINE
  5
5e0
  8
Layer_2
  62
1
  70
1
  66
1
  10
0
  20
0
  30
0
  0
VERTEX
  5
5e0
  8
Layer_2
  10
172.96333
  20
350.19852
  0
VERTEX
  5
5e1
  8
Layer_2
  10
186.00534
  20
350.11374
  0
VERTEX
  5
5e2
  8
Layer_2
  10
185.98096
  20
346.36212
  0
VERTEX
  5
5e3
  8
Layer_2
  10
165.98138
  20
346.49213
  0
VERTEX
  5
5e4
  8
Layer_2
  10
166.00693
  20
350.42111
  0
VERTEX
  5
5e5
  8
Layer_2
  10
179.41592
  20
358.51965
  0
VERTEX
  5
5e6
  8
Layer_2
  10
166.06012
  20
358.60648
  0
VERTEX
  5
5e7
  8
Layer_2
  10
166.08452
  20
362.35809
  0
VERTEX
  5
5e8
  8
Layer_2
  10
186.08409
  20
362.22809
  0
VERTEX
  5
5e9
  8
Layer_2
  10
186.05775
  20
358.17633
  0
SEQEND
  0
POLYLINE
  5
5eb
  8
Layer_2
  62
1
  70
1
  66
1
  10
0
  20
0
  30
0
  0
VERTEX
  5
5eb
  8
Layer_2
  10
165.32227
  20
245.08908
  0
VERTEX
  5
5ec
  8
Layer_2
  10
165.35001
  20
249.35912
  0
VERTEX
  5
5ed
  8
Layer_2
  10
185.40164
  20
257.23712
  0
VERTEX
  5
5ee
  8
Layer_2
  10
185.37309
  20
252.84431
  0
VERTEX
  5
5ef
  8
Layer_2
  10
180.81886
  20
251.12762
  0
VERTEX
  5
5f0
  8
Layer_2
  10
180.76691
  20
243.13326
  0
VERTEX
  5
5f1
  8
Layer_2
  10
185.29904
  20
241.453
  0
VERTEX
  5
5f2
  8
Layer_2
  10
185.27119
  20
237.16933
  0
SEQEND
  0
POLYLINE
  5
5f4
  8
Layer_2
  62
1
  70
1
  66
1
  10
0
  20
0
  30
0
  0
VERTEX
  5
5f4
  8
Layer_2
  10
77.729187
  20
339.83563
  0
VERTEX
  5
5f5
  8
Layer_2
  10
86.228348
  20
339.78452
  0
VERTEX
  5
5f6
  8
Layer_2
  10
86.204063
  20
335.7464
  0
VERTEX
  5
5f7
  8
Layer_2
  10
66.204422
  20
335.86667
  0
VERTEX
  5
5f8
  8
Layer_2
  10
66.28688
  20
349.57718
  0
VERTEX
  5
5f9
  8
Layer_2
  10
69.670181
  20
349.55682
  0
VERTEX
  5
5fa
  8
Layer_2
  10
69.612015
  20
339.88443
  0
VERTEX
  5
5fb
  8
Layer_2
  10
74.345886
  20
339.85599
  0
VERTEX
  5
5fc
  8
Layer_2
  10
74.396103
  20
348.20508
  0
VERTEX
  5
5fd
  8
Layer_2
  10
77.779404
  20
348.18472
  0
SEQEND
  0
POLYLINE
  5
5ff
  8
Layer_2
  62
1
  70
1
  66
1
  10
0
  20
0
  30
0
  0
VERTEX
  5
5ff
  8
Layer_2
  10
78.836319
  20
299.34393
  42
-0.013284525
  0
VERTEX
  5
600
  8
Layer_2
  10
80.111069
  20
300.33728
  0
VERTEX
  5
601
  8
Layer_2
  10
81.090701
  20
300.99897
  0
VERTEX
  5
602
  8
Layer_2
  10
82.097019
  20
301.62312
  0
VERTEX
  5
603
  8
Layer_2
  10
86.013405
  20
304.04166
  0
VERTEX
  5
604
  8
Layer_2
  10
85.984352
  20
299.21225
  0
VERTEX
  5
605
  8
Layer_2
  10
81.614914
  20
296.31897
  42
0.015331409
  0
VERTEX
  5
606
  8
Layer_2
  10
79.705627
  20
295.02077
  42
0.0087760763
  0
VERTEX
  5
607
  8
Layer_2
  10
78.662186
  20
294.20847
  0
VERTEX
  5
608
  8
Layer_2
  10
78.389401
  20
293.92541
  0
VERTEX
  5
609
  8
Layer_2
  10
78.147053
  20
293.6215
  42
0.042335462
  0
VERTEX
  5
60a
  8
Layer_2
  10
77.822708
  20
292.99928
  42
0.023795455
  0
VERTEX
  5
60b
  8
Layer_2
  10
77.648895
  20
292.17154
  0
VERTEX
  5
60c
  8
Layer_2
  10
77.596856
  20
291.57238
  0
VERTEX
  5
60d
  8
Layer_2
  10
77.585393
  20
290.96793
  0
VERTEX
  5
60e
  8
Layer_2
  10
77.58046
  20
290.1494
  0
VERTEX
  5
60f
  8
Layer_2
  10
85.929565
  20
290.0992
  0
VERTEX
  5
610
  8
Layer_2
  10
85.905281
  20
286.06108
  0
VERTEX
  5
611
  8
Layer_2
  10
65.90564
  20
286.18134
  0
VERTEX
  5
612
  8
Layer_2
  10
65.956741
  20
294.6805
  0
VERTEX
  5
613
  8
Layer_2
  10
65.963947
  20
295.3764
  0
VERTEX
  5
614
  8
Layer_2
  10
65.983402
  20
296.07063
  0
VERTEX
  5
615
  8
Layer_2
  10
66.027371
  20
296.76151
  0
VERTEX
  5
616
  8
Layer_2
  10
66.108112
  20
297.44736
  0
VERTEX
  5
617
  8
Layer_2
  10
66.291992
  20
298.395
  0
VERTEX
  5
618
  8
Layer_2
  10
66.523639
  20
299.33613
  0
VERTEX
  5
619
  8
Layer_2
  10
66.69048
  20
299.68048
  0
VERTEX
  5
61a
  8
Layer_2
  10
66.866233
  20
300.01744
  0
VERTEX
  5
61b
  8
Layer_2
  10
67.059811
  20
300.3396
  0
VERTEX
  5
61c
  8
Layer_2
  10
67.280124
  20
300.63956
  0
VERTEX
  5
61d
  8
Layer_2
  10
67.540718
  20
300.9197
  0
VERTEX
  5
61e
  8
Layer_2
  10
67.829572
  20
301.17637
  0
VERTEX
  5
61f
  8
Layer_2
  10
68.137266
  20
301.41739
  0
VERTEX
  5
620
  8
Layer_2
  10
68.454379
  20
301.65058
  0
VERTEX
  5
621
  8
Layer_2
  10
68.817542
  20
301.83768
  0
VERTEX
  5
622
  8
Layer_2
  10
69.183509
  20
302.01453
  0
VERTEX
  5
623
  8
Layer_2
  10
69.555089
  20
302.1709
  0
VERTEX
  5
624
  8
Layer_2
  10
69.935092
  20
302.29655
  0
VERTEX
  5
625
  8
Layer_2
  10
70.343338
  20
302.38777
  0
VERTEX
  5
626
  8
Layer_2
  10
70.760781
  20
302.44542
  0
VERTEX
  5
627
  8
Layer_2
  10
71.184356
  20
302.48068
  0
VERTEX
  5
628
  8
Layer_2
  10
71.610995
  20
302.50477
  0
VERTEX
  5
629
  8
Layer_2
  10
72.14074
  20
302.46355
  0
VERTEX
  5
62a
  8
Layer_2
  10
72.663875
  20
302.4045
  0
VERTEX
  5
62b
  8
Layer_2
  10
73.173792
  20
302.30978
  0
VERTEX
  5
62c
  8
Layer_2
  10
73.663882
  20
302.16157
  0
VERTEX
  5
62d
  8
Layer_2
  10
74.098078
  20
301.96497
  0
VERTEX
  5
62e
  8
Layer_2
  10
74.515111
  20
301.72207
  0
VERTEX
  5
62f
  8
Layer_2
  10
74.920703
  20
301.4483
  0
VERTEX
  5
630
  8
Layer_2
  10
75.320575
  20
301.1591
  0
VERTEX
  5
631
  8
Layer_2
  10
75.651511
  20
300.76112
  0
VERTEX
  5
632
  8
Layer_2
  10
75.968622
  20
300.35655
  0
VERTEX
  5
633
  8
Layer_2
  10
76.25808
  20
299.93878
  0
VERTEX
  5
634
  8
Layer_2
  10
76.506061
  20
299.5012
  0
VERTEX
  5
635
  8
Layer_2
  10
76.73277
  20
298.95575
  0
VERTEX
  5
636
  8
Layer_2
  10
76.90214
  20
298.38294
  0
VERTEX
  5
637
  8
Layer_2
  10
77.033283
  20
297.79188
  0
VERTEX
  5
638
  8
Layer_2
  10
77.145313
  20
297.19169
  0
VERTEX
  5
639
  8
Layer_2
  10
77.533491
  20
297.7998
  0
VERTEX
  5
63a
  8
Layer_2
  10
77.953998
  20
298.3823
  42
-0.025946743
  0
SEQEND
  0
POLYLINE
  5
63c
  8
Layer_2
  62
1
  70
1
  66
1
  10
0
  20
0
  30
0
  0
VERTEX
  5
63c
  8
Layer_2
  10
82.514954
  20
282.64346
  0
VERTEX
  5
63d
  8
Layer_2
  10
85.884605
  20
282.6232
  0
VERTEX
  5
63e
  8
Layer_2
  10
85.793137
  20
267.41202
  0
VERTEX
  5
63f
  8
Layer_2
  10
65.793503
  20
267.53227
  0
VERTEX
  5
640
  8
Layer_2
  10
65.88266
  20
282.36148
  0
VERTEX
  5
641
  8
Layer_2
  10
69.265961
  20
282.34114
  0
VERTEX
  5
642
  8
Layer_2
  10
69.20108
  20
271.55006
  0
VERTEX
  5
643
  8
Layer_2
  10
73.634842
  20
271.52341
  0
VERTEX
  5
644
  8
Layer_2
  10
73.695206
  20
281.56416
  0
VERTEX
  5
645
  8
Layer_2
  10
77.06485
  20
281.5439
  0
VERTEX
  5
646
  8
Layer_2
  10
77.004486
  20
271.50314
  0
VERTEX
  5
647
  8
Layer_2
  10
82.447769
  20
271.47041
  0
SEQEND
  0
POLYLINE
  5
649
  8
Layer_2
  62
1
  70
1
  66
1
  10
0
  20
0
  30
0
  0
VERTEX
  5
649
  8
Layer_2
  10
65.594727
  20
234.47694
  0
VERTEX
  5
64a
  8
Layer_2
  10
65.620392
  20
238.74699
  0
VERTEX
  5
64b
  8
Layer_2
  10
85.668198
  20
246.63477
  0
VERTEX
  5
64c
  8
Layer_2
  10
85.641777
  20
242.24194
  0
VERTEX
  5
64d
  8
Layer_2
  10
81.088379
  20
240.52306
  0
VERTEX
  5
64e
  8
Layer_2
  10
81.040314
  20
232.52866
  0
VERTEX
  5
64f
  8
Layer_2
  10
85.573273
  20
230.85062
  0
VERTEX
  5
650
  8
Layer_2
  10
85.547523
  20
226.56693
  0
SEQEND
  0
POLYLINE
  5
652
  8
Layer_2
  62
1
  70
1
  66
1
  10
0
  20
0
  30
0
  0
VERTEX
  5
652
  8
Layer_2
  10
44.212494
  20
301.97638
  0
VERTEX
  5
653
  8
Layer_2
  10
54.836639
  20
301.97638
  0
VERTEX
  5
654
  8
Layer_2
  10
54.836639
  20
296.92862
  0
VERTEX
  5
655
  8
Layer_2
  10
29.836639
  20
296.92862
  0
VERTEX
  5
656
  8
Layer_2
  10
29.836639
  20
314.06708
  0
VERTEX
  5
657
  8
Layer_2
  10
34.065842
  20
314.06708
  0
VERTEX
  5
658
  8
Layer_2
  10
34.065842
  20
301.97638
  0
VERTEX
  5
659
  8
Layer_2
  10
39.983307
  20
301.97638
  0
VERTEX
  5
65a
  8
Layer_2
  10
39.983307
  20
312.41293
  0
VERTEX
  5
65b
  8
Layer_2
  10
44.212494
  20
312.41293
  0
SEQEND
  0
POLYLINE
  5
65d
  8
Layer_2
  62
1
  70
1
  66
1
  10
0
  20
0
  30
0
  0
VERTEX
  5
65d
  8
Layer_2
  10
29.836639
  20
278.86928
  0
VERTEX
  5
65e
  8
Layer_2
  10
29.836639
  20
284.20692
  0
VERTEX
  5
65f
  8
Layer_2
  10
54.836639
  20
294.21716
  0
VERTEX
  5
660
  8
Layer_2
  10
54.836639
  20
288.72603
  0
VERTEX
  5
661
  8
Layer_2
  10
49.157928
  20
286.54321
  0
VERTEX
  5
662
  8
Layer_2
  10
49.157928
  20
276.55003
  0
VERTEX
  5
663
  8
Layer_2
  10
54.836639
  20
274.4866
  0
VERTEX
  5
664
  8
Layer_2
  10
54.836655
  20
269.1319
  0
SEQEND
  0
POLYLINE
  5
666
  8
Layer_1
  62
5
  70
1
  66
1
  10
0
  20
0
  30
0
  0
VERTEX
  5
666
  8
Layer_1
  10
157.86536
  20
183.61169
  0
VERTEX
  5
667
  8
Layer_1
  10
126.50014
  20
165.7738
  0
VERTEX
  5
668
  8
Layer_1
  10
126.50015
  20
136.40662
  42
-0.0035465888
  0
VERTEX
  5
669
  8
Layer_1
  10
126.62276
  20
136.38501
  0
VERTEX
  5
66a
  8
Layer_1
  10
128.40253
  20
144.09399
  0
VERTEX
  5
66b
  8
Layer_1
  10
130.33437
  20
143.57635
  0
VERTEX
  5
66c
  8
Layer_1
  10
128.02119
  20
136.01031
  42
-0.021117176
  0
VERTEX
  5
66d
  8
Layer_1
  10
128.72568
  20
135.72519
  0
VERTEX
  5
66e
  8
Layer_1
  10
137.20117
  20
151.66527
  0
VERTEX
  5
66f
  8
Layer_1
  10
139.79924
  20
150.16528
  0
VERTEX
  5
670
  8
Layer_1
  10
130.23248
  20
134.85522
  42
-0.021118368
  0
VERTEX
  5
671
  8
Layer_1
  10
130.83163
  20
134.3877
  0
VERTEX
  5
672
  8
Layer_1
  10
136.22745
  20
140.17398
  0
VERTEX
  5
673
  8
Layer_1
  10
137.64166
  20
138.75977
  0
VERTEX
  5
674
  8
Layer_1
  10
131.85535
  20
133.36395
  42
-0.021102986
  0
VERTEX
  5
675
  8
Layer_1
  10
132.32291
  20
132.76483
  0
VERTEX
  5
676
  8
Layer_1
  10
147.63293
  20
142.33157
  0
VERTEX
  5
677
  8
Layer_1
  10
149.13293
  20
139.73352
  0
VERTEX
  5
678
  8
Layer_1
  10
133.19286
  20
131.258
  42
-0.021117176
  0
VERTEX
  5
679
  8
Layer_1
  10
133.47797
  20
130.55353
  0
VERTEX
  5
67a
  8
Layer_1
  10
141.04402
  20
132.8667
  0
VERTEX
  5
67b
  8
Layer_1
  10
141.56166
  20
130.93488
  0
VERTEX
  5
67c
  8
Layer_1
  10
133.85268
  20
129.15509
  42
-0.021119822
  0
VERTEX
  5
67d
  8
Layer_1
  10
133.95801
  20
128.40244
  0
VERTEX
  5
67e
  8
Layer_1
  10
152.00026
  20
129.0325
  0
VERTEX
  5
67f
  8
Layer_1
  10
152.00026
  20
126.0325
  0
VERTEX
  5
680
  8
Layer_1
  10
133.95801
  20
126.66254
  42
-0.021119822
  0
VERTEX
  5
681
  8
Layer_1
  10
133.85268
  20
125.90988
  0
VERTEX
  5
682
  8
Layer_1
  10
141.56166
  20
124.13013
  0
VERTEX
  5
683
  8
Layer_1
  10
141.04402
  20
122.19827
  0
VERTEX
  5
684
  8
Layer_1
  10
133.47797
  20
124.51144
  42
-0.021126557
  0
VERTEX
  5
685
  8
Layer_1
  10
133.19286
  20
123.80695
  0
VERTEX
  5
686
  8
Layer_1
  10
149.13293
  20
115.33148
  0
VERTEX
  5
687
  8
Layer_1
  10
147.63293
  20
112.7334
  0
VERTEX
  5
688
  8
Layer_1
  10
132.32291
  20
122.30017
  42
-0.021112242
  0
VERTEX
  5
689
  8
Layer_1
  10
131.85535
  20
121.70099
  0
VERTEX
  5
68a
  8
Layer_1
  10
137.64166
  20
116.30521
  0
VERTEX
  5
68b
  8
Layer_1
  10
136.22745
  20
114.89099
  0
VERTEX
  5
68c
  8
Layer_1
  10
130.83163
  20
120.67728
  42
-0.021128871
  0
VERTEX
  5
68d
  8
Layer_1
  10
130.23248
  20
120.20972
  0
VERTEX
  5
68e
  8
Layer_1
  10
139.79926
  20
104.89972
  0
VERTEX
  5
68f
  8
Layer_1
  10
137.20117
  20
103.39972
  0
VERTEX
  5
690
  8
Layer_1
  10
128.72568
  20
119.33978
  42
-0.021124029
  0
VERTEX
  5
691
  8
Layer_1
  10
128.02119
  20
119.05469
  0
VERTEX
  5
692
  8
Layer_1
  10
130.33437
  20
111.48862
  0
VERTEX
  5
693
  8
Layer_1
  10
128.40253
  20
110.97098
  0
VERTEX
  5
694
  8
Layer_1
  10
126.62276
  20
118.67996
  42
-0.021119822
  0
VERTEX
  5
695
  8
Layer_1
  10
125.8701
  20
118.57465
  0
VERTEX
  5
696
  8
Layer_1
  10
126.50016
  20
100.53238
  0
VERTEX
  5
697
  8
Layer_1
  10
123.50016
  20
100.53238
  0
VERTEX
  5
698
  8
Layer_1
  10
124.1302
  20
118.57465
  42
-0.021119822
  0
VERTEX
  5
699
  8
Layer_1
  10
123.37755
  20
118.67996
  0
VERTEX
  5
69a
  8
Layer_1
  10
121.59779
  20
110.97098
  0
VERTEX
  5
69b
  8
Layer_1
  10
119.66593
  20
111.48862
  0
VERTEX
  5
69c
  8
Layer_1
  10
121.97911
  20
119.05469
  42
-0.021131122
  0
VERTEX
  5
69d
  8
Layer_1
  10
121.27462
  20
119.33978
  0
VERTEX
  5
69e
  8
Layer_1
  10
112.79914
  20
103.39972
  0
VERTEX
  5
69f
  8
Layer_1
  10
110.20107
  20
104.89972
  0
VERTEX
  5
6a0
  8
Layer_1
  10
119.76782
  20
120.20972
  42
-0.021118368
  0
VERTEX
  5
6a1
  8
Layer_1
  10
119.16867
  20
120.67728
  0
VERTEX
  5
6a2
  8
Layer_1
  10
113.77287
  20
114.89099
  0
VERTEX
  5
6a3
  8
Layer_1
  10
112.35865
  20
116.30521
  0
VERTEX
  5
6a4
  8
Layer_1
  10
118.14494
  20
121.70099
  42
-0.021118368
  0
VERTEX
  5
6a5
  8
Layer_1
  10
117.6774
  20
122.30017
  0
VERTEX
  5
6a6
  8
Layer_1
  10
102.36736
  20
112.7334
  0
VERTEX
  5
6a7
  8
Layer_1
  10
100.86736
  20
115.33148
  0
VERTEX
  5
6a8
  8
Layer_1
  10
116.80744
  20
123.80695
  42
-0.021126795
  0
VERTEX
  5
6a9
  8
Layer_1
  10
116.52234
  20
124.51144
  0
VERTEX
  5
6aa
  8
Layer_1
  10
108.95628
  20
122.19827
  0
VERTEX
  5
6ab
  8
Layer_1
  10
108.43864
  20
124.13013
  0
VERTEX
  5
6ac
  8
Layer_1
  10
116.14763
  20
125.90988
  42
-0.021119822
  0
VERTEX
  5
6ad
  8
Layer_1
  10
116.0423
  20
126.66254
  0
VERTEX
  5
6ae
  8
Layer_1
  10
98.000046
  20
126.03247
  0
VERTEX
  5
6af
  8
Layer_1
  10
98.000046
  20
129.03247
  0
VERTEX
  5
6b0
  8
Layer_1
  10
116.0423
  20
128.40244
  42
-0.021119822
  0
VERTEX
  5
6b1
  8
Layer_1
  10
116.14763
  20
129.15509
  0
VERTEX
  5
6b2
  8
Layer_1
  10
108.43864
  20
130.93484
  0
VERTEX
  5
6b3
  8
Layer_1
  10
108.95628
  20
132.8667
  0
VERTEX
  5
6b4
  8
Layer_1
  10
116.52234
  20
130.55353
  42
-0.021124268
  0
VERTEX
  5
6b5
  8
Layer_1
  10
116.80744
  20
131.258
  0
VERTEX
  5
6b6
  8
Layer_1
  10
100.86736
  20
139.73349
  0
VERTEX
  5
6b7
  8
Layer_1
  10
102.36736
  20
142.33157
  0
VERTEX
  5
6b8
  8
Layer_1
  10
117.6774
  20
132.76483
  42
-0.021118368
  0
VERTEX
  5
6b9
  8
Layer_1
  10
118.14494
  20
133.36395
  0
VERTEX
  5
6ba
  8
Layer_1
  10
112.35865
  20
138.75977
  0
VERTEX
  5
6bb
  8
Layer_1
  10
113.77287
  20
140.17398
  0
VERTEX
  5
6bc
  8
Layer_1
  10
119.16867
  20
134.3877
  42
-0.021102986
  0
VERTEX
  5
6bd
  8
Layer_1
  10
119.76782
  20
134.85522
  0
VERTEX
  5
6be
  8
Layer_1
  10
110.20106
  20
150.16527
  0
VERTEX
  5
6bf
  8
Layer_1
  10
112.79913
  20
151.66527
  0
VERTEX
  5
6c0
  8
Layer_1
  10
121.27462
  20
135.72519
  42
-0.021126557
  0
VERTEX
  5
6c1
  8
Layer_1
  10
121.97911
  20
136.01031
  0
VERTEX
  5
6c2
  8
Layer_1
  10
119.66593
  20
143.57635
  0
VERTEX
  5
6c3
  8
Layer_1
  10
121.59779
  20
144.09399
  0
VERTEX
  5
6c4
  8
Layer_1
  10
123.37755
  20
136.38501
  42
-0.0034559901
  0
VERTEX
  5
6c5
  8
Layer_1
  10
123.50015
  20
136.40662
  0
VERTEX
  5
6c6
  8
Layer_1
  10
123.50014
  20
164.06766
  0
VERTEX
  5
6c7
  8
Layer_1
  10
60.001526
  20
127.95499
  0
VERTEX
  5
6c8
  8
Layer_1
  10
157.13358
  20
71.030762
  0
SEQEND
  0
POLYLINE
  5
6ca
  8
Layer_1
  62
5
  70
1
  66
1
  10
0
  20
0
  30
0
  0
VERTEX
  5
6ca
  8
Layer_1
  10
149.41165
  20
222.92171
  0
VERTEX
  5
6cb
  8
Layer_1
  10
149.41165
  20
226.69046
  0
VERTEX
  5
6cc
  8
Layer_1
  10
149.40433
  20
227.60268
  0
VERTEX
  5
6cd
  8
Layer_1
  10
149.35196
  20
228.5109
  42
0.016962517
  0
VERTEX
  5
6ce
  8
Layer_1
  10
149.1729
  20
229.74298
  0
VERTEX
  5
6cf
  8
Layer_1
  10
149.08552
  20
230.03211
  0
VERTEX
  5
6d0
  8
Layer_1
  10
148.99175
  20
230.31791
  0
VERTEX
  5
6d1
  8
Layer_1
  10
148.88516
  20
230.5971
  0
VERTEX
  5
6d2
  8
Layer_1
  10
148.75936
  20
230.86637
  0
VERTEX
  5
6d3
  8
Layer_1
  10
148.46798
  20
231.33495
  0
VERTEX
  5
6d4
  8
Layer_1
  10
148.13265
  20
231.78084
  0
VERTEX
  5
6d5
  8
Layer_1
  10
147.66068
  20
232.17137
  0
VERTEX
  5
6d6
  8
Layer_1
  10
147.16275
  20
232.51627
  0
VERTEX
  5
6d7
  8
Layer_1
  10
146.82057
  20
232.69551
  0
VERTEX
  5
6d8
  8
Layer_1
  10
146.46244
  20
232.84673
  0
VERTEX
  5
6d9
  8
Layer_1
  10
146.09369
  20
232.97927
  0
VERTEX
  5
6da
  8
Layer_1
  10
145.71963
  20
233.10247
  0
VERTEX
  5
6db
  8
Layer_1
  10
144.73015
  20
233.31764
  0
VERTEX
  5
6dc
  8
Layer_1
  10
143.73505
  20
233.48616
  0
VERTEX
  5
6dd
  8
Layer_1
  10
143.09057
  20
233.55183
  0
VERTEX
  5
6de
  8
Layer_1
  10
142.44259
  20
233.58862
  0
VERTEX
  5
6df
  8
Layer_1
  10
141.7923
  20
233.60615
  0
VERTEX
  5
6e0
  8
Layer_1
  10
141.14084
  20
233.61406
  0
VERTEX
  5
6e1
  8
Layer_1
  10
140.49705
  20
233.60771
  0
VERTEX
  5
6e2
  8
Layer_1
  10
139.85456
  20
233.59111
  0
VERTEX
  5
6e3
  8
Layer_1
  10
139.21464
  20
233.55401
  0
VERTEX
  5
6e4
  8
Layer_1
  10
138.57859
  20
233.48616
  0
VERTEX
  5
6e5
  8
Layer_1
  10
137.63136
  20
233.31745
  0
VERTEX
  5
6e6
  8
Layer_1
  10
136.68995
  20
233.10247
  0
VERTEX
  5
6e7
  8
Layer_1
  10
136.33254
  20
232.96903
  0
VERTEX
  5
6e8
  8
Layer_1
  10
135.97996
  20
232.82758
  0
VERTEX
  5
6e9
  8
Layer_1
  10
135.63705
  20
232.6701
  0
VERTEX
  5
6ea
  8
Layer_1
  10
135.30864
  20
232.48856
  0
VERTEX
  5
6eb
  8
Layer_1
  10
135.03561
  20
232.30544
  0
VERTEX
  5
6ec
  8
Layer_1
  10
134.77369
  20
232.10387
  0
VERTEX
  5
6ed
  8
Layer_1
  10
134.51919
  20
231.89001
  0
VERTEX
  5
6ee
  8
Layer_1
  10
134.26839
  20
231.67
  0
VERTEX
  5
6ef
  8
Layer_1
  10
134.06851
  20
231.41786
  0
VERTEX
  5
6f0
  8
Layer_1
  10
133.87567
  20
231.16213
  0
VERTEX
  5
6f1
  8
Layer_1
  10
133.69694
  20
230.8992
  0
VERTEX
  5
6f2
  8
Layer_1
  10
133.53937
  20
230.62549
  0
VERTEX
  5
6f3
  8
Layer_1
  10
133.39903
  20
230.31704
  0
VERTEX
  5
6f4
  8
Layer_1
  10
133.28305
  20
229.99617
  0
VERTEX
  5
6f5
  8
Layer_1
  10
133.18333
  20
229.66701
  0
VERTEX
  5
6f6
  8
Layer_1
  10
133.09173
  20
229.33371
  42
0.0129011
  0
VERTEX
  5
6f7
  8
Layer_1
  10
132.91266
  20
227.76907
  0
VERTEX
  5
6f8
  8
Layer_1
  10
132.85562
  20
226.4813
  0
VERTEX
  5
6f9
  8
Layer_1
  10
132.85298
  20
225.18978
  0
VERTEX
  5
6fa
  8
Layer_1
  10
132.85298
  20
222.92171
  0
SEQEND
  0
POLYLINE
  5
6fc
  8
Layer_1
  62
5
  70
1
  66
1
  10
0
  20
0
  30
0
  0
VERTEX
  5
6fc
  8
Layer_1
  10
134.45596
  20
252.91829
  0
VERTEX
  5
6fd
  8
Layer_1
  10
143.73293
  20
249.54176
  0
VERTEX
  5
6fe
  8
Layer_1
  10
143.73291
  20
256.36304
  0
SEQEND
  0
POLYLINE
  5
700
  8
Layer_1
  62
5
  70
1
  66
1
  10
0
  20
0
  30
0
  0
VERTEX
  5
700
  8
Layer_1
  10
139.19675
  20
349.08133
  0
VERTEX
  5
701
  8
Layer_1
  10
139.19675
  20
352.81598
  0
VERTEX
  5
702
  8
Layer_1
  10
139.20393
  20
353.55577
  0
VERTEX
  5
703
  8
Layer_1
  10
139.20057
  20
354.29467
  0
VERTEX
  5
704
  8
Layer_1
  10
139.17611
  20
355.03178
  0
VERTEX
  5
705
  8
Layer_1
  10
139.12001
  20
355.76619
  42
0.015569988
  0
VERTEX
  5
706
  8
Layer_1
  10
138.8898
  20
357.35214
  0
VERTEX
  5
707
  8
Layer_1
  10
138.70361
  20
357.77206
  0
VERTEX
  5
708
  8
Layer_1
  10
138.47199
  20
358.15789
  0
VERTEX
  5
709
  8
Layer_1
  10
138.17377
  20
358.47887
  0
VERTEX
  5
70a
  8
Layer_1
  10
137.8325
  20
358.76757
  0
VERTEX
  5
70b
  8
Layer_1
  10
137.41715
  20
358.98324
  0
VERTEX
  5
70c
  8
Layer_1
  10
136.98836
  20
359.15126
  0
VERTEX
  5
70d
  8
Layer_1
  10
136.73783
  20
359.20945
  0
VERTEX
  5
70e
  8
Layer_1
  10
136.48095
  20
359.24516
  0
VERTEX
  5
70f
  8
Layer_1
  10
136.21985
  20
359.26589
  0
VERTEX
  5
710
  8
Layer_1
  10
135.95664
  20
359.27913
  0
VERTEX
  5
711
  8
Layer_1
  10
135.66313
  20
359.26161
  0
VERTEX
  5
712
  8
Layer_1
  10
135.37297
  20
359.23426
  0
VERTEX
  5
713
  8
Layer_1
  10
135.08954
  20
359.18724
  0
VERTEX
  5
714
  8
Layer_1
  10
134.81621
  20
359.11074
  0
VERTEX
  5
715
  8
Layer_1
  10
134.58246
  20
359.0119
  0
VERTEX
  5
716
  8
Layer_1
  10
134.35676
  20
358.88952
  0
VERTEX
  5
717
  8
Layer_1
  10
134.13643
  20
358.75146
  0
VERTEX
  5
718
  8
Layer_1
  10
133.91879
  20
358.60555
  0
VERTEX
  5
719
  8
Layer_1
  10
133.74273
  20
358.41188
  0
VERTEX
  5
71a
  8
Layer_1
  10
133.57379
  20
358.21447
  0
VERTEX
  5
71b
  8
Layer_1
  10
133.41907
  20
358.00955
  0
VERTEX
  5
71c
  8
Layer_1
  10
133.28568
  20
357.79338
  0
VERTEX
  5
71d
  8
Layer_1
  10
133.16814
  20
357.53725
  0
VERTEX
  5
71e
  8
Layer_1
  10
133.07689
  20
357.26725
  0
VERTEX
  5
71f
  8
Layer_1
  10
133.00317
  20
356.98799
  0
VERTEX
  5
720
  8
Layer_1
  10
132.93823
  20
356.70412
  42
0.0054274818
  0
VERTEX
  5
721
  8
Layer_1
  10
132.87427
  20
355.47629
  42
0.010834061
  0
VERTEX
  5
722
  8
Layer_1
  10
132.85297
  20
353.02063
  0
VERTEX
  5
723
  8
Layer_1
  10
132.85297
  20
349.08133
  0
SEQEND
  0
POLYLINE
  5
725
  8
Layer_1
  62
5
  70
1
  66
1
  10
0
  20
0
  30
0
  0
VERTEX
  5
725
  8
Layer_1
  10
170.00148
  20
247.14601
  0
VERTEX
  5
726
  8
Layer_1
  10
177.40532
  20
244.39661
  0
VERTEX
  5
727
  8
Layer_1
  10
177.4408
  20
249.85352
  0
SEQEND
  0
POLYLINE
  5
729
  8
Layer_1
  62
5
  70
1
  66
1
  10
0
  20
0
  30
0
  0
VERTEX
  5
729
  8
Layer_1
  10
174.14279
  20
300.77643
  0
VERTEX
  5
72a
  8
Layer_1
  10
174.16222
  20
303.7641
  0
VERTEX
  5
72b
  8
Layer_1
  10
174.17181
  20
304.35589
  0
VERTEX
  5
72c
  8
Layer_1
  10
174.17296
  20
304.94701
  0
VERTEX
  5
72d
  8
Layer_1
  10
174.15723
  20
305.5368
  0
VERTEX
  5
72e
  8
Layer_1
  10
174.11617
  20
306.1246
  42
0.01556969
  0
VERTEX
  5
72f
  8
Layer_1
  10
173.94025
  20
307.39453
  0
VERTEX
  5
730
  8
Layer_1
  10
173.79349
  20
307.73145
  0
VERTEX
  5
731
  8
Layer_1
  10
173.6102
  20
308.04131
  0
VERTEX
  5
732
  8
Layer_1
  10
173.3733
  20
308.29965
  0
VERTEX
  5
733
  8
Layer_1
  10
173.10178
  20
308.53234
  0
VERTEX
  5
734
  8
Layer_1
  10
172.77064
  20
308.70704
  0
VERTEX
  5
735
  8
Layer_1
  10
172.42848
  20
308.84368
  0
VERTEX
  5
736
  8
Layer_1
  10
172.02306
  20
308.92145
  0
VERTEX
  5
737
  8
Layer_1
  10
171.60379
  20
308.95135
  0
VERTEX
  5
738
  8
Layer_1
  10
171.36889
  20
308.93887
  0
VERTEX
  5
739
  8
Layer_1
  10
171.13663
  20
308.9185
  0
VERTEX
  5
73a
  8
Layer_1
  10
170.90965
  20
308.88236
  0
VERTEX
  5
73b
  8
Layer_1
  10
170.69059
  20
308.82256
  0
VERTEX
  5
73c
  8
Layer_1
  10
170.32189
  20
308.64799
  0
VERTEX
  5
73d
  8
Layer_1
  10
169.97004
  20
308.42309
  0
VERTEX
  5
73e
  8
Layer_1
  10
169.69201
  20
308.11203
  0
VERTEX
  5
73f
  8
Layer_1
  10
169.45935
  20
307.77667
  0
VERTEX
  5
740
  8
Layer_1
  10
169.36398
  20
307.57238
  0
VERTEX
  5
741
  8
Layer_1
  10
169.28957
  20
307.35686
  0
VERTEX
  5
742
  8
Layer_1
  10
169.22915
  20
307.13384
  0
VERTEX
  5
743
  8
Layer_1
  10
169.17572
  20
306.90707
  42
0.0054254483
  0
VERTEX
  5
744
  8
Layer_1
  10
169.11818
  20
305.92517
  42
0.010832598
  0
VERTEX
  5
745
  8
Layer_1
  10
169.08835
  20
303.96078
  0
VERTEX
  5
746
  8
Layer_1
  10
169.06787
  20
300.80942
  0
SEQEND
  0
POLYLINE
  5
748
  8
Layer_1
  62
5
  70
1
  66
1
  10
0
  20
0
  30
0
  0
VERTEX
  5
748
  8
Layer_1
  10
175.86508
  20
339.06072
  0
VERTEX
  5
749
  8
Layer_1
  10
176.6478
  20
339.02765
  0
VERTEX
  5
74a
  8
Layer_1
  10
177.42158
  20
338.96712
  0
VERTEX
  5
74b
  8
Layer_1
  10
178.17746
  20
338.85167
  0
VERTEX
  5
74c
  8
Layer_1
  10
178.90649
  20
338.65383
  0
VERTEX
  5
74d
  8
Layer_1
  10
179.46838
  20
338.42199
  0
VERTEX
  5
74e
  8
Layer_1
  10
180.01294
  20
338.137
  0
VERTEX
  5
74f
  8
Layer_1
  10
180.54595
  20
337.81657
  0
VERTEX
  5
750
  8
Layer_1
  10
181.07318
  20
337.47842
  0
VERTEX
  5
751
  8
Layer_1
  10
181.44754
  20
337.05722
  0
VERTEX
  5
752
  8
Layer_1
  10
181.80147
  20
336.62716
  0
VERTEX
  5
753
  8
Layer_1
  10
182.11452
  20
336.17936
  0
VERTEX
  5
754
  8
Layer_1
  10
182.36625
  20
335.70495
  0
VERTEX
  5
755
  8
Layer_1
  10
182.54595
  20
335.18707
  0
VERTEX
  5
756
  8
Layer_1
  10
182.66174
  20
334.64146
  0
VERTEX
  5
757
  8
Layer_1
  10
182.73493
  20
334.07737
  0
VERTEX
  5
758
  8
Layer_1
  10
182.78681
  20
333.50402
  0
VERTEX
  5
759
  8
Layer_1
  10
182.72642
  20
332.9302
  0
VERTEX
  5
75a
  8
Layer_1
  10
182.64493
  20
332.36586
  0
VERTEX
  5
75b
  8
Layer_1
  10
182.52123
  20
331.82051
  0
VERTEX
  5
75c
  8
Layer_1
  10
182.33423
  20
331.30365
  0
VERTEX
  5
75d
  8
Layer_1
  10
182.07433
  20
330.82844
  0
VERTEX
  5
75e
  8
Layer_1
  10
181.75299
  20
330.38089
  0
VERTEX
  5
75f
  8
Layer_1
  10
181.39068
  20
329.95176
  0
VERTEX
  5
760
  8
Layer_1
  10
181.00789
  20
329.53186
  0
VERTEX
  5
761
  8
Layer_1
  10
180.47935
  20
329.19601
  0
VERTEX
  5
762
  8
Layer_1
  10
179.94506
  20
328.87823
  0
VERTEX
  5
763
  8
Layer_1
  10
179.39927
  20
328.59663
  0
VERTEX
  5
764
  8
Layer_1
  10
178.83623
  20
328.36929
  0
VERTEX
  5
765
  8
Layer_1
  10
178.11919
  20
328.18146
  0
VERTEX
  5
766
  8
Layer_1
  10
177.37637
  20
328.07474
  0
VERTEX
  5
767
  8
Layer_1
  10
176.61635
  20
328.02209
  0
VERTEX
  5
768
  8
Layer_1
  10
175.84773
  20
327.99648
  0
VERTEX
  5
769
  8
Layer_1
  10
175.072
  20
328.0287
  0
VERTEX
  5
76a
  8
Layer_1
  10
174.30514
  20
328.08818
  0
VERTEX
  5
76b
  8
Layer_1
  10
173.55604
  20
328.20222
  0
VERTEX
  5
76c
  8
Layer_1
  10
172.83356
  20
328.3981
  0
VERTEX
  5
76d
  8
Layer_1
  10
172.27879
  20
328.6269
  0
VERTEX
  5
76e
  8
Layer_1
  10
171.74107
  20
328.90814
  0
VERTEX
  5
76f
  8
Layer_1
  10
171.21472
  20
329.22432
  0
VERTEX
  5
770
  8
Layer_1
  10
170.69406
  20
329.55798
  0
VERTEX
  5
771
  8
Layer_1
  10
170.32567
  20
329.98128
  0
VERTEX
  5
772
  8
Layer_1
  10
169.97738
  20
330.41311
  0
VERTEX
  5
773
  8
Layer_1
  10
169.66929
  20
330.86198
  0
VERTEX
  5
774
  8
Layer_1
  10
169.42149
  20
331.33642
  0
VERTEX
  5
775
  8
Layer_1
  10
169.24069
  20
331.86786
  0
VERTEX
  5
776
  8
Layer_1
  10
169.12628
  20
332.42746
  0
VERTEX
  5
777
  8
Layer_1
  10
169.05614
  20
333.00583
  0
VERTEX
  5
778
  8
Layer_1
  10
169.00812
  20
333.59359
  0
VERTEX
  5
779
  8
Layer_1
  10
169.06237
  20
334.17934
  0
VERTEX
  5
77a
  8
Layer_1
  10
169.13867
  20
334.75544
  0
VERTEX
  5
77b
  8
Layer_1
  10
169.25908
  20
335.31225
  0
VERTEX
  5
77c
  8
Layer_1
  10
169.44565
  20
335.84011
  0
VERTEX
  5
77d
  8
Layer_1
  10
169.69659
  20
336.30697
  0
VERTEX
  5
77e
  8
Layer_1
  10
170.00676
  20
336.74791
  0
VERTEX
  5
77f
  8
Layer_1
  10
170.3564
  20
337.17157
  0
VERTEX
  5
780
  8
Layer_1
  10
170.72578
  20
337.5866
  0
VERTEX
  5
781
  8
Layer_1
  10
171.24629
  20
337.90903
  0
VERTEX
  5
782
  8
Layer_1
  10
171.77214
  20
338.21416
  0
VERTEX
  5
783
  8
Layer_1
  10
172.30871
  20
338.48471
  0
VERTEX
  5
784
  8
Layer_1
  10
172.86133
  20
338.70336
  0
VERTEX
  5
785
  8
Layer_1
  10
173.58275
  20
338.88808
  0
VERTEX
  5
786
  8
Layer_1
  10
174.32947
  20
338.99105
  0
VERTEX
  5
787
  8
Layer_1
  10
175.09306
  20
339.03952
  0
SEQEND
  0
POLYLINE
  5
789
  8
Layer_1
  62
5
  70
1
  66
1
  10
0
  20
0
  30
0
  0
VERTEX
  5
789
  8
Layer_1
  10
70.272949
  20
236.53618
  0
VERTEX
  5
78a
  8
Layer_1
  10
77.678116
  20
233.79036
  0
VERTEX
  5
78b
  8
Layer_1
  10
77.710938
  20
239.2473
  0
SEQEND
  0
POLYLINE
  5
78d
  8
Layer_1
  62
5
  70
1
  66
1
  10
0
  20
0
  30
0
  0
VERTEX
  5
78d
  8
Layer_1
  10
74.388153
  20
290.16859
  0
VERTEX
  5
78e
  8
Layer_1
  10
74.406128
  20
293.15627
  0
VERTEX
  5
78f
  8
Layer_1
  10
74.415437
  20
293.74806
  0
VERTEX
  5
790
  8
Layer_1
  10
74.4163
  20
294.33918
  0
VERTEX
  5
791
  8
Layer_1
  10
74.400281
  20
294.92897
  0
VERTEX
  5
792
  8
Layer_1
  10
74.358937
  20
295.51675
  42
0.015568085
  0
VERTEX
  5
793
  8
Layer_1
  10
74.182388
  20
296.78659
  0
VERTEX
  5
794
  8
Layer_1
  10
74.035467
  20
297.12344
  0
VERTEX
  5
795
  8
Layer_1
  10
73.852024
  20
297.43321
  0
VERTEX
  5
796
  8
Layer_1
  10
73.615002
  20
297.69143
  0
VERTEX
  5
797
  8
Layer_1
  10
73.343372
  20
297.92399
  0
VERTEX
  5
798
  8
Layer_1
  10
73.012148
  20
298.09854
  0
VERTEX
  5
799
  8
Layer_1
  10
72.669926
  20
298.23502
  0
VERTEX
  5
79a
  8
Layer_1
  10
72.264463
  20
298.31258
  0
VERTEX
  5
79b
  8
Layer_1
  10
71.845188
  20
298.34229
  0
VERTEX
  5
79c
  8
Layer_1
  10
71.610292
  20
298.3297
  0
VERTEX
  5
79d
  8
Layer_1
  10
71.37804
  20
298.30922
  0
VERTEX
  5
79e
  8
Layer_1
  10
71.151075
  20
298.27297
  0
VERTEX
  5
79f
  8
Layer_1
  10
70.932041
  20
298.21308
  0
VERTEX
  5
7a0
  8
Layer_1
  10
70.563419
  20
298.03831
  0
VERTEX
  5
7a1
  8
Layer_1
  10
70.211689
  20
297.81321
  0
VERTEX
  5
7a2
  8
Layer_1
  10
69.933813
  20
297.50203
  0
VERTEX
  5
7a3
  8
Layer_1
  10
69.701313
  20
297.16654
  0
VERTEX
  5
7a4
  8
Layer_1
  10
69.606041
  20
296.96222
  0
VERTEX
  5
7a5
  8
Layer_1
  10
69.531742
  20
296.74666
  0
VERTEX
  5
7a6
  8
Layer_1
  10
69.471429
  20
296.52361
  0
VERTEX
  5
7a7
  8
Layer_1
  10
69.41811
  20
296.29682
  42
0.0054248768
  0
VERTEX
  5
7a8
  8
Layer_1
  10
69.361038
  20
295.31488
  42
0.010835035
  0
VERTEX
  5
7a9
  8
Layer_1
  10
69.332169
  20
293.35048
  0
VERTEX
  5
7aa
  8
Layer_1
  10
69.313217
  20
290.1991
  0
SEQEND
  0
POLYLINE
  5
7ac
  8
Layer_1
  62
5
  70
1
  66
1
  10
0
  20
0
  30
0
  0
VERTEX
  5
7ac
  8
Layer_1
  10
76.091811
  20
328.45374
  0
VERTEX
  5
7ad
  8
Layer_1
  10
76.874551
  20
328.42104
  0
VERTEX
  5
7ae
  8
Layer_1
  10
77.648358
  20
328.36088
  0
VERTEX
  5
7af
  8
Layer_1
  10
78.404298
  20
328.2458
  0
VERTEX
  5
7b0
  8
Layer_1
  10
79.133437
  20
328.04832
  0
VERTEX
  5
7b1
  8
Layer_1
  10
79.695427
  20
327.81676
  0
VERTEX
  5
7b2
  8
Layer_1
  10
80.240123
  20
327.53203
  0
VERTEX
  5
7b3
  8
Layer_1
  10
80.773288
  20
327.21184
  0
VERTEX
  5
7b4
  8
Layer_1
  10
81.300689
  20
326.87394
  0
VERTEX
  5
7b5
  8
Layer_1
  10
81.675258
  20
326.45293
  0
VERTEX
  5
7b6
  8
Layer_1
  10
82.029391
  20
326.02304
  0
VERTEX
  5
7b7
  8
Layer_1
  10
82.342658
  20
325.5754
  0
VERTEX
  5
7b8
  8
Layer_1
  10
82.594627
  20
325.10111
  0
VERTEX
  5
7b9
  8
Layer_1
  10
82.774572
  20
324.58333
  0
VERTEX
  5
7ba
  8
Layer_1
  10
82.890629
  20
324.03778
  0
VERTEX
  5
7bb
  8
Layer_1
  10
82.964093
  20
323.47372
  0
VERTEX
  5
7bc
  8
Layer_1
  10
83.016258
  20
322.9004
  0
VERTEX
  5
7bd
  8
Layer_1
  10
82.956144
  20
322.32653
  0
VERTEX
  5
7be
  8
Layer_1
  10
82.874924
  20
321.76215
  0
VERTEX
  5
7bf
  8
Layer_1
  10
82.751492
  20
321.21674
  0
VERTEX
  5
7c0
  8
Layer_1
  10
82.564743
  20
320.69978
  0
VERTEX
  5
7c1
  8
Layer_1
  10
82.305081
  20
320.22446
  0
VERTEX
  5
7c2
  8
Layer_1
  10
81.983955
  20
319.77676
  0
VERTEX
  5
7c3
  8
Layer_1
  10
81.621851
  20
319.34747
  0
VERTEX
  5
7c4
  8
Layer_1
  10
81.239258
  20
318.92738
  0
VERTEX
  5
7c5
  8
Layer_1
  10
80.710886
  20
318.59126
  0
VERTEX
  5
7c6
  8
Layer_1
  10
80.176754
  20
318.27322
  0
VERTEX
  5
7c7
  8
Layer_1
  10
79.631104
  20
317.99136
  0
VERTEX
  5
7c8
  8
Layer_1
  10
79.068177
  20
317.76374
  0
VERTEX
  5
7c9
  8
Layer_1
  10
78.351226
  20
317.57555
  0
VERTEX
  5
7ca
  8
Layer_1
  10
77.608449
  20
317.46846
  0
VERTEX
  5
7cb
  8
Layer_1
  10
76.848454
  20
317.41545
  0
VERTEX
  5
7cc
  8
Layer_1
  10
76.07985
  20
317.38947
  0
VERTEX
  5
7cd
  8
Layer_1
  10
75.304102
  20
317.4213
  0
VERTEX
  5
7ce
  8
Layer_1
  10
74.537217
  20
317.48042
  0
VERTEX
  5
7cf
  8
Layer_1
  10
73.788059
  20
317.59409
  0
VERTEX
  5
7d0
  8
Layer_1
  10
73.065491
  20
317.78962
  0
VERTEX
  5
7d1
  8
Layer_1
  10
72.510606
  20
318.01818
  0
VERTEX
  5
7d2
  8
Layer_1
  10
71.97275
  20
318.29915
  0
VERTEX
  5
7d3
  8
Layer_1
  10
71.44625
  20
318.61507
  0
VERTEX
  5
7d4
  8
Layer_1
  10
70.925431
  20
318.94846
  0
VERTEX
  5
7d5
  8
Layer_1
  10
70.556835
  20
319.3716
  0
VERTEX
  5
7d6
  8
Layer_1
  10
70.208332
  20
319.80325
  0
VERTEX
  5
7d7
  8
Layer_1
  10
69.900015
  20
320.25197
  0
VERTEX
  5
7d8
  8
Layer_1
  10
69.651978
  20
320.7263
  0
VERTEX
  5
7d9
  8
Layer_1
  10
69.470926
  20
321.25764
  0
VERTEX
  5
7da
  8
Layer_1
  10
69.356251
  20
321.81718
  0
VERTEX
  5
7db
  8
Layer_1
  10
69.285824
  20
322.39552
  0
VERTEX
  5
7dc
  8
Layer_1
  10
69.237518
  20
322.98325
  0
VERTEX
  5
7dd
  8
Layer_1
  10
69.291482
  20
323.56903
  0
VERTEX
  5
7de
  8
Layer_1
  10
69.367506
  20
324.14516
  0
VERTEX
  5
7df
  8
Layer_1
  10
69.487643
  20
324.70203
  0
VERTEX
  5
7e0
  8
Layer_1
  10
69.67395
  20
325.22999
  0
VERTEX
  5
7e1
  8
Layer_1
  10
69.924675
  20
325.69695
  0
VERTEX
  5
7e2
  8
Layer_1
  10
70.234628
  20
326.13804
  0
VERTEX
  5
7e3
  8
Layer_1
  10
70.584066
  20
326.56188
  0
VERTEX
  5
7e4
  8
Layer_1
  10
70.953246
  20
326.97709
  0
VERTEX
  5
7e5
  8
Layer_1
  10
71.473589
  20
327.29979
  0
VERTEX
  5
7e6
  8
Layer_1
  10
71.999297
  20
327.60518
  0
VERTEX
  5
7e7
  8
Layer_1
  10
72.535728
  20
327.87599
  0
VERTEX
  5
7e8
  8
Layer_1
  10
73.08824
  20
328.09492
  0
VERTEX
  5
7e9
  8
Layer_1
  10
73.809573
  20
328.27998
  0
VERTEX
  5
7ea
  8
Layer_1
  10
74.556243
  20
328.38331
  0
VERTEX
  5
7eb
  8
Layer_1
  10
75.319804
  20
328.43215
  0
SEQEND
  0
POLYLINE
  5
7ed
  8
Layer_1
  62
5
  70
1
  66
1
  10
0
  20
0
  30
0
  0
VERTEX
  5
7ed
  8
Layer_1
  10
35.668839
  20
281.47841
  0
VERTEX
  5
7ee
  8
Layer_1
  10
44.945786
  20
278.10188
  0
VERTEX
  5
7ef
  8
Layer_1
  10
44.945786
  20
284.92316
  0
SEQEND
  0
POLYLINE
  5
7f1
  8
Layer_0
  62
7
  70
1
  66
1
  10
0
  20
0
  30
0
  0
VERTEX
  5
7f1
  8
Layer_0
  10
222.00002
  20
366.76471
  0
VERTEX
  5
7f2
  8
Layer_0
  10
225.00002
  20
366.76471
  0
VERTEX
  5
7f3
  8
Layer_0
  10
225.00002
  20
346.52942
  0
VERTEX
  5
7f4
  8
Layer_0
  10
222.00002
  20
346.52942
  0
VERTEX
  5
7f5
  8
Layer_0
  10
222.00002
  20
326.29413
  0
VERTEX
  5
7f6
  8
Layer_0
  10
225.00002
  20
326.29413
  0
VERTEX
  5
7f7
  8
Layer_0
  10
225.00002
  20
306.05884
  0
VERTEX
  5
7f8
  8
Layer_0
  10
222.00002
  20
306.05884
  0
VERTEX
  5
7f9
  8
Layer_0
  10
222.00002
  20
285.82353
  0
VERTEX
  5
7fa
  8
Layer_0
  10
225.00002
  20
285.82353
  0
VERTEX
  5
7fb
  8
Layer_0
  10
225
  20
265.58824
  0
VERTEX
  5
7fc
  8
Layer_0
  10
222
  20
265.58824
  0
VERTEX
  5
7fd
  8
Layer_0
  10
222
  20
245.35294
  0
VERTEX
  5
7fe
  8
Layer_0
  10
225
  20
245.35294
  0
VERTEX
  5
7ff
  8
Layer_0
  10
225
  20
225.11765
  0
VERTEX
  5
800
  8
Layer_0
  10
222
  20
225.11765
  0
VERTEX
  5
801
  8
Layer_0
  10
222
  20
204.88235
  0
VERTEX
  5
802
  8
Layer_0
  10
225
  20
204.88235
  0
VERTEX
  5
803
  8
Layer_0
  10
225
  20
184.64706
  0
VERTEX
  5
804
  8
Layer_0
  10
222
  20
184.64706
  0
VERTEX
  5
805
  8
Layer_0
  10
221.99998
  20
164.41177
  0
VERTEX
  5
806
  8
Layer_0
  10
224.99998
  20
164.41177
  0
VERTEX
  5
807
  8
Layer_0
  10
224.99998
  20
144.17647
  0
VERTEX
  5
808
  8
Layer_0
  10
221.99998
  20
144.17647
  0
VERTEX
  5
809
  8
Layer_0
  10
221.99998
  20
123.94116
  0
VERTEX
  5
80a
  8
Layer_0
  10
224.99998
  20
123.94116
  0
VERTEX
  5
80b
  8
Layer_0
  10
224.99998
  20
103.70587
  0
VERTEX
  5
80c
  8
Layer_0
  10
221.99998
  20
103.70587
  0
VERTEX
  5
80d
  8
Layer_0
  10
221.99997
  20
83.470581
  0
VERTEX
  5
80e
  8
Layer_0
  10
224.99997
  20
83.470581
  0
VERTEX
  5
80f
  8
Layer_0
  10
224.99997
  20
63.235291
  0
VERTEX
  5
810
  8
Layer_0
  10
221.99997
  20
63.235291
  0
VERTEX
  5
811
  8
Layer_0
  10
221.99997
  20
40
  0
VERTEX
  5
812
  8
Layer_0
  10
244.2222
  20
40
  0
VERTEX
  5
813
  8
Layer_0
  10
244.2222
  20
43
  0
VERTEX
  5
814
  8
Layer_0
  10
266.4444
  20
43
  0
VERTEX
  5
815
  8
Layer_0
  10
266.4444
  20
40
  0
VERTEX
  5
816
  8
Layer_0
  10
288.66663
  20
40
  0
VERTEX
  5
817
  8
Layer_0
  10
288.66663
  20
43
  0
VERTEX
  5
818
  8
Layer_0
  10
310.88885
  20
43
  0
VERTEX
  5
819
  8
Layer_0
  10
310.88885
  20
40
  0
VERTEX
  5
81a
  8
Layer_0
  10
333.11108
  20
39.999969
  0
VERTEX
  5
81b
  8
Layer_0
  10
333.11108
  20
42.999969
  0
VERTEX
  5
81c
  8
Layer_0
  10
355.33331
  20
42.999969
  0
VERTEX
  5
81d
  8
Layer_0
  10
355.33331
  20
39.999969
  0
VERTEX
  5
81e
  8
Layer_0
  10
377.55554
  20
39.999969
  0
VERTEX
  5
81f
  8
Layer_0
  10
377.55554
  20
42.999969
  0
VERTEX
  5
820
  8
Layer_0
  10
399.77774
  20
42.999969
  0
VERTEX
  5
821
  8
Layer_0
  10
399.77774
  20
39.999969
  0
VERTEX
  5
822
  8
Layer_0
  10
421.99997
  20
39.999969
  0
VERTEX
  5
823
  8
Layer_0
  10
421.99997
  20
63.23526
  0
VERTEX
  5
824
  8
Layer_0
  10
418.99997
  20
63.23526
  0
VERTEX
  5
825
  8
Layer_0
  10
418.99997
  20
83.470551
  0
VERTEX
  5
826
  8
Layer_0
  10
421.99997
  20
83.470551
  0
VERTEX
  5
827
  8
Layer_0
  10
422
  20
103.70584
  0
VERTEX
  5
828
  8
Layer_0
  10
419
  20
103.70584
  0
VERTEX
  5
829
  8
Layer_0
  10
419
  20
123.94116
  0
VERTEX
  5
82a
  8
Layer_0
  10
422
  20
123.94116
  0
VERTEX
  5
82b
  8
Layer_0
  10
422
  20
144.17644
  0
VERTEX
  5
82c
  8
Layer_0
  10
419
  20
144.17644
  0
VERTEX
  5
82d
  8
Layer_0
  10
419
  20
164.41174
  0
VERTEX
  5
82e
  8
Layer_0
  10
422
  20
164.41174
  0
VERTEX
  5
82f
  8
Layer_0
  10
422
  20
184.64703
  0
VERTEX
  5
830
  8
Layer_0
  10
419
  20
184.64703
  0
VERTEX
  5
831
  8
Layer_0
  10
419
  20
204.88232
  0
VERTEX
  5
832
  8
Layer_0
  10
422
  20
204.88232
  0
VERTEX
  5
833
  8
Layer_0
  10
422
  20
225.11761
  0
VERTEX
  5
834
  8
Layer_0
  10
419
  20
225.11761
  0
VERTEX
  5
835
  8
Layer_0
  10
419
  20
245.35291
  0
VERTEX
  5
836
  8
Layer_0
  10
422
  20
245.35291
  0
VERTEX
  5
837
  8
Layer_0
  10
422
  20
265.58821
  0
VERTEX
  5
838
  8
Layer_0
  10
419
  20
265.58821
  0
VERTEX
  5
839
  8
Layer_0
  10
419
  20
285.8235
  0
VERTEX
  5
83a
  8
Layer_0
  10
422
  20
285.8235
  0
VERTEX
  5
83b
  8
Layer_0
  10
422
  20
306.05881
  0
VERTEX
  5
83c
  8
Layer_0
  10
419
  20
306.05881
  0
VERTEX
  5
83d
  8
Layer_0
  10
419
  20
326.2941
  0
VERTEX
  5
83e
  8
Layer_0
  10
422
  20
326.2941
  0
VERTEX
  5
83f
  8
Layer_0
  10
422
  20
346.52939
  0
VERTEX
  5
840
  8
Layer_0
  10
419
  20
346.52939
  0
VERTEX
  5
841
  8
Layer_0
  10
419
  20
366.76468
  0
VERTEX
  5
842
  8
Layer_0
  10
422
  20
366.76468
  0
VERTEX
  5
843
  8
Layer_0
  10
422.00003
  20
389.99997
  0
VERTEX
  5
844
  8
Layer_0
  10
399.7778
  20
389.99997
  0
VERTEX
  5
845
  8
Layer_0
  10
399.7778
  20
386.99997
  0
VERTEX
  5
846
  8
Layer_0
  10
377.5556
  20
386.99997
  0
VERTEX
  5
847
  8
Layer_0
  10
377.5556
  20
389.99997
  0
VERTEX
  5
848
  8
Layer_0
  10
355.33337
  20
389.99997
  0
VERTEX
  5
849
  8
Layer_0
  10
355.33337
  20
386.99997
  0
VERTEX
  5
84a
  8
Layer_0
  10
333.11115
  20
386.99997
  0
VERTEX
  5
84b
  8
Layer_0
  10
333.11115
  20
389.99997
  0
VERTEX
  5
84c
  8
Layer_0
  10
310.88892
  20
390
  0
VERTEX
  5
84d
  8
Layer_0
  10
310.88892
  20
387
  0
VERTEX
  5
84e
  8
Layer_0
  10
288.66669
  20
387
  0
VERTEX
  5
84f
  8
Layer_0
  10
288.66669
  20
390
  0
VERTEX
  5
850
  8
Layer_0
  10
266.44446
  20
390
  0
VERTEX
  5
851
  8
Layer_0
  10
266.44446
  20
387
  0
VERTEX
  5
852
  8
Layer_0
  10
244.22224
  20
387
  0
VERTEX
  5
853
  8
Layer_0
  10
244.22224
  20
390
  0
VERTEX
  5
854
  8
Layer_0
  10
222.00003
  20
390
  0
SEQEND
  0
POLYLINE
  5
856
  8
Layer_1
  62
5
  70
1
  66
1
  10
0
  20
0
  30
0
  0
VERTEX
  5
856
  8
Layer_1
  10
446.00003
  20
58.5
  0
VERTEX
  5
857
  8
Layer_1
  10
446.00003
  20
48.5
  0
VERTEX
  5
858
  8
Layer_1
  10
443.00003
  20
48.5
  0
VERTEX
  5
859
  8
Layer_1
  10
443.00003
  20
58.5
  0
SEQEND
  0
POLYLINE
  5
85b
  8
Layer_1
  62
5
  70
1
  66
1
  10
0
  20
0
  30
0
  0
VERTEX
  5
85b
  8
Layer_1
  10
445.99997
  20
382.5
  0
VERTEX
  5
85c
  8
Layer_1
  10
445.99997
  20
372.5
  0
VERTEX
  5
85d
  8
Layer_1
  10
442.99997
  20
372.5
  0
VERTEX
  5
85e
  8
Layer_1
  10
442.99997
  20
382.5
  0
SEQEND
  0
POLYLINE
  5
860
  8
Layer_0
  62
7
  70
1
  66
1
  10
0
  20
0
  30
0
  0
VERTEX
  5
860
  8
Layer_0
  10
462.99997
  20
367.26471
  0
VERTEX
  5
861
  8
Layer_0
  10
459.99997
  20
367.26471
  0
VERTEX
  5
862
  8
Layer_0
  10
459.99997
  20
387.5
  0
VERTEX
  5
863
  8
Layer_0
  10
451.49997
  20
387.5
  0
VERTEX
  5
864
  8
Layer_0
  10
451.49997
  20
390.5
  0
VERTEX
  5
865
  8
Layer_0
  10
439.99997
  20
390.5
  0
VERTEX
  5
866
  8
Layer_0
  10
439.99997
  20
369.91176
  0
VERTEX
  5
867
  8
Layer_0
  10
436.99997
  20
369.91176
  0
VERTEX
  5
868
  8
Layer_0
  10
436.99997
  20
349.32353
  0
VERTEX
  5
869
  8
Layer_0
  10
439.99997
  20
349.32353
  0
VERTEX
  5
86a
  8
Layer_0
  10
439.99997
  20
328.73529
  0
VERTEX
  5
86b
  8
Layer_0
  10
436.99997
  20
328.73529
  0
VERTEX
  5
86c
  8
Layer_0
  10
436.99997
  20
308.14706
  0
VERTEX
  5
86d
  8
Layer_0
  10
439.99997
  20
308.14706
  0
VERTEX
  5
86e
  8
Layer_0
  10
440
  20
287.55882
  0
VERTEX
  5
86f
  8
Layer_0
  10
437
  20
287.55882
  0
VERTEX
  5
870
  8
Layer_0
  10
437
  20
266.97058
  0
VERTEX
  5
871
  8
Layer_0
  10
440
  20
266.97058
  0
VERTEX
  5
872
  8
Layer_0
  10
440
  20
246.38235
  0
VERTEX
  5
873
  8
Layer_0
  10
437
  20
246.38235
  0
VERTEX
  5
874
  8
Layer_0
  10
437
  20
225.79411
  0
VERTEX
  5
875
  8
Layer_0
  10
440
  20
225.79411
  0
VERTEX
  5
876
  8
Layer_0
  10
440
  20
205.20589
  0
VERTEX
  5
877
  8
Layer_0
  10
437
  20
205.20589
  0
VERTEX
  5
878
  8
Layer_0
  10
437
  20
184.61765
  0
VERTEX
  5
879
  8
Layer_0
  10
440
  20
184.61765
  0
VERTEX
  5
87a
  8
Layer_0
  10
440
  20
164.02942
  0
VERTEX
  5
87b
  8
Layer_0
  10
437
  20
164.02942
  0
VERTEX
  5
87c
  8
Layer_0
  10
437
  20
143.44116
  0
VERTEX
  5
87d
  8
Layer_0
  10
440
  20
143.44116
  0
VERTEX
  5
87e
  8
Layer_0
  10
440
  20
122.85294
  0
VERTEX
  5
87f
  8
Layer_0
  10
437
  20
122.85294
  0
VERTEX
  5
880
  8
Layer_0
  10
437.00003
  20
102.26471
  0
VERTEX
  5
881
  8
Layer_0
  10
440.00003
  20
102.26471
  0
VERTEX
  5
882
  8
Layer_0
  10
440.00003
  20
81.676483
  0
VERTEX
  5
883
  8
Layer_0
  10
437.00003
  20
81.676483
  0
VERTEX
  5
884
  8
Layer_0
  10
437.00003
  20
61.088226
  0
VERTEX
  5
885
  8
Layer_0
  10
440.00003
  20
61.088226
  0
VERTEX
  5
886
  8
Layer_0
  10
440.00003
  20
40.5
  0
VERTEX
  5
887
  8
Layer_0
  10
451.50003
  20
40.5
  0
VERTEX
  5
888
  8
Layer_0
  10
451.50003
  20
43.5
  0
VERTEX
  5
889
  8
Layer_0
  10
460.00003
  20
43.5
  0
VERTEX
  5
88a
  8
Layer_0
  10
460.00003
  20
63.735291
  0
VERTEX
  5
88b
  8
Layer_0
  10
463.00003
  20
63.735291
  0
VERTEX
  5
88c
  8
Layer_0
  10
463.00003
  20
83.970581
  0
VERTEX
  5
88d
  8
Layer_0
  10
460.00003
  20
83.970581
  0
VERTEX
  5
88e
  8
Layer_0
  10
460
  20
104.20587
  0
VERTEX
  5
88f
  8
Layer_0
  10
463
  20
104.20587
  0
VERTEX
  5
890
  8
Layer_0
  10
463
  20
124.44116
  0
VERTEX
  5
891
  8
Layer_0
  10
460
  20
124.44116
  0
VERTEX
  5
892
  8
Layer_0
  10
460
  20
144.67647
  0
VERTEX
  5
893
  8
Layer_0
  10
463
  20
144.67647
  0
VERTEX
  5
894
  8
Layer_0
  10
463
  20
164.91176
  0
VERTEX
  5
895
  8
Layer_0
  10
460
  20
164.91176
  0
VERTEX
  5
896
  8
Layer_0
  10
460
  20
185.14706
  0
VERTEX
  5
897
  8
Layer_0
  10
463
  20
185.14706
  0
VERTEX
  5
898
  8
Layer_0
  10
463
  20
205.38235
  0
VERTEX
  5
899
  8
Layer_0
  10
460
  20
205.38235
  0
VERTEX
  5
89a
  8
Layer_0
  10
460
  20
225.61765
  0
VERTEX
  5
89b
  8
Layer_0
  10
463
  20
225.61765
  0
VERTEX
  5
89c
  8
Layer_0
  10
463
  20
245.85294
  0
VERTEX
  5
89d
  8
Layer_0
  10
460
  20
245.85294
  0
VERTEX
  5
89e
  8
Layer_0
  10
460
  20
266.08823
  0
VERTEX
  5
89f
  8
Layer_0
  10
463
  20
266.08823
  0
VERTEX
  5
8a0
  8
Layer_0
  10
463
  20
286.32354
  0
VERTEX
  5
8a1
  8
Layer_0
  10
460
  20
286.32353
  0
VERTEX
  5
8a2
  8
Layer_0
  10
459.99997
  20
306.55882
  0
VERTEX
  5
8a3
  8
Layer_0
  10
462.99997
  20
306.55883
  0
VERTEX
  5
8a4
  8
Layer_0
  10
462.99997
  20
326.79412
  0
VERTEX
  5
8a5
  8
Layer_0
  10
459.99997
  20
326.79412
  0
VERTEX
  5
8a6
  8
Layer_0
  10
459.99997
  20
347.02942
  0
VERTEX
  5
8a7
  8
Layer_0
  10
462.99997
  20
347.02942
  0
SEQEND
  0
POLYLINE
  5
8a9
  8
Layer_1
  62
5
  70
1
  66
1
  10
0
  20
0
  30
0
  0
VERTEX
  5
8a9
  8
Layer_1
  10
482.00003
  20
59.5
  0
VERTEX
  5
8aa
  8
Layer_1
  10
482.00003
  20
49.5
  0
VERTEX
  5
8ab
  8
Layer_1
  10
479.00003
  20
49.5
  0
VERTEX
  5
8ac
  8
Layer_1
  10
479.00003
  20
59.5
  0
SEQEND
  0
POLYLINE
  5
8ae
  8
Layer_1
  62
5
  70
1
  66
1
  10
0
  20
0
  30
0
  0
VERTEX
  5
8ae
  8
Layer_1
  10
481.99997
  20
383.5
  0
VERTEX
  5
8af
  8
Layer_1
  10
481.99997
  20
373.5
  0
VERTEX
  5
8b0
  8
Layer_1
  10
478.99997
  20
373.5
  0
VERTEX
  5
8b1
  8
Layer_1
  10
478.99997
  20
383.5
  0
SEQEND
  0
POLYLINE
  5
8b3
  8
Layer_0
  62
7
  70
1
  66
1
  10
0
  20
0
  30
0
  0
VERTEX
  5
8b3
  8
Layer_0
  10
498.99997
  20
368.26471
  0
VERTEX
  5
8b4
  8
Layer_0
  10
495.99997
  20
368.26471
  0
VERTEX
  5
8b5
  8
Layer_0
  10
495.99997
  20
388.5
  0
VERTEX
  5
8b6
  8
Layer_0
  10
487.49997
  20
388.5
  0
VERTEX
  5
8b7
  8
Layer_0
  10
487.49997
  20
391.5
  0
VERTEX
  5
8b8
  8
Layer_0
  10
475.99997
  20
391.5
  0
VERTEX
  5
8b9
  8
Layer_0
  10
475.99997
  20
370.91177
  0
VERTEX
  5
8ba
  8
Layer_0
  10
472.99997
  20
370.91177
  0
VERTEX
  5
8bb
  8
Layer_0
  10
472.99997
  20
350.32352
  0
VERTEX
  5
8bc
  8
Layer_0
  10
475.99997
  20
350.32352
  0
VERTEX
  5
8bd
  8
Layer_0
  10
475.99997
  20
329.73529
  0
VERTEX
  5
8be
  8
Layer_0
  10
472.99997
  20
329.73529
  0
VERTEX
  5
8bf
  8
Layer_0
  10
473
  20
309.14706
  0
VERTEX
  5
8c0
  8
Layer_0
  10
476
  20
309.14706
  0
VERTEX
  5
8c1
  8
Layer_0
  10
476
  20
288.55882
  0
VERTEX
  5
8c2
  8
Layer_0
  10
473
  20
288.55882
  0
VERTEX
  5
8c3
  8
Layer_0
  10
473
  20
267.97058
  0
VERTEX
  5
8c4
  8
Layer_0
  10
476
  20
267.97058
  0
VERTEX
  5
8c5
  8
Layer_0
  10
476
  20
247.38235
  0
VERTEX
  5
8c6
  8
Layer_0
  10
473
  20
247.38235
  0
VERTEX
  5
8c7
  8
Layer_0
  10
473
  20
226.79411
  0
VERTEX
  5
8c8
  8
Layer_0
  10
476
  20
226.79411
  0
VERTEX
  5
8c9
  8
Layer_0
  10
476
  20
206.20589
  0
VERTEX
  5
8ca
  8
Layer_0
  10
473
  20
206.20589
  0
VERTEX
  5
8cb
  8
Layer_0
  10
473
  20
185.61765
  0
VERTEX
  5
8cc
  8
Layer_0
  10
476
  20
185.61765
  0
VERTEX
  5
8cd
  8
Layer_0
  10
476
  20
165.02942
  0
VERTEX
  5
8ce
  8
Layer_0
  10
473
  20
165.02942
  0
VERTEX
  5
8cf
  8
Layer_0
  10
473
  20
144.44118
  0
VERTEX
  5
8d0
  8
Layer_0
  10
476
  20
144.44118
  0
VERTEX
  5
8d1
  8
Layer_0
  10
476.00003
  20
123.85294
  0
VERTEX
  5
8d2
  8
Layer_0
  10
473.00003
  20
123.85294
  0
VERTEX
  5
8d3
  8
Layer_0
  10
473.00003
  20
103.26471
  0
VERTEX
  5
8d4
  8
Layer_0
  10
476.00003
  20
103.26471
  0
VERTEX
  5
8d5
  8
Layer_0
  10
476.00003
  20
82.676483
  0
VERTEX
  5
8d6
  8
Layer_0
  10
473.00003
  20
82.676483
  0
VERTEX
  5
8d7
  8
Layer_0
  10
473.00003
  20
62.088226
  0
VERTEX
  5
8d8
  8
Layer_0
  10
476.00003
  20
62.088226
  0
VERTEX
  5
8d9
  8
Layer_0
  10
476.00003
  20
41.5
  0
VERTEX
  5
8da
  8
Layer_0
  10
487.50003
  20
41.5
  0
VERTEX
  5
8db
  8
Layer_0
  10
487.50003
  20
44.5
  0
VERTEX
  5
8dc
  8
Layer_0
  10
496.00003
  20
44.5
  0
VERTEX
  5
8dd
  8
Layer_0
  10
496.00003
  20
64.735291
  0
VERTEX
  5
8de
  8
Layer_0
  10
499.00003
  20
64.735291
  0
VERTEX
  5
8df
  8
Layer_0
  10
499.00003
  20
84.970581
  0
VERTEX
  5
8e0
  8
Layer_0
  10
496.00003
  20
84.970581
  0
VERTEX
  5
8e1
  8
Layer_0
  10
496.00003
  20
105.20587
  0
VERTEX
  5
8e2
  8
Layer_0
  10
499.00003
  20
105.20587
  0
VERTEX
  5
8e3
  8
Layer_0
  10
499.00003
  20
125.44119
  0
VERTEX
  5
8e4
  8
Layer_0
  10
496.00003
  20
125.44116
  0
VERTEX
  5
8e5
  8
Layer_0
  10
496
  20
145.67647
  0
VERTEX
  5
8e6
  8
Layer_0
  10
499
  20
145.67648
  0
VERTEX
  5
8e7
  8
Layer_0
  10
499
  20
165.91177
  0
VERTEX
  5
8e8
  8
Layer_0
  10
496
  20
165.91177
  0
VERTEX
  5
8e9
  8
Layer_0
  10
496
  20
186.14706
  0
VERTEX
  5
8ea
  8
Layer_0
  10
499
  20
186.14706
  0
VERTEX
  5
8eb
  8
Layer_0
  10
499
  20
206.38235
  0
VERTEX
  5
8ec
  8
Layer_0
  10
496
  20
206.38235
  0
VERTEX
  5
8ed
  8
Layer_0
  10
496
  20
226.61765
  0
VERTEX
  5
8ee
  8
Layer_0
  10
499
  20
226.61765
  0
VERTEX
  5
8ef
  8
Layer_0
  10
499
  20
246.85294
  0
VERTEX
  5
8f0
  8
Layer_0
  10
496
  20
246.85294
  0
VERTEX
  5
8f1
  8
Layer_0
  10
496
  20
267.08824
  0
VERTEX
  5
8f2
  8
Layer_0
  10
499
  20
267.08824
  0
VERTEX
  5
8f3
  8
Layer_0
  10
499
  20
287.32353
  0
VERTEX
  5
8f4
  8
Layer_0
  10
496
  20
287.32353
  0
VERTEX
  5
8f5
  8
Layer_0
  10
496
  20
307.55884
  0
VERTEX
  5
8f6
  8
Layer_0
  10
499
  20
307.55884
  0
VERTEX
  5
8f7
  8
Layer_0
  10
499
  20
327.79413
  0
VERTEX
  5
8f8
  8
Layer_0
  10
496
  20
327.79413
  0
VERTEX
  5
8f9
  8
Layer_0
  10
495.99997
  20
348.02942
  0
VERTEX
  5
8fa
  8
Layer_0
  10
498.99997
  20
348.02942
  0
SEQEND
  0
POLYLINE
  5
8fc
  8
Layer_1
  62
5
  70
1
  66
1
  10
0
  20
0
  30
0
  0
VERTEX
  5
8fc
  8
Layer_1
  10
531.53369
  20
371.98193
  0
VERTEX
  5
8fd
  8
Layer_1
  10
531.53369
  20
381.98193
  0
VERTEX
  5
8fe
  8
Layer_1
  10
534.53369
  20
381.98193
  0
VERTEX
  5
8ff
  8
Layer_1
  10
534.53369
  20
371.98193
  0
SEQEND
  0
POLYLINE
  5
901
  8
Layer_1
  62
5
  70
1
  66
1
  10
0
  20
0
  30
0
  0
VERTEX
  5
901
  8
Layer_1
  10
531.53375
  20
197.98193
  0
VERTEX
  5
902
  8
Layer_1
  10
531.53375
  20
207.98193
  0
VERTEX
  5
903
  8
Layer_1
  10
534.53375
  20
207.98193
  0
VERTEX
  5
904
  8
Layer_1
  10
534.53375
  20
197.98193
  0
SEQEND
  0
POLYLINE
  5
906
  8
Layer_0
  62
7
  70
1
  66
1
  10
0
  20
0
  30
0
  0
VERTEX
  5
906
  8
Layer_0
  10
517.53369
  20
389.98193
  0
VERTEX
  5
907
  8
Layer_0
  10
517.53369
  20
367.7597
  0
VERTEX
  5
908
  8
Layer_0
  10
514.53369
  20
367.7597
  0
VERTEX
  5
909
  8
Layer_0
  10
514.53369
  20
345.53748
  0
VERTEX
  5
90a
  8
Layer_0
  10
517.53369
  20
345.53748
  0
VERTEX
  5
90b
  8
Layer_0
  10
517.53369
  20
323.31526
  0
VERTEX
  5
90c
  8
Layer_0
  10
514.53369
  20
323.31526
  0
VERTEX
  5
90d
  8
Layer_0
  10
514.53369
  20
301.09304
  0
VERTEX
  5
90e
  8
Layer_0
  10
517.53369
  20
301.09304
  0
VERTEX
  5
90f
  8
Layer_0
  10
517.53375
  20
278.87082
  0
VERTEX
  5
910
  8
Layer_0
  10
514.53375
  20
278.87082
  0
VERTEX
  5
911
  8
Layer_0
  10
514.53375
  20
256.64859
  0
VERTEX
  5
912
  8
Layer_0
  10
517.53375
  20
256.64861
  0
VERTEX
  5
913
  8
Layer_0
  10
517.53375
  20
234.42638
  0
VERTEX
  5
914
  8
Layer_0
  10
514.53375
  20
234.42636
  0
VERTEX
  5
915
  8
Layer_0
  10
514.53375
  20
212.20415
  0
VERTEX
  5
916
  8
Layer_0
  10
517.53375
  20
212.20416
  0
VERTEX
  5
917
  8
Layer_0
  10
517.53375
  20
189.98193
  0
VERTEX
  5
918
  8
Layer_0
  10
526.03375
  20
189.98193
  0
VERTEX
  5
919
  8
Layer_0
  10
526.03375
  20
192.98193
  0
VERTEX
  5
91a
  8
Layer_0
  10
537.53375
  20
192.98193
  0
VERTEX
  5
91b
  8
Layer_0
  10
537.53375
  20
212.20416
  0
VERTEX
  5
91c
  8
Layer_0
  10
540.53375
  20
212.20416
  0
VERTEX
  5
91d
  8
Layer_0
  10
540.53375
  20
234.42638
  0
VERTEX
  5
91e
  8
Layer_0
  10
537.53375
  20
234.42638
  0
VERTEX
  5
91f
  8
Layer_0
  10
537.53375
  20
256.64861
  0
VERTEX
  5
920
  8
Layer_0
  10
540.53375
  20
256.64861
  0
VERTEX
  5
921
  8
Layer_0
  10
540.53375
  20
278.87083
  0
VERTEX
  5
922
  8
Layer_0
  10
537.53375
  20
278.87083
  0
VERTEX
  5
923
  8
Layer_0
  10
537.53369
  20
301.09305
  0
VERTEX
  5
924
  8
Layer_0
  10
540.53369
  20
301.09305
  0
VERTEX
  5
925
  8
Layer_0
  10
540.53369
  20
323.31527
  0
VERTEX
  5
926
  8
Layer_0
  10
537.53369
  20
323.31527
  0
VERTEX
  5
927
  8
Layer_0
  10
537.53369
  20
345.53749
  0
VERTEX
  5
928
  8
Layer_0
  10
540.53369
  20
345.53749
  0
VERTEX
  5
929
  8
Layer_0
  10
540.53369
  20
367.75971
  0
VERTEX
  5
92a
  8
Layer_0
  10
537.53369
  20
367.75971
  0
VERTEX
  5
92b
  8
Layer_0
  10
537.53369
  20
386.98193
  0
VERTEX
  5
92c
  8
Layer_0
  10
526.03369
  20
386.98193
  0
VERTEX
  5
92d
  8
Layer_0
  10
526.03369
  20
389.98193
  0
SEQEND
  0
POLYLINE
  5
92f
  8
Layer_1
  62
5
  70
1
  66
1
  10
0
  20
0
  30
0
  0
VERTEX
  5
92f
  8
Layer_1
  10
566.46631
  20
196.01807
  0
VERTEX
  5
930
  8
Layer_1
  10
566.46631
  20
206.01807
  0
VERTEX
  5
931
  8
Layer_1
  10
569.46631
  20
206.01807
  0
VERTEX
  5
932
  8
Layer_1
  10
569.46631
  20
196.01807
  0
SEQEND
  0
POLYLINE
  5
934
  8
Layer_1
  62
5
  70
1
  66
1
  10
0
  20
0
  30
0
  0
VERTEX
  5
934
  8
Layer_1
  10
566.46631
  20
370.01807
  0
VERTEX
  5
935
  8
Layer_1
  10
566.46631
  20
380.01807
  0
VERTEX
  5
936
  8
Layer_1
  10
569.46631
  20
380.01807
  0
VERTEX
  5
937
  8
Layer_1
  10
569.46631
  20
370.01807
  0
SEQEND
  0
POLYLINE
  5
939
  8
Layer_0
  62
7
  70
1
  66
1
  10
0
  20
0
  30
0
  0
VERTEX
  5
939
  8
Layer_0
  10
552.46631
  20
388.01807
  0
VERTEX
  5
93a
  8
Layer_0
  10
552.46631
  20
365.79584
  0
VERTEX
  5
93b
  8
Layer_0
  10
549.46631
  20
365.79584
  0
VERTEX
  5
93c
  8
Layer_0
  10
549.46631
  20
343.57362
  0
VERTEX
  5
93d
  8
Layer_0
  10
552.46631
  20
343.57362
  0
VERTEX
  5
93e
  8
Layer_0
  10
552.46631
  20
321.35139
  0
VERTEX
  5
93f
  8
Layer_0
  10
549.46631
  20
321.35139
  0
VERTEX
  5
940
  8
Layer_0
  10
549.46631
  20
299.12917
  0
VERTEX
  5
941
  8
Layer_0
  10
552.46631
  20
299.12917
  0
VERTEX
  5
942
  8
Layer_0
  10
552.46631
  20
276.90695
  0
VERTEX
  5
943
  8
Layer_0
  10
549.46631
  20
276.90695
  0
VERTEX
  5
944
  8
Layer_0
  10
549.46631
  20
254.68472
  0
VERTEX
  5
945
  8
Layer_0
  10
552.46631
  20
254.68472
  0
VERTEX
  5
946
  8
Layer_0
  10
552.46631
  20
232.46251
  0
VERTEX
  5
947
  8
Layer_0
  10
549.46631
  20
232.46251
  0
VERTEX
  5
948
  8
Layer_0
  10
549.46631
  20
210.2403
  0
VERTEX
  5
949
  8
Layer_0
  10
552.46631
  20
210.2403
  0
VERTEX
  5
94a
  8
Layer_0
  10
552.46631
  20
188.01807
  0
VERTEX
  5
94b
  8
Layer_0
  10
560.96631
  20
188.01807
  0
VERTEX
  5
94c
  8
Layer_0
  10
560.96631
  20
191.01807
  0
VERTEX
  5
94d
  8
Layer_0
  10
572.46631
  20
191.01807
  0
VERTEX
  5
94e
  8
Layer_0
  10
572.46631
  20
210.2403
  0
VERTEX
  5
94f
  8
Layer_0
  10
575.46631
  20
210.2403
  0
VERTEX
  5
950
  8
Layer_0
  10
575.46631
  20
232.46251
  0
VERTEX
  5
951
  8
Layer_0
  10
572.46631
  20
232.46251
  0
VERTEX
  5
952
  8
Layer_0
  10
572.46631
  20
254.68472
  0
VERTEX
  5
953
  8
Layer_0
  10
575.46631
  20
254.68472
  0
VERTEX
  5
954
  8
Layer_0
  10
575.46631
  20
276.90695
  0
VERTEX
  5
955
  8
Layer_0
  10
572.46631
  20
276.90695
  0
VERTEX
  5
956
  8
Layer_0
  10
572.46631
  20
299.12917
  0
VERTEX
  5
957
  8
Layer_0
  10
575.46631
  20
299.12917
  0
VERTEX
  5
958
  8
Layer_0
  10
575.46631
  20
321.35139
  0
VERTEX
  5
959
  8
Layer_0
  10
572.46631
  20
321.35139
  0
VERTEX
  5
95a
  8
Layer_0
  10
572.46631
  20
343.57362
  0
VERTEX
  5
95b
  8
Layer_0
  10
575.46631
  20
343.57362
  0
VERTEX
  5
95c
  8
Layer_0
  10
575.46631
  20
365.79584
  0
VERTEX
  5
95d
  8
Layer_0
  10
572.46631
  20
365.79584
  0
VERTEX
  5
95e
  8
Layer_0
  10
572.46631
  20
385.01807
  0
VERTEX
  5
95f
  8
Layer_0
  10
560.96631
  20
385.01807
  0
VERTEX
  5
960
  8
Layer_0
  10
560.96631
  20
388.01807
  0
SEQEND
  0
CIRCLE
  5
962
  8
Layer_1
  62
5
  10
529
  20
101
  30
0
  40
5
  0
POLYLINE
  5
962
  8
Layer_0
  62
7
  70
1
  66
1
  10
0
  20
0
  30
0
  0
VERTEX
  5
962
  8
Layer_0
  10
534
  20
91
  42
0.41421356
  0
VERTEX
  5
963
  8
Layer_0
  10
539
  20
96
  0
VERTEX
  5
964
  8
Layer_0
  10
539
  20
111
  0
VERTEX
  5
965
  8
Layer_0
  10
519
  20
111
  0
VERTEX
  5
966
  8
Layer_0
  10
519
  20
91
  0
SEQEND
  0
CIRCLE
  5
968
  8
Layer_1
  62
5
  10
529.5
  20
163.5
  30
0
  40
5
  0
POLYLINE
  5
968
  8
Layer_0
  62
7
  70
1
  66
1
  10
0
  20
0
  30
0
  0
VERTEX
  5
968
  8
Layer_0
  10
534.5
  20
153.5
  42
0.41421356
  0
VERTEX
  5
969
  8
Layer_0
  10
539.5
  20
158.5
  0
VERTEX
  5
96a
  8
Layer_0
  10
539.5
  20
173.5
  0
VERTEX
  5
96b
  8
Layer_0
  10
534.5
  20
173.5
  0
VERTEX
  5
96c
  8
Layer_0
  10
534.5
  20
176.5
  0
VERTEX
  5
96d
  8
Layer_0
  10
524.5
  20
176.5
  0
VERTEX
  5
96e
  8
Layer_0
  10
524.5
  20
173.5
  0
VERTEX
  5
96f
  8
Layer_0
  10
519.5
  20
173.5
  0
VERTEX
  5
970
  8
Layer_0
  10
519.5
  20
168.5
  0
VERTEX
  5
971
  8
Layer_0
  10
516.5
  20
168.5
  0
VERTEX
  5
972
  8
Layer_0
  10
516.5
  20
158.5
  0
VERTEX
  5
973
  8
Layer_0
  10
519.5
  20
158.5
  0
VERTEX
  5
974
  8
Layer_0
  10
519.5
  20
153.5
  0
SEQEND
  0
CIRCLE
  5
976
  8
Layer_1
  62
5
  10
561.5
  20
164.5
  30
0
  40
5
  0
POLYLINE
  5
976
  8
Layer_0
  62
7
  70
1
  66
1
  10
0
  20
0
  30
0
  0
VERTEX
  5
976
  8
Layer_0
  10
566.5
  20
154.50003
  42
0.41421356
  0
VERTEX
  5
977
  8
Layer_0
  10
571.5
  20
159.50003
  0
VERTEX
  5
978
  8
Layer_0
  10
571.5
  20
174.50003
  0
VERTEX
  5
979
  8
Layer_0
  10
566.5
  20
174.50003
  0
VERTEX
  5
97a
  8
Layer_0
  10
566.5
  20
177.50003
  0
VERTEX
  5
97b
  8
Layer_0
  10
556.5
  20
177.50003
  0
VERTEX
  5
97c
  8
Layer_0
  10
556.5
  20
174.50003
  0
VERTEX
  5
97d
  8
Layer_0
  10
551.5
  20
174.50003
  0
VERTEX
  5
97e
  8
Layer_0
  10
551.5
  20
169.50003
  0
VERTEX
  5
97f
  8
Layer_0
  10
548.5
  20
169.50003
  0
VERTEX
  5
980
  8
Layer_0
  10
548.5
  20
159.50003
  0
VERTEX
  5
981
  8
Layer_0
  10
551.5
  20
159.50003
  0
VERTEX
  5
982
  8
Layer_0
  10
551.5
  20
154.50003
  0
SEQEND
  0
CIRCLE
  5
984
  8
Layer_1
  62
5
  10
529.5
  20
133.49997
  30
0
  40
5
  0
POLYLINE
  5
984
  8
Layer_0
  62
7
  70
1
  66
1
  10
0
  20
0
  30
0
  0
VERTEX
  5
984
  8
Layer_0
  10
534.5
  20
123.5
  42
0.41421356
  0
VERTEX
  5
985
  8
Layer_0
  10
539.5
  20
128.5
  0
VERTEX
  5
986
  8
Layer_0
  10
539.5
  20
143.5
  0
VERTEX
  5
987
  8
Layer_0
  10
534.5
  20
143.5
  0
VERTEX
  5
988
  8
Layer_0
  10
534.5
  20
146.5
  0
VERTEX
  5
989
  8
Layer_0
  10
524.5
  20
146.5
  0
VERTEX
  5
98a
  8
Layer_0
  10
524.5
  20
143.5
  0
VERTEX
  5
98b
  8
Layer_0
  10
519.5
  20
143.5
  0
VERTEX
  5
98c
  8
Layer_0
  10
519.5
  20
138.5
  0
VERTEX
  5
98d
  8
Layer_0
  10
516.5
  20
138.5
  0
VERTEX
  5
98e
  8
Layer_0
  10
516.5
  20
128.5
  0
VERTEX
  5
98f
  8
Layer_0
  10
519.5
  20
128.5
  0
VERTEX
  5
990
  8
Layer_0
  10
519.5
  20
123.5
  0
SEQEND
  0
CIRCLE
  5
992
  8
Layer_1
  62
5
  10
561.5
  20
133.49997
  30
0
  40
5
  0
POLYLINE
  5
992
  8
Layer_0
  62
7
  70
1
  66
1
  10
0
  20
0
  30
0
  0
VERTEX
  5
992
  8
Layer_0
  10
566.5
  20
123.5
  42
0.41421356
  0
VERTEX
  5
993
  8
Layer_0
  10
571.5
  20
128.5
  0
VERTEX
  5
994
  8
Layer_0
  10
571.5
  20
143.5
  0
VERTEX
  5
995
  8
Layer_0
  10
566.5
  20
143.5
  0
VERTEX
  5
996
  8
Layer_0
  10
566.5
  20
146.5
  0
VERTEX
  5
997
  8
Layer_0
  10
556.5
  20
146.5
  0
VERTEX
  5
998
  8
Layer_0
  10
556.5
  20
143.5
  0
VERTEX
  5
999
  8
Layer_0
  10
551.5
  20
143.5
  0
VERTEX
  5
99a
  8
Layer_0
  10
551.5
  20
138.5
  0
VERTEX
  5
99b
  8
Layer_0
  10
548.5
  20
138.5
  0
VERTEX
  5
99c
  8
Layer_0
  10
548.5
  20
128.5
  0
VERTEX
  5
99d
  8
Layer_0
  10
551.5
  20
128.5
  0
VERTEX
  5
99e
  8
Layer_0
  10
551.5
  20
123.5
  0
SEQEND
  0
CIRCLE
  5
9a0
  8
Layer_1
  62
5
  10
561
  20
102
  30
0
  40
5
  0
POLYLINE
  5
9a0
  8
Layer_0
  62
7
  70
1
  66
1
  10
0
  20
0
  30
0
  0
VERTEX
  5
9a0
  8
Layer_0
  10
566
  20
92
  42
0.41421356
  0
VERTEX
  5
9a1
  8
Layer_0
  10
571
  20
97
  0
VERTEX
  5
9a2
  8
Layer_0
  10
571
  20
112
  0
VERTEX
  5
9a3
  8
Layer_0
  10
551
  20
112
  0
VERTEX
  5
9a4
  8
Layer_0
  10
551
  20
92
  0
SEQEND
  0
CIRCLE
  5
9a6
  8
Layer_1
  62
5
  10
529
  20
72
  30
0
  40
5
  0
POLYLINE
  5
9a6
  8
Layer_0
  62
7
  70
1
  66
1
  10
0
  20
0
  30
0
  0
VERTEX
  5
9a6
  8
Layer_0
  10
534
  20
62
  42
0.41421356
  0
VERTEX
  5
9a7
  8
Layer_0
  10
539
  20
67
  0
VERTEX
  5
9a8
  8
Layer_0
  10
539
  20
82
  0
VERTEX
  5
9a9
  8
Layer_0
  10
519
  20
82
  0
VERTEX
  5
9aa
  8
Layer_0
  10
519
  20
62
  0
SEQEND
  0
CIRCLE
  5
9ac
  8
Layer_1
  62
5
  10
561
  20
72
  30
0
  40
5
  0
POLYLINE
  5
9ac
  8
Layer_0
  62
7
  70
1
  66
1
  10
0
  20
0
  30
0
  0
VERTEX
  5
9ac
  8
Layer_0
  10
566
  20
62
  42
0.41421356
  0
VERTEX
  5
9ad
  8
Layer_0
  10
571
  20
67
  0
VERTEX
  5
9ae
  8
Layer_0
  10
571
  20
82
  0
VERTEX
  5
9af
  8
Layer_0
  10
551
  20
82
  0
VERTEX
  5
9b0
  8
Layer_0
  10
551
  20
62
  0
SEQEND
  0
ENDSEC
  0
EOF
